<svg width="18" height="18" viewBox="0 0 18 18" fill="none" xmlns="http://www.w3.org/2000/svg">
<path fill-rule="evenodd" clip-rule="evenodd" d="M8.99998 11.2977L14.7449 17.0437C15.0497 17.3486 15.4632 17.5199 15.8943 17.5199C16.3254 17.5199 16.7389 17.3486 17.0437 17.0437C17.3486 16.7389 17.5198 16.3254 17.5198 15.8943C17.5198 15.4632 17.3486 15.0498 17.0437 14.7449L11.2966 9L17.0426 3.25508C17.1935 3.10414 17.3132 2.92495 17.3948 2.72776C17.4764 2.53057 17.5184 2.31924 17.5184 2.10582C17.5183 1.89241 17.4762 1.68109 17.3945 1.48394C17.3128 1.28679 17.193 1.10766 17.0421 0.956789C16.8912 0.805916 16.712 0.686252 16.5148 0.604628C16.3176 0.523003 16.1063 0.481018 15.8928 0.481068C15.6794 0.481118 15.4681 0.523203 15.271 0.604921C15.0738 0.686638 14.8947 0.806387 14.7438 0.957331L8.99998 6.70225L3.25506 0.957331C3.10523 0.802058 2.92598 0.678178 2.72777 0.592922C2.52955 0.507665 2.31634 0.462737 2.10057 0.460762C1.88481 0.458786 1.67081 0.4998 1.47107 0.581412C1.27132 0.663025 1.08983 0.7836 0.937187 0.936103C0.78454 1.08861 0.663793 1.26998 0.581993 1.46965C0.500192 1.66932 0.458976 1.88328 0.460748 2.09904C0.462521 2.31481 0.507247 2.52806 0.592316 2.72636C0.677386 2.92465 0.801096 3.10402 0.956228 3.254L6.70331 9L0.957312 14.7449C0.652468 15.0498 0.481208 15.4632 0.481208 15.8943C0.481208 16.3254 0.652468 16.7389 0.957312 17.0437C1.26216 17.3486 1.67561 17.5199 2.10673 17.5199C2.53784 17.5199 2.9513 17.3486 3.25614 17.0437L8.99998 11.2967V11.2977Z" fill="#F9F8FF"/>
</svg>
