<svg width="100" height="29" viewBox="0 0 100 29" fill="none" xmlns="http://www.w3.org/2000/svg">
<path d="M15.2158 18.5723V22H3.86328V18.5723H15.2158ZM5.29883 0.671875V22H0.904297V0.671875H5.29883ZM13.7363 9.3584V12.6982H3.86328V9.3584H13.7363ZM15.2012 0.671875V4.11426H3.86328V0.671875H15.2012ZM26.0703 18.4258V11.3652C26.0703 10.8574 25.9873 10.4229 25.8213 10.0615C25.6553 9.69043 25.3965 9.40234 25.0449 9.19727C24.7031 8.99219 24.2588 8.88965 23.7119 8.88965C23.2432 8.88965 22.8379 8.97266 22.4961 9.13867C22.1543 9.29492 21.8906 9.52441 21.7051 9.82715C21.5195 10.1201 21.4268 10.4668 21.4268 10.8672H17.208C17.208 10.1934 17.3643 9.55371 17.6768 8.94824C17.9893 8.34277 18.4434 7.81055 19.0391 7.35156C19.6348 6.88281 20.3428 6.5166 21.1631 6.25293C21.9932 5.98926 22.9209 5.85742 23.9463 5.85742C25.1768 5.85742 26.2705 6.0625 27.2275 6.47266C28.1846 6.88281 28.9365 7.49805 29.4834 8.31836C30.04 9.13867 30.3184 10.1641 30.3184 11.3945V18.1768C30.3184 19.0459 30.3721 19.7588 30.4795 20.3154C30.5869 20.8623 30.7432 21.3408 30.9482 21.751V22H26.6855C26.4805 21.5703 26.3242 21.0332 26.2168 20.3887C26.1191 19.7344 26.0703 19.0801 26.0703 18.4258ZM26.627 12.3467L26.6562 14.7344H24.2979C23.7412 14.7344 23.2578 14.7979 22.8477 14.9248C22.4375 15.0518 22.1006 15.2324 21.8369 15.4668C21.5732 15.6914 21.3779 15.9551 21.251 16.2578C21.1338 16.5605 21.0752 16.8926 21.0752 17.2539C21.0752 17.6152 21.1582 17.9424 21.3242 18.2354C21.4902 18.5186 21.7295 18.7432 22.042 18.9092C22.3545 19.0654 22.7207 19.1436 23.1406 19.1436C23.7754 19.1436 24.3271 19.0166 24.7959 18.7627C25.2646 18.5088 25.626 18.1963 25.8799 17.8252C26.1436 17.4541 26.2803 17.1025 26.29 16.7705L27.4033 18.5576C27.2471 18.958 27.0322 19.373 26.7588 19.8027C26.4951 20.2324 26.1582 20.6377 25.748 21.0186C25.3379 21.3896 24.8447 21.6973 24.2686 21.9414C23.6924 22.1758 23.0088 22.293 22.2178 22.293C21.2119 22.293 20.2988 22.0928 19.4785 21.6924C18.668 21.2822 18.0234 20.7207 17.5449 20.0078C17.0762 19.2852 16.8418 18.4648 16.8418 17.5469C16.8418 16.7168 16.998 15.9795 17.3105 15.335C17.623 14.6904 18.082 14.1484 18.6875 13.709C19.3027 13.2598 20.0693 12.9229 20.9873 12.6982C21.9053 12.4639 22.9697 12.3467 24.1807 12.3467H26.627ZM42.1396 17.6201C42.1396 17.3174 42.0518 17.0439 41.876 16.7998C41.7002 16.5557 41.373 16.3311 40.8945 16.126C40.4258 15.9111 39.7471 15.7158 38.8584 15.54C38.0576 15.3643 37.3105 15.1445 36.6172 14.8809C35.9336 14.6074 35.3379 14.2803 34.8301 13.8994C34.332 13.5186 33.9414 13.0693 33.6582 12.5518C33.375 12.0244 33.2334 11.4238 33.2334 10.75C33.2334 10.0859 33.375 9.46094 33.6582 8.875C33.9512 8.28906 34.3662 7.77148 34.9033 7.32227C35.4502 6.86328 36.1143 6.50684 36.8955 6.25293C37.6865 5.98926 38.5752 5.85742 39.5615 5.85742C40.9385 5.85742 42.1201 6.07715 43.1064 6.5166C44.1025 6.95605 44.8643 7.56152 45.3916 8.33301C45.9287 9.09473 46.1973 9.96387 46.1973 10.9404H41.9785C41.9785 10.5303 41.8906 10.1641 41.7148 9.8418C41.5488 9.50977 41.2852 9.25098 40.9238 9.06543C40.5723 8.87012 40.1133 8.77246 39.5469 8.77246C39.0781 8.77246 38.6729 8.85547 38.3311 9.02148C37.9893 9.17773 37.7256 9.39258 37.54 9.66602C37.3643 9.92969 37.2764 10.2227 37.2764 10.5449C37.2764 10.7891 37.3252 11.0088 37.4229 11.2041C37.5303 11.3896 37.7012 11.5605 37.9355 11.7168C38.1699 11.873 38.4727 12.0195 38.8438 12.1562C39.2246 12.2832 39.6934 12.4004 40.25 12.5078C41.3926 12.7422 42.4131 13.0498 43.3115 13.4307C44.21 13.8018 44.9229 14.3096 45.4502 14.9541C45.9775 15.5889 46.2412 16.4238 46.2412 17.459C46.2412 18.1621 46.085 18.8066 45.7725 19.3926C45.46 19.9785 45.0107 20.4912 44.4248 20.9307C43.8389 21.3604 43.1357 21.6973 42.3154 21.9414C41.5049 22.1758 40.5918 22.293 39.5762 22.293C38.1016 22.293 36.8516 22.0293 35.8262 21.502C34.8105 20.9746 34.0391 20.3057 33.5117 19.4951C32.9941 18.6748 32.7354 17.835 32.7354 16.9756H36.7344C36.7539 17.5518 36.9004 18.0156 37.1738 18.3672C37.457 18.7188 37.8135 18.9727 38.2432 19.1289C38.6826 19.2852 39.1562 19.3633 39.6641 19.3633C40.2109 19.3633 40.665 19.29 41.0264 19.1436C41.3877 18.9873 41.6611 18.7822 41.8467 18.5283C42.042 18.2646 42.1396 17.9619 42.1396 17.6201ZM53.6826 20.2129L57.8867 6.15039H62.4131L56.041 24.3877C55.9043 24.7881 55.7188 25.2178 55.4844 25.6768C55.2598 26.1357 54.9521 26.5703 54.5615 26.9805C54.1807 27.4004 53.6973 27.7422 53.1113 28.0059C52.5352 28.2695 51.8271 28.4014 50.9873 28.4014C50.5869 28.4014 50.2598 28.377 50.0059 28.3281C49.752 28.2793 49.4492 28.2109 49.0977 28.123V25.0322C49.2051 25.0322 49.3174 25.0322 49.4346 25.0322C49.5518 25.042 49.6641 25.0469 49.7715 25.0469C50.3281 25.0469 50.7822 24.9834 51.1338 24.8564C51.4854 24.7295 51.7686 24.5342 51.9834 24.2705C52.1982 24.0166 52.3691 23.6846 52.4961 23.2744L53.6826 20.2129ZM51.9248 6.15039L55.3672 17.6348L55.9678 22.1025L53.0967 22.4102L47.3984 6.15039H51.9248ZM76.7246 14.9248H81.1045C81.0166 16.3604 80.6211 17.6348 79.918 18.748C79.2246 19.8613 78.2529 20.7305 77.0029 21.3555C75.7627 21.9805 74.2686 22.293 72.5205 22.293C71.1533 22.293 69.9277 22.0586 68.8438 21.5898C67.7598 21.1113 66.832 20.4277 66.0605 19.5391C65.2988 18.6504 64.7178 17.5762 64.3174 16.3164C63.917 15.0566 63.7168 13.6455 63.7168 12.083V10.6035C63.7168 9.04102 63.9219 7.62988 64.332 6.37012C64.752 5.10059 65.3477 4.02148 66.1191 3.13281C66.9004 2.24414 67.833 1.56055 68.917 1.08203C70.001 0.603516 71.2119 0.364258 72.5498 0.364258C74.3271 0.364258 75.8262 0.686523 77.0469 1.33105C78.2773 1.97559 79.2295 2.86426 79.9033 3.99707C80.5869 5.12988 80.9971 6.41895 81.1338 7.86426H76.7393C76.6904 7.00488 76.5195 6.27734 76.2266 5.68164C75.9336 5.07617 75.4893 4.62207 74.8936 4.31934C74.3076 4.00684 73.5264 3.85059 72.5498 3.85059C71.8174 3.85059 71.1777 3.9873 70.6309 4.26074C70.084 4.53418 69.625 4.94922 69.2539 5.50586C68.8828 6.0625 68.6045 6.76562 68.4189 7.61523C68.2432 8.45508 68.1553 9.44141 68.1553 10.5742V12.083C68.1553 13.1865 68.2383 14.1582 68.4043 14.998C68.5703 15.8281 68.8242 16.5312 69.166 17.1074C69.5176 17.6738 69.9668 18.1035 70.5137 18.3965C71.0703 18.6797 71.7393 18.8213 72.5205 18.8213C73.4385 18.8213 74.1953 18.6748 74.791 18.3818C75.3867 18.0889 75.8408 17.6543 76.1533 17.0781C76.4756 16.502 76.666 15.7842 76.7246 14.9248ZM93.0869 0.671875V22H88.707V0.671875H93.0869ZM99.6494 0.671875V4.11426H82.2471V0.671875H99.6494Z" fill="#291651"/>
</svg>
