<svg width="38" height="27" viewBox="0 0 38 27" fill="none" xmlns="http://www.w3.org/2000/svg">
<path d="M35.2857 0H2.71429C1.99441 0 1.30402 0.284463 0.794996 0.790812C0.285968 1.29716 0 1.98392 0 2.7V24.3C0 25.0161 0.285968 25.7028 0.794996 26.2092C1.30402 26.7155 1.99441 27 2.71429 27H35.2857C36.0056 27 36.696 26.7155 37.205 26.2092C37.714 25.7028 38 25.0161 38 24.3V2.7C38 1.98392 37.714 1.29716 37.205 0.790812C36.696 0.284463 36.0056 0 35.2857 0ZM32.3 2.7L19 11.853L5.7 2.7H32.3ZM2.71429 24.3V3.9285L18.2264 14.607C18.4536 14.7638 18.7235 14.8478 19 14.8478C19.2765 14.8478 19.5464 14.7638 19.7736 14.607L35.2857 3.9285V24.3H2.71429Z" fill="#291651"/>
</svg>
