<svg width="36" height="35" viewBox="0 0 36 35" fill="none" xmlns="http://www.w3.org/2000/svg">
<path d="M28.1455 0C28.8681 0 29.5823 0.255535 30.1763 0.712807L30.2592 0.75719L30.3034 0.797537L34.6205 5.12818L34.5791 5.16852C35.9095 6.36819 36.3239 8.15963 35.7451 9.70897C35.7423 9.7157 35.7478 9.74125 35.7451 9.74932C34.575 13.0148 31.5771 19.3117 25.7293 25.0061C19.8581 30.722 13.3002 33.5194 10.0579 34.7568H10.0164C9.20321 35.0178 8.33451 35.0698 7.49459 34.9076C6.65467 34.7455 5.87206 34.3748 5.22268 33.8314L5.18124 33.7911L5.13703 33.7481L0.859974 29.5882C-0.286652 28.4719 -0.286652 26.5433 0.859974 25.427L6.47154 19.964L6.51575 19.8793C7.66237 18.763 9.68624 18.763 10.8329 19.8793L10.8743 19.9223L13.5958 22.5718C15.6695 21.6018 17.5768 20.3256 19.2502 18.7885C21.5103 16.6864 22.668 14.2696 23.0907 13.3228L20.3305 10.6329C19.1673 9.50051 19.1494 7.62569 20.372 6.51479L20.3305 6.47175L20.459 6.34667L25.9849 0.797537L26.0305 0.75719L26.1162 0.712807C26.691 0.258816 27.4068 0.00758579 28.1469 0H28.1455ZM28.1455 2.68984C28.0433 2.68984 27.9425 2.73826 27.8416 2.81626L22.3157 8.32102L22.2301 8.40575L22.1886 8.44609C22.1983 8.43937 22.1057 8.57655 22.2743 8.74198L25.728 12.1043L26.3773 12.6933L26.0733 13.5326C26.0733 13.5326 24.4846 17.6655 21.1511 20.7629L20.8513 21.0144C17.6408 23.8683 13.8555 25.4257 13.8555 25.4257L12.9921 25.805L12.3428 25.1755L8.88913 21.8132C8.65427 21.5846 8.69572 21.5846 8.46087 21.8132L2.80371 27.318C2.56886 27.5466 2.56886 27.4659 2.80371 27.6946L7.03518 31.8141C7.67066 32.3467 8.34344 32.4543 9.14884 32.1933C12.282 30.9964 18.3633 28.3912 23.7856 23.1151C29.2494 17.7933 32.1049 11.7546 33.152 8.8267C33.3634 8.27932 33.2114 7.46834 32.721 7.06083L32.6796 7.02048L32.6354 6.9761L28.4467 2.81626C28.3645 2.7421 28.2587 2.69749 28.1469 2.68984H28.1455Z" fill="#291651"/>
</svg>
