<svg width="726" height="730" viewBox="0 0 726 730" fill="none" xmlns="http://www.w3.org/2000/svg">
<path d="M31.8162 159.858L317.426 159.858V147.333L31.8162 147.333V159.858Z" fill="#EBEBEB"/>
<path d="M301.399 159.875H288.869V201.291H301.399V159.875Z" fill="#EBEBEB"/>
<path d="M301.399 159.875H288.869V172.676H301.399V159.875Z" fill="#DBDBDB"/>
<path d="M60.3372 159.875H47.8076V201.291H60.3372V159.875Z" fill="#EBEBEB"/>
<path d="M60.3372 159.875H47.8076V172.676H60.3372V159.875Z" fill="#DBDBDB"/>
<path d="M264.102 147.35V67.5508H243.996V147.35H264.102Z" fill="#C7C7C7"/>
<path d="M264.102 72.0574V63.2842H243.996V72.0574H264.102Z" fill="#DBDBDB"/>
<path d="M264.102 86.5365V83.2808H243.996V86.5365H264.102Z" fill="#DBDBDB"/>
<path d="M264.102 136.88V128.107H241.493V136.88H264.102Z" fill="#DBDBDB"/>
<path d="M243.996 147.35V54.2539H229.941V147.35H243.996Z" fill="#DBDBDB"/>
<path d="M241.254 98.8053V63.0098H232.821V98.8053H241.254Z" fill="#EBEBEB"/>
<path d="M139.893 147.382L206.119 81.9336L196.238 71.941L130.012 137.39L139.893 147.382Z" fill="#C7C7C7"/>
<path d="M153.417 129.994L178.881 104.829L172.952 98.8336L147.488 123.999L153.417 129.994Z" fill="#DBDBDB"/>
<path d="M229.959 147.349V76.6494H206.1V147.349H229.959Z" fill="#A6A6A6"/>
<path d="M229.959 139.879V133.282H206.1V139.879H229.959Z" fill="#C7C7C7"/>
<path d="M229.959 128.947V126.394H206.1V128.947H229.959Z" fill="#C7C7C7"/>
<path d="M280.592 147.367V80.9165H264.12V147.367H280.592Z" fill="#A6A6A6"/>
<path d="M280.592 140.307V134.121H264.12V140.307H280.592Z" fill="#C7C7C7"/>
<path d="M280.592 100.793V94.6074H264.12V100.793H280.592Z" fill="#C7C7C7"/>
<path d="M280.574 107.442V105.043H264.102V107.442H280.574Z" fill="#C7C7C7"/>
<path d="M89.5621 62.222C103.617 75.9302 105.983 97.2807 103.017 115.924C103.017 116.335 102.28 116.232 102.28 115.821C102.28 111.589 102.417 107.373 102.4 103.192C102.4 102.987 102.263 102.815 102.177 102.627C98.3899 100.132 95.2569 96.7651 93.0416 92.8084C90.6934 88.199 89.7678 82.9899 87.9852 78.1578C87.8138 77.6951 88.3109 77.8322 88.6194 78.0721C97.1896 84.3779 99.8978 91.1634 102.332 100.228C102.276 95.4853 101.776 90.7583 100.84 86.1085C99.2081 77.3442 95.173 69.2052 89.1851 62.599C89.1529 62.5465 89.1394 62.4847 89.1466 62.4235C89.1539 62.3624 89.1815 62.3055 89.225 62.2619C89.2686 62.2184 89.3255 62.1908 89.3867 62.1835C89.4478 62.1763 89.5096 62.1898 89.5621 62.222Z" fill="#A6A6A6"/>
<path d="M86.9225 63.8325C84.4886 63.8325 82.9803 67.7736 81.0948 68.973C80.8964 69.1341 80.6662 69.2515 80.4194 69.3175C80.1725 69.3836 79.9144 69.3969 79.6621 69.3564C79.4097 69.316 79.1688 69.2228 78.9549 69.0829C78.741 68.943 78.5591 68.7596 78.4209 68.5447C76.5526 65.9401 79.1237 62.7358 81.5233 60.9366C79.9341 61.8271 78.2568 62.5507 76.5184 63.0956C76.2809 63.1791 76.028 63.2093 75.7776 63.1841C75.5271 63.1588 75.2853 63.0787 75.0694 62.9495C74.8534 62.8203 74.6685 62.6451 74.5279 62.4364C74.3873 62.2277 74.2944 61.9906 74.2558 61.742C73.4331 58.195 77.8896 56.6014 80.9577 56.6014C79.4665 55.5733 75.2157 52.7802 77.5296 51.4608C79.8436 50.1414 84.8143 54.0825 86.4255 55.4019C88.8251 57.3382 91.6704 60.2512 91.7904 63.2841C91.8761 66.7455 88.7737 64.5693 86.9225 63.8325Z" fill="#DBDBDB"/>
<path d="M87.6088 64.432C84.5236 63.0098 78.5759 65.0489 78.0788 63.8666C77.0504 61.4848 81.7982 59.8569 84.3693 59.5314C82.0039 58.8974 77.5132 57.8178 77.616 55.6074C77.7874 52.8315 84.5578 55.2133 87.9859 57.835C92.2881 61.1421 92.271 64.3464 91.5511 64.9804C90.5741 65.8543 88.123 64.6548 87.6088 64.432Z" fill="#EBEBEB"/>
<path d="M121.58 60.868C107.011 74.0793 103.84 95.2585 106.154 113.987C106.154 114.416 106.874 114.33 106.891 113.987C107.045 109.755 107.08 105.54 107.251 101.359L107.491 100.793C111.371 98.4568 114.629 95.2177 116.987 91.3516C119.524 86.8279 120.638 81.6531 122.609 76.9066C122.797 76.444 122.3 76.5639 121.975 76.7867C113.182 82.7669 110.199 89.4496 107.405 98.4114C107.639 93.6749 108.316 88.9707 109.428 84.3605C111.401 75.6549 115.757 67.6695 122.009 61.2964C122.066 61.2396 122.098 61.1625 122.098 61.0822C122.098 61.0019 122.066 60.9248 122.009 60.868C121.952 60.8112 121.875 60.7793 121.795 60.7793C121.714 60.7793 121.637 60.8112 121.58 60.868Z" fill="#A6A6A6"/>
<path d="M124.151 62.5646C126.568 62.7359 127.939 66.6599 129.773 67.8594C129.966 68.0283 130.191 68.1549 130.436 68.2306C130.68 68.3064 130.938 68.3296 131.192 68.2989C131.446 68.2681 131.691 68.1841 131.91 68.0522C132.129 67.9204 132.318 67.7437 132.464 67.5338C134.436 64.9978 131.985 61.6907 129.653 59.8058C131.204 60.8048 132.852 61.6431 134.573 62.3075C134.807 62.4003 135.059 62.4402 135.31 62.4246C135.562 62.4089 135.807 62.338 136.028 62.217C136.249 62.0959 136.44 61.9276 136.589 61.7241C136.737 61.5206 136.839 61.2868 136.887 61.0395C137.829 57.5097 133.459 55.7619 130.39 55.5734C131.899 54.5967 136.252 51.9578 134.058 50.4328C131.865 48.9078 126.722 52.8146 125.008 54.0998C122.54 55.9504 119.592 58.7434 119.369 61.7592C119.095 65.2891 122.266 63.2328 124.151 62.5646Z" fill="#DBDBDB"/>
<path d="M123.432 63.0954C126.585 61.8103 132.43 64.055 132.979 62.907C134.093 60.5766 129.414 58.7602 126.877 58.349C129.259 57.8007 133.733 56.9439 133.733 54.6649C133.733 51.889 126.877 54.0138 123.294 56.5155C118.872 59.6513 118.769 62.8384 119.455 63.5067C120.415 64.4491 122.917 63.3525 123.432 63.0954Z" fill="#EBEBEB"/>
<path d="M106.668 95.7727C105.693 102.84 104.18 109.823 102.143 116.661C102.116 116.795 102.037 116.912 101.922 116.988C101.808 117.063 101.669 117.091 101.535 117.063C101.401 117.036 101.283 116.957 101.207 116.843C101.132 116.728 101.105 116.589 101.132 116.455C102.092 110.012 103.84 103.689 104.783 97.2635C105.836 90.7455 106.215 84.1364 105.914 77.5408C105.297 66.6942 102.349 55.145 95.27 46.6974C95.1157 46.4917 95.4414 46.2004 95.5956 46.3889C109.788 62.9245 107.594 83.1955 107.594 85.0118C109.599 78.1577 111.673 70.3269 119.266 63.3528C119.592 63.0444 119.849 63.1986 119.798 63.7127C118.444 76.3928 114.913 83.0241 107.542 89.8097C107.251 91.7802 106.994 93.785 106.668 95.7727Z" fill="#A6A6A6"/>
<path d="M95.1326 48.5651C92.5786 47.4342 89.0649 50.6728 86.5624 50.8955C86.2813 50.9629 85.9894 50.9712 85.7049 50.9201C85.4205 50.8689 85.1497 50.7594 84.9097 50.5984C84.6697 50.4374 84.4658 50.2284 84.3106 49.9846C84.1555 49.7408 84.0526 49.4675 84.0085 49.182C83.3743 45.5493 87.6594 43.4931 91.0532 42.842C88.9106 42.7049 86.8024 43.2875 84.6941 42.722C84.4037 42.6882 84.1241 42.5919 83.8745 42.4397C83.6249 42.2875 83.4114 42.083 83.2484 41.8404C83.0855 41.5977 82.9772 41.3226 82.9308 41.034C82.8845 40.7455 82.9013 40.4503 82.9801 40.1689C83.9228 36.0735 89.3391 36.7418 92.5615 38.1298C91.5331 36.4162 88.5335 31.2757 91.5674 30.9844C94.6012 30.6931 97.8065 37.3587 98.8177 39.552C100.326 42.7734 101.834 47.2114 100.412 50.4157C98.8177 54.0827 96.6923 50.2615 95.1326 48.5651Z" fill="#DBDBDB"/>
<path d="M95.5615 49.5246C93.059 46.5259 85.8772 45.6349 85.9458 44.1613C86.0829 41.1797 91.8249 41.8651 94.6531 42.8247C92.5277 40.9741 88.3455 37.6841 89.631 35.3537C91.2079 32.5607 97.0185 38.4381 99.2639 42.8932C102.075 48.4965 100.429 51.7864 99.3667 52.0949C97.9098 52.5061 95.9729 50.0386 95.5615 49.5246Z" fill="#EBEBEB"/>
<path d="M116.009 99.5768L122.265 147.35H84.1963C84.9847 143.117 92.0637 99.5254 92.0637 99.5254L116.009 99.5768Z" fill="#DBDBDB"/>
<path d="M569.989 111.811C571.026 107.416 572.913 103.266 575.542 99.5939C578.045 96.1668 582.078 93.6765 587.643 92.1229C589.357 91.6088 591.363 91.0605 593.779 90.4094C596.266 89.8052 598.698 88.9912 601.047 87.9761C603.438 86.9561 605.644 85.5493 607.577 83.8123C609.537 82.044 610.907 79.7175 611.503 77.1467C612.014 75.2978 612.079 73.3537 611.691 71.4749C611.331 69.7868 610.631 68.1895 609.634 66.7798C608.604 65.358 607.298 64.1577 605.795 63.25C604.257 62.2981 602.58 61.5927 600.824 61.1595C598.809 60.6417 596.709 60.5426 594.654 60.8682C592.785 61.1458 590.963 61.6762 589.237 62.4446C587.555 63.1984 585.967 64.1474 584.507 65.2719C583.159 66.2943 581.872 67.3927 580.65 68.5619L570.194 56.5672C572.141 53.9383 574.517 51.656 577.222 49.8159C579.856 48.0273 582.745 46.6466 585.792 45.7206C588.897 44.7924 592.116 44.3022 595.356 44.2641C598.702 44.2163 602.04 44.6139 605.281 45.4464C608.973 46.3783 612.512 47.8385 615.788 49.7817C619.061 51.7111 621.917 54.2744 624.186 57.3212C626.526 60.5031 628.141 64.1585 628.917 68.0307C629.789 72.5835 629.59 77.2765 628.334 81.7389C627.683 84.5307 626.62 87.2102 625.181 89.6897C623.902 91.825 622.294 93.745 620.416 95.3786C618.555 96.9753 616.499 98.3285 614.296 99.4054C611.907 100.557 609.438 101.536 606.909 102.335C604.664 103.021 602.452 103.638 600.241 104.22C598.109 104.771 596.032 105.516 594.037 106.448C592.128 107.313 590.388 108.508 588.894 109.978C587.361 111.594 586.294 113.595 585.809 115.77L569.989 111.811ZM561.744 145.791L566.801 125.708L582.964 129.769L577.908 149.852L561.744 145.791Z" fill="#EBEBEB"/>
<path d="M60.0122 484.246C60.7479 487.492 60.841 490.851 60.2865 494.133C59.4683 497.624 57.5153 500.746 54.733 503.009C53.7732 503.883 52.5905 504.911 51.185 506.076C49.7298 507.276 48.3821 508.601 47.157 510.035C45.894 511.479 44.8803 513.124 44.1574 514.901C43.432 516.707 43.2765 518.692 43.7118 520.59C43.9786 521.985 44.5653 523.298 45.4258 524.428C46.2126 525.429 47.1917 526.262 48.3054 526.879C49.4504 527.478 50.7029 527.845 51.9906 527.958C53.3187 528.096 54.6603 528.027 55.9671 527.752C57.4558 527.464 58.8719 526.882 60.1322 526.039C61.285 525.255 62.3233 524.315 63.2175 523.246C64.0883 522.192 64.8359 521.042 65.4457 519.819C66.0152 518.709 66.5132 517.565 66.9369 516.392L77.7354 520.915C77.2851 523.29 76.4391 525.572 75.2329 527.667C74.0604 529.714 72.5805 531.569 70.8449 533.167C69.0904 534.796 67.1104 536.164 64.9658 537.228C62.7622 538.335 60.4225 539.148 58.0068 539.644C55.2588 540.223 52.4415 540.402 49.6423 540.175C46.8493 539.954 44.1283 539.179 41.6378 537.896C39.0539 536.535 36.7965 534.629 35.0216 532.31C32.9814 529.572 31.6027 526.4 30.9936 523.04C30.5175 520.98 30.3557 518.86 30.5137 516.752C30.6661 514.922 31.1117 513.128 31.8335 511.44C32.5421 509.776 33.4702 508.214 34.5931 506.796C35.7971 505.249 37.1149 503.794 38.5354 502.444C39.8038 501.278 41.0722 500.147 42.3577 499.017C43.6004 497.979 44.7476 496.832 45.7858 495.59C46.7114 494.391 47.4192 493.04 47.8769 491.597C48.3772 490.027 48.4365 488.349 48.0483 486.748L60.0122 484.246ZM54.4931 459.04L57.6297 473.999L45.6315 476.518L42.4948 461.576L54.4931 459.04Z" fill="#EBEBEB"/>
<path d="M599.797 331.348C601.815 333.996 603.299 337.01 604.168 340.224C604.858 343.753 604.358 347.411 602.745 350.625C602.248 351.825 601.596 353.247 600.808 354.892C599.976 356.586 599.299 358.353 598.785 360.169C598.237 362.008 598 363.925 598.083 365.841C598.181 367.784 598.862 369.653 600.037 371.205C600.856 372.36 601.936 373.305 603.191 373.963C604.325 374.55 605.567 374.9 606.841 374.991C608.133 375.074 609.427 374.894 610.647 374.46C611.904 374.023 613.089 373.399 614.16 372.61C615.397 371.734 616.441 370.614 617.228 369.32C617.98 368.128 618.557 366.836 618.943 365.481C619.288 364.165 619.489 362.815 619.542 361.455C619.613 360.216 619.613 358.975 619.542 357.736L631.232 357.359C631.821 359.698 632.007 362.12 631.781 364.522C631.557 366.88 630.98 369.19 630.067 371.376C629.138 373.583 627.903 375.648 626.399 377.51C624.86 379.449 623.074 381.177 621.085 382.651C618.822 384.322 616.327 385.655 613.68 386.609C611.048 387.566 608.251 387.991 605.453 387.86C602.542 387.695 599.701 386.907 597.123 385.547C594.128 383.898 591.554 381.582 589.598 378.778C588.31 377.103 587.281 375.243 586.547 373.261C585.921 371.534 585.579 369.717 585.536 367.88C585.485 366.07 585.676 364.26 586.102 362.5C586.568 360.597 587.169 358.731 587.901 356.914C588.57 355.32 589.238 353.761 589.958 352.236C590.674 350.769 591.247 349.237 591.672 347.661C592.059 346.18 592.187 344.644 592.049 343.12C591.847 341.487 591.201 339.94 590.181 338.648L599.797 331.348ZM584.37 310.786L593.438 323.072L583.548 330.371L574.48 318.085L584.37 310.786Z" fill="#EBEBEB"/>
<path d="M656.084 300.436C656.025 296.773 656.689 293.133 658.038 289.727C659.713 286.15 662.537 283.236 666.06 281.45C667.277 280.713 668.785 279.891 670.568 278.948C672.375 277.986 674.096 276.868 675.71 275.607C677.399 274.345 678.86 272.804 680.029 271.049C681.203 269.26 681.801 267.156 681.743 265.018C681.773 263.54 681.471 262.074 680.86 260.728C680.249 259.382 679.344 258.189 678.212 257.238C677.127 256.325 675.868 255.643 674.51 255.233C673.113 254.792 671.656 254.566 670.191 254.565C668.524 254.546 666.87 254.854 665.323 255.473C663.907 256.066 662.575 256.844 661.363 257.786C660.186 258.715 659.122 259.779 658.192 260.956C657.337 262.022 656.548 263.138 655.827 264.298L645.234 256.998C646.251 254.547 647.67 252.282 649.434 250.298C651.167 248.372 653.177 246.715 655.399 245.381C657.662 244.032 660.102 243.005 662.649 242.33C665.267 241.641 667.963 241.296 670.671 241.302C673.765 241.303 676.842 241.754 679.806 242.639C682.761 243.508 685.512 244.958 687.897 246.906C690.359 248.948 692.352 251.496 693.742 254.377C695.363 257.784 696.178 261.519 696.124 265.292C696.156 267.608 695.85 269.917 695.216 272.146C694.626 274.075 693.741 275.901 692.593 277.561C691.455 279.187 690.106 280.657 688.582 281.93C686.927 283.311 685.174 284.571 683.337 285.7C681.726 286.676 680.098 287.619 678.469 288.51C676.902 289.367 675.417 290.365 674.03 291.491C672.725 292.545 671.617 293.822 670.756 295.261C669.865 296.825 669.42 298.603 669.471 300.402L656.084 300.436ZM656.324 328.778V311.985H669.831V328.778H656.324Z" fill="#EBEBEB"/>
<path d="M233.54 397.781C232.725 394.21 232.62 390.513 233.231 386.9C234.129 383.056 236.29 379.624 239.367 377.15C240.413 376.174 241.698 375.06 243.258 373.723C244.845 372.392 246.324 370.937 247.68 369.371C249.055 367.773 250.161 365.961 250.954 364.008C251.751 362.021 251.918 359.838 251.434 357.753C251.142 356.221 250.497 354.777 249.549 353.538C248.669 352.476 247.585 351.602 246.361 350.968C245.107 350.298 243.731 349.89 242.315 349.768C240.86 349.633 239.393 349.714 237.962 350.008C236.327 350.338 234.772 350.984 233.385 351.91C232.11 352.78 230.957 353.818 229.957 354.995C229.007 356.15 228.19 357.408 227.523 358.747C226.875 359.967 226.302 361.226 225.809 362.517L214.137 357.513C214.625 354.906 215.546 352.398 216.862 350.094C218.148 347.843 219.773 345.803 221.678 344.045C223.602 342.249 225.772 340.738 228.123 339.556C230.548 338.345 233.117 337.447 235.768 336.883C238.793 336.251 241.892 336.055 244.972 336.3C248.039 336.539 251.027 337.384 253.765 338.785C256.606 340.268 259.087 342.356 261.033 344.902C264.602 349.878 266.367 355.923 266.038 362.037C265.865 364.042 265.379 366.008 264.598 367.863C263.822 369.702 262.808 371.43 261.581 373.004C260.246 374.694 258.797 376.291 257.245 377.784C255.856 379.07 254.468 380.32 253.062 381.52C251.706 382.686 250.455 383.971 249.326 385.358C248.274 386.667 247.451 388.144 246.892 389.728C246.357 391.456 246.298 393.297 246.721 395.057L233.54 397.781ZM239.659 425.455L236.231 409.039L249.446 406.229L252.874 422.662L239.659 425.455Z" fill="#EBEBEB"/>
<path d="M645.715 530.7L668.614 530.22L679.893 530.031C683.646 529.946 687.366 530.031 691.102 529.928L690.348 530.7L690.245 511.525L691.102 512.382L668.357 512.279C660.798 512.279 653.239 512.074 645.663 511.988L646.143 511.525C646.143 514.661 645.989 517.814 645.903 521.018L645.715 530.7ZM645.715 530.7L645.475 521.207C645.475 518.019 645.286 514.781 645.252 511.525V511.063H645.715C653.291 510.977 660.85 510.788 668.409 510.771L691.102 510.668H691.959V511.525V530.7V531.471H691.188C687.366 531.471 683.526 531.471 679.721 531.368L668.306 531.179L645.715 530.7Z" fill="#EBEBEB"/>
<path d="M671.031 554.877L693.931 554.398L705.209 554.209C708.963 554.123 712.682 554.209 716.419 554.106L715.665 554.877L715.579 535.703L716.419 536.56L693.725 536.457C686.166 536.457 678.607 536.251 671.031 536.166L671.511 535.703C671.511 538.839 671.357 541.992 671.288 545.196L671.031 554.877ZM671.031 554.877L670.791 545.384C670.791 542.197 670.603 538.959 670.568 535.703V535.24H671.031C678.607 535.155 686.166 534.966 693.725 534.949L716.419 534.846H717.293V535.703L717.19 554.877V555.648H716.35C712.528 555.648 708.706 555.648 704.883 555.546L693.468 555.357L671.031 554.877Z" fill="#EBEBEB"/>
<path d="M620.363 554.877L643.263 554.398L654.541 554.209C658.278 554.123 662.014 554.209 665.751 554.106L664.997 554.877L664.928 535.703L665.785 536.56L643.091 536.457C635.532 536.457 627.956 536.251 620.397 536.166L620.86 535.703C620.86 538.839 620.723 541.992 620.637 545.196L620.363 554.877ZM620.363 554.877L620.123 545.384C620.037 542.197 619.935 538.959 619.9 535.703V535.24H620.363C627.922 535.155 635.498 534.966 643.057 534.949L665.751 534.846H666.608V535.703L666.642 554.877V555.648H665.888C662.066 555.648 658.226 555.648 654.421 555.546L643.006 555.357L620.363 554.877Z" fill="#EBEBEB"/>
<path d="M35.4155 554.877L58.2978 554.398L69.5762 554.209C73.3299 554.123 77.0665 554.209 80.8031 554.106L80.0318 554.877L79.9461 535.703L80.8031 536.56L58.1607 536.457C50.5847 536.457 43.0258 536.251 35.4669 536.166L35.9297 535.703C35.9297 538.839 35.7754 541.992 35.7069 545.196L35.4155 554.877ZM35.4155 554.877L35.1584 545.384C35.1584 542.197 34.9698 538.959 34.9355 535.703V535.24H35.4155C42.9744 535.155 50.5333 534.966 58.1093 534.949L80.8031 534.846H81.6601V535.703L81.5573 554.877V555.648H80.8031C76.9808 555.648 73.1414 555.648 69.3191 555.546L57.9036 555.357L35.4155 554.877Z" fill="#EBEBEB"/>
<path d="M35.4155 21.577L58.2978 21.0972L69.5762 20.8916C73.3299 20.8916 77.0665 20.8916 80.8031 20.8916L80.0318 21.6626L79.9461 2.48829L80.8031 3.32792L58.1607 3.1223C50.5847 3.1223 43.0258 2.93381 35.4669 2.84813L35.9297 2.38548C35.9297 5.52123 35.7754 8.67412 35.7069 11.8613L35.4155 21.577ZM35.4155 21.577L35.1584 12.084C35.1584 8.87974 34.9698 5.64118 34.9355 2.40262V1.93997H35.4155C42.9744 1.93997 50.5333 1.6658 58.1093 1.6658L80.8031 1.56299H81.6601V2.43688L81.5573 21.6112V22.3652H80.8031C76.9808 22.3652 73.1414 22.3652 69.3191 22.2795L57.9036 21.9711L35.4155 21.577Z" fill="#EBEBEB"/>
<path d="M10.1674 45.7547L33.0498 45.2749L44.3281 45.0693C48.0819 45.0693 51.8013 45.0693 55.5551 45.0693L54.7837 45.8404V26.666L55.6408 27.5057L32.7927 27.3172C25.2167 27.3172 17.6578 27.1115 10.1674 27.1115L10.6302 26.6489C10.6302 29.7846 10.476 32.9375 10.4074 36.1247L10.1674 45.7547ZM10.1674 45.7547L9.91032 36.2618C9.91032 33.0575 9.72178 29.8189 9.6875 26.5803V26.1177H10.1674C17.7263 26.1177 25.2852 25.8435 32.8612 25.8435L55.5551 25.7407H56.4121V26.6146L56.3092 45.789V46.5429H55.5551C51.7156 46.5429 47.8933 46.5429 44.071 46.5429L32.6556 46.3373L10.1674 45.7547Z" fill="#EBEBEB"/>
<path d="M671.031 21.5941L693.931 21.1143L705.209 20.9258C708.963 20.9258 712.682 20.9258 716.419 20.823L715.665 21.5941L715.579 2.41975L716.419 3.27651L693.725 3.1223C686.166 3.1223 678.607 2.93381 671.031 2.84813L671.511 2.38548C671.511 5.52123 671.357 8.67412 671.288 11.8613L671.031 21.5941ZM671.031 21.5941L670.791 12.1012C670.791 8.89688 670.603 5.67545 670.568 2.41975V1.9571H671.031C678.607 1.87142 686.166 1.70007 693.725 1.68293L716.35 1.56299H717.224V2.41975L717.139 21.5941V22.3652H716.35C712.528 22.3652 708.706 22.3652 704.883 22.3652L693.468 22.1767L671.031 21.5941Z" fill="#EBEBEB"/>
<path d="M425.325 270.141L402.442 270.621L391.164 270.809C387.41 270.895 383.674 270.809 379.937 270.912L380.708 270.141L380.794 289.315L379.937 288.458L402.631 288.578C410.207 288.578 417.766 288.767 425.325 288.853L424.862 289.315C424.862 286.179 425.016 283.027 425.085 279.839L425.325 270.141ZM425.325 270.141L425.582 279.634C425.582 282.838 425.77 286.059 425.805 289.315V289.778H425.325C417.766 289.778 410.207 290.035 402.631 290.052L379.937 290.155H379.08V289.281L379.183 270.107V269.335H379.937C383.759 269.335 387.599 269.335 391.421 269.421L402.837 269.61L425.325 270.141Z" fill="#EBEBEB"/>
<path d="M400.008 245.963L377.126 246.443L365.847 246.631C362.093 246.631 358.357 246.631 354.62 246.734L355.392 245.963L355.477 265.137L354.62 264.281L377.314 264.401C384.873 264.401 392.449 264.589 400.008 264.675L399.545 265.137C399.545 262.002 399.682 258.849 399.768 255.662L400.008 245.963ZM400.008 245.963L400.248 255.456C400.334 258.66 400.454 261.882 400.471 265.137V265.6H399.991C392.432 265.686 384.856 265.857 377.297 265.874L354.603 265.977H353.746V265.12L353.849 245.946V245.175H354.689C358.511 245.175 362.351 245.175 366.173 245.26L377.588 245.449L400.008 245.963Z" fill="#EBEBEB"/>
<path d="M0.517578 641.445L91.2071 641.034L181.897 640.88L363.259 640.588L544.621 640.88L635.31 641.034L726 641.445L635.31 641.874L544.621 642.028L363.259 642.302L181.897 642.028L91.2071 641.874L0.517578 641.445Z" fill="#263238"/>
<path d="M363.259 730C534.023 730 672.454 716.528 672.454 699.91C672.454 683.292 534.023 669.821 363.259 669.821C192.496 669.821 54.0645 683.292 54.0645 699.91C54.0645 716.528 192.496 730 363.259 730Z" fill="#EBEBEB"/>
<path d="M666.644 452.906C660.131 446.531 651.715 438.82 641.756 441.579C632.398 444.167 628.815 454.379 627.136 462.895C624.976 473.879 623.296 484.949 621.548 496.001C619.8 507.053 618.12 518.277 616.526 529.5C615.612 535.806 614.72 542.117 613.852 548.435C613.406 551.588 612.966 554.74 612.532 557.893C612.104 560.995 611.589 564.096 611.418 567.215C611.418 568.209 612.926 568.346 613.132 567.403C614.349 562.143 614.846 556.66 615.617 551.33C616.389 546.001 617.177 540.57 617.948 535.206C619.508 524.531 621.137 513.873 622.731 503.198C624.325 492.522 626.004 481.881 627.718 471.223C629.158 462.176 629.844 450.952 637.848 444.989C640.024 443.503 642.542 442.595 645.166 442.349C647.789 442.104 650.432 442.528 652.846 443.584C658.108 445.606 662.325 449.376 666.456 453.111C666.644 453.231 666.816 453.043 666.644 452.906Z" fill="#263238"/>
<path d="M657.782 446.394C657.782 446.394 644.464 441.614 637.899 451.312C631.335 461.011 639.185 485.72 699.776 499.651C698.003 480.718 693.079 462.214 685.207 444.904C672.214 416.579 649.058 427.306 657.782 446.394Z" fill="#7963CD"/>
<path d="M696.297 495.607C695.382 493.912 694.363 492.275 693.246 490.706C692.234 489.147 691.206 487.588 690.177 486.045C689.406 484.88 688.601 483.715 687.812 482.618C687.812 482.344 687.812 482.053 687.915 481.762L688.121 480.185C688.275 479.054 688.446 477.906 688.601 476.758C688.755 475.61 688.96 474.513 689.183 473.331C689.322 472.119 689.586 470.924 689.972 469.767C689.972 469.578 689.732 469.493 689.715 469.767C689.584 470.454 689.401 471.13 689.166 471.789L688.755 473.314C688.463 474.462 688.189 475.61 687.932 476.741C687.675 477.872 687.486 478.883 687.298 479.945C687.212 480.476 687.144 480.99 687.075 481.505C685.995 479.962 684.881 478.437 683.75 476.947C680.527 472.714 677.134 468.636 673.603 464.643C673.603 464.643 673.603 464.643 673.603 464.541C673.928 458.183 673.774 451.878 675.18 445.692C675.18 445.52 674.974 445.418 674.923 445.589C673.325 451.491 672.563 457.588 672.66 463.701C671.409 462.296 670.123 460.891 668.838 459.503C665.872 456.333 662.873 453.197 659.805 450.147C659.685 450.027 659.479 450.147 659.599 450.335C664.741 455.836 669.558 461.559 674.288 467.385C670.587 467.325 666.885 467.462 663.199 467.796C659.102 468.088 655.023 468.619 650.943 469.184C650.755 469.184 650.806 469.476 650.943 469.458C654.999 468.861 659.085 468.495 663.181 468.362C667.141 468.19 671.066 468.362 675.025 468.362C677.585 471.515 680.105 474.702 682.584 477.923H682.07C681.144 477.923 680.219 477.923 679.293 477.923C677.442 477.923 675.608 478.095 673.774 478.249C670.008 478.561 666.268 479.134 662.581 479.962C662.545 479.962 662.51 479.977 662.485 480.003C662.459 480.028 662.444 480.063 662.444 480.099C662.444 480.136 662.459 480.171 662.485 480.196C662.51 480.222 662.545 480.237 662.581 480.237C666.301 479.808 670.038 479.465 673.774 479.328C675.488 479.328 677.356 479.328 679.139 479.328H682.07C682.582 479.398 683.104 479.351 683.596 479.191C685.218 481.305 686.841 483.424 688.463 485.548C689.749 487.262 691.017 488.976 692.269 490.689C693.52 492.403 694.702 494.373 696.108 496.018C696.177 495.898 696.365 495.744 696.297 495.607Z" fill="#263238"/>
<path d="M663.575 460.154C661.427 459.88 659.26 459.777 657.096 459.845C654.936 459.845 652.76 459.845 650.6 459.983C650.411 459.983 650.428 460.257 650.6 460.257C652.794 460.086 654.988 460.051 657.182 460.086C659.376 460.12 661.433 460.326 663.541 460.257C663.644 460.257 663.644 460.171 663.575 460.154Z" fill="#263238"/>
<path d="M682.601 465.037C682.841 462.964 683.098 460.891 683.544 458.851C683.544 458.815 683.529 458.78 683.504 458.755C683.478 458.729 683.443 458.714 683.407 458.714C683.37 458.714 683.335 458.729 683.31 458.755C683.284 458.78 683.27 458.815 683.27 458.851C682.961 460.891 682.567 462.912 682.275 464.952C682.121 465.963 681.984 466.991 681.847 468.002C681.673 468.957 681.593 469.927 681.607 470.897C681.619 470.936 681.643 470.969 681.675 470.993C681.708 471.017 681.747 471.03 681.787 471.03C681.827 471.03 681.866 471.017 681.899 470.993C681.931 470.969 681.955 470.936 681.967 470.897C682.147 469.942 682.25 468.974 682.275 468.002C682.361 467.008 682.481 466.014 682.601 465.037Z" fill="#263238"/>
<path d="M678.642 442.111C678.111 444.132 677.579 446.172 677.219 448.211C677.031 449.256 676.859 450.301 676.722 451.346C676.534 452.357 676.465 453.387 676.517 454.414C676.517 454.436 676.526 454.458 676.542 454.474C676.558 454.49 676.58 454.499 676.602 454.499C676.625 454.499 676.647 454.49 676.663 454.474C676.679 454.458 676.688 454.436 676.688 454.414C676.928 453.458 677.083 452.483 677.151 451.501C677.288 450.49 677.442 449.496 677.614 448.485C677.991 446.377 678.368 444.287 678.899 442.213C678.916 442.042 678.642 441.939 678.642 442.111Z" fill="#263238"/>
<path d="M599.797 564.97C599.454 561.166 599.077 557.345 598.683 553.541C597.872 546.001 596.963 538.468 595.958 530.939C594.946 523.451 593.986 515.929 592.769 508.458C592.332 504.964 591.557 501.521 590.455 498.177C590.064 496.75 589.35 495.432 588.37 494.324C587.389 493.217 586.168 492.348 584.799 491.785C577.669 489.335 572.801 496.72 569.99 501.947C569.904 502.101 570.127 502.221 570.23 502.084C571.944 499.599 576.709 492.659 582.125 492.985C585.759 493.191 588.673 495.778 590.421 504.842C594.775 527.444 598.7 573.384 599.163 576.314C599.403 577.907 600.517 577.839 600.534 576.125C600.465 572.458 600.037 568.706 599.797 564.97Z" fill="#263238"/>
<path d="M571.822 499.222C571.822 499.222 578.061 477.221 564.28 488.221C541.347 506.539 540.541 546.31 540.541 546.31C540.541 546.31 581.301 522.646 586.357 507.036C593.916 483.835 571.822 499.222 571.822 499.222Z" fill="#7963CD"/>
<path d="M579.537 510.017C576.349 510.668 573.092 511.097 569.87 511.559L565.276 512.211C564.247 512.348 563.202 512.451 562.156 512.57C565.19 508.389 568.258 504.226 571.172 499.959C571.199 499.923 571.211 499.877 571.205 499.832C571.198 499.787 571.174 499.746 571.138 499.719C571.102 499.692 571.056 499.68 571.011 499.686C570.966 499.693 570.925 499.717 570.898 499.753C568.468 502.245 566.179 504.871 564.042 507.618L562.225 502.478C561.539 500.507 560.785 498.554 560.288 496.515C560.288 496.343 559.98 496.515 560.031 496.6C560.579 498.605 560.974 500.679 561.522 502.701C562.071 504.722 562.636 506.573 563.322 508.475C561.831 510.411 560.391 512.399 559.003 514.404C558.3 512.416 557.426 510.497 556.826 508.475C556.826 508.304 556.5 508.389 556.551 508.475C557.288 510.72 557.683 513.033 558.368 515.329C557.426 516.7 556.5 518.071 555.609 519.442C553.895 521.995 552.404 524.582 550.895 527.187C550.777 527.237 550.678 527.325 550.613 527.436C550.549 527.547 550.521 527.676 550.535 527.804C547.964 532.259 545.513 536.765 543.096 541.323C543.078 541.355 543.073 541.393 543.083 541.428C543.093 541.464 543.116 541.494 543.148 541.512C543.18 541.53 543.217 541.535 543.253 541.525C543.288 541.516 543.318 541.492 543.336 541.461C545.753 536.954 548.478 532.567 551.238 528.266C551.671 528.124 552.12 528.037 552.575 528.009L553.98 527.701C555.026 527.478 556.072 527.204 557.117 526.947C559.191 526.433 561.231 525.936 563.339 525.576C563.51 525.576 563.425 525.285 563.339 525.319C560.871 525.782 558.403 526.073 555.9 526.347C554.717 526.484 553.552 526.639 552.386 526.827H552.215C553.666 524.611 555.152 522.406 556.671 520.213C558.146 518.071 559.671 515.946 561.197 513.821C562.619 513.633 564.008 513.256 565.413 512.999L570.144 512.074C573.298 511.44 576.451 510.737 579.622 510.223C579.794 510.326 579.708 509.983 579.537 510.017Z" fill="#263238"/>
<path d="M555.042 512.193C554.854 511.611 554.682 511.028 554.494 510.48C554.111 509.264 553.796 508.029 553.551 506.779C553.551 506.607 553.26 506.693 553.294 506.779C553.568 508.029 553.859 509.263 554.134 510.497C554.383 511.742 554.739 512.963 555.196 514.147C555.225 514.197 555.269 514.235 555.323 514.257C555.376 514.279 555.435 514.282 555.49 514.266C555.545 514.25 555.594 514.216 555.627 514.17C555.661 514.124 555.678 514.067 555.676 514.01C555.488 513.427 555.231 512.81 555.042 512.193Z" fill="#263238"/>
<path d="M583.701 504.928C581.85 505.202 579.982 505.34 578.097 505.511C576.211 505.683 574.377 505.923 572.509 506.214C572.406 506.214 572.406 506.386 572.509 506.369C574.377 506.248 576.245 506.094 578.114 505.854C579.982 505.614 581.833 505.34 583.719 505.202C583.89 505.185 583.873 504.911 583.701 504.928Z" fill="#263238"/>
<path d="M629.707 537.126C628.97 520.933 627.993 504.757 626.279 488.633C625.473 480.596 624.565 472.577 623.433 464.643C622.434 456.782 620.882 449 618.788 441.357C617.353 435.414 614.716 429.827 611.041 424.941C609.225 422.564 606.835 420.688 604.094 419.489C601.354 418.29 598.353 417.807 595.375 418.087C588.296 418.961 582.571 423.433 577.634 428.282C572.098 433.731 567.024 439.677 561.899 445.418C560.597 446.891 559.311 448.382 558.026 449.873C557.923 450.01 558.111 450.198 558.231 450.061C563.254 444.304 568.516 438.701 573.915 433.354C578.954 428.402 584.199 423.073 591.055 420.949C594.301 419.92 597.773 419.837 601.065 420.709C603.687 421.536 606.05 423.03 607.921 425.044C611.864 429.122 614.057 434.657 615.634 440.02C619.988 454.911 621.548 470.521 623.159 485.891C624.77 501.261 625.919 517.163 626.707 532.859C627.496 548.555 628.113 564.405 629.638 580.135C629.827 582.071 630.067 584.008 630.324 585.944C630.478 587.229 632.5 587.246 632.398 585.944C631.181 569.665 630.427 553.404 629.707 537.126Z" fill="#263238"/>
<path d="M576.777 429.996C576.777 429.996 586.032 412.86 575.063 407.377C564.093 401.894 527.55 442.71 516.871 502.409C516.871 502.409 575.954 476.278 596.025 450.232C616.097 424.187 593.368 418.464 576.777 429.996Z" fill="#7963CD"/>
<path d="M585.467 443.909C578.834 443.909 572.201 443.412 565.567 443.447L569.304 439.18C571.149 437.285 572.867 435.27 574.446 433.148C574.532 433.011 574.343 432.823 574.206 432.926C572.402 434.47 570.722 436.154 569.184 437.963C567.47 439.677 565.859 441.493 564.213 443.275C561.676 446.034 559.191 448.81 556.706 451.62C556.706 451.346 556.706 451.072 556.706 450.815C556.706 449.65 556.706 448.484 556.706 447.388C556.706 445.143 556.706 442.881 556.706 440.637C556.706 436.079 556.706 431.486 557.049 426.928C557.049 426.757 556.791 426.757 556.774 426.928C556.466 431.521 555.986 436.079 555.763 440.637C555.66 442.898 555.609 445.143 555.575 447.405C555.575 448.553 555.575 449.718 555.575 450.832C555.575 451.466 555.575 452.134 555.575 452.785C555.197 453.231 554.786 453.659 554.409 454.088C549.113 460.154 544.125 466.408 539.154 472.782C539.154 472.44 539.154 472.063 539.068 471.72C539.068 471.017 538.914 470.315 538.846 469.612C538.674 468.087 538.468 466.579 538.228 465.054C537.988 463.529 537.8 462.21 537.56 460.788C537.32 459.365 536.892 457.583 536.772 455.973C536.779 455.952 536.782 455.93 536.779 455.908C536.776 455.886 536.768 455.865 536.756 455.847C536.743 455.828 536.726 455.814 536.707 455.803C536.687 455.793 536.665 455.788 536.643 455.788C536.621 455.788 536.599 455.793 536.579 455.803C536.56 455.814 536.543 455.828 536.53 455.847C536.518 455.865 536.51 455.886 536.507 455.908C536.504 455.93 536.507 455.952 536.514 455.973C536.783 457.584 536.966 459.208 537.063 460.839L537.474 465.226C537.594 466.682 537.731 468.139 537.886 469.612L538.091 471.72C538.091 472.063 538.177 472.422 538.228 472.765C538.245 473.064 538.339 473.354 538.503 473.605L535.983 476.895C532.555 481.333 529.333 485.822 526.042 490.295C525.939 490.432 526.145 490.62 526.247 490.483C529.367 486.422 532.572 482.429 535.812 478.488C538.246 478.591 540.731 478.403 543.165 478.368C545.599 478.334 548.307 478.368 550.844 478.368C550.88 478.368 550.915 478.354 550.941 478.328C550.966 478.303 550.981 478.268 550.981 478.231C550.981 478.195 550.966 478.16 550.941 478.134C550.915 478.109 550.88 478.094 550.844 478.094C548.273 478.094 545.702 478.18 543.148 478.197C540.594 478.214 538.434 478.094 536.103 478.197C538.948 474.77 541.845 471.343 544.673 467.83L548.033 464.06C549.016 464.189 550.009 464.223 550.998 464.163H554.426C556.603 464.163 558.78 464.163 560.974 464.078C565.482 464.078 569.99 463.855 574.497 463.838C574.518 463.845 574.54 463.848 574.562 463.845C574.584 463.842 574.605 463.834 574.623 463.822C574.642 463.809 574.656 463.792 574.667 463.773C574.677 463.753 574.682 463.731 574.682 463.709C574.682 463.687 574.677 463.665 574.667 463.646C574.656 463.626 574.642 463.609 574.623 463.597C574.605 463.584 574.584 463.576 574.562 463.573C574.54 463.57 574.518 463.573 574.497 463.581C569.972 463.581 565.464 463.324 560.957 463.204C558.763 463.204 556.586 463.084 554.392 463.049H550.964C550.312 463.049 549.627 463.049 548.941 463.049L556.397 454.225C556.455 454.186 556.503 454.133 556.534 454.071C558.951 451.209 561.368 448.365 563.819 445.503C564.162 445.126 564.505 444.749 564.83 444.355C571.686 444.561 578.543 444.115 585.399 444.252C585.656 444.184 585.656 443.909 585.467 443.909Z" fill="#263238"/>
<path d="M582.074 455.647H580.462C580.43 455.647 580.399 455.66 580.377 455.682C580.354 455.705 580.342 455.735 580.342 455.767C580.342 455.799 580.354 455.83 580.377 455.852C580.399 455.875 580.43 455.887 580.462 455.887H582.057C582.079 455.877 582.098 455.861 582.112 455.841C582.127 455.82 582.135 455.797 582.137 455.772C582.138 455.748 582.133 455.723 582.122 455.701C582.111 455.679 582.095 455.66 582.074 455.647Z" fill="#263238"/>
<path d="M578.49 455.665C576.365 455.665 574.24 455.665 572.114 455.527L568.943 455.493C567.958 455.373 566.963 455.373 565.978 455.493C565.951 455.493 565.924 455.504 565.905 455.523C565.886 455.543 565.875 455.569 565.875 455.596C565.875 455.623 565.886 455.65 565.905 455.669C565.924 455.688 565.951 455.699 565.978 455.699C566.959 455.897 567.961 455.966 568.96 455.905H572.148H578.525C578.679 455.939 578.679 455.665 578.49 455.665Z" fill="#263238"/>
<path d="M559.928 475.611C555.605 474.883 551.233 474.487 546.85 474.427V474.513C551.203 474.925 555.54 475.165 559.859 475.868C560.031 475.902 560.099 475.628 559.928 475.611Z" fill="#263238"/>
<path d="M542.153 456.59C542.153 456.213 542.068 455.836 542.016 455.459C541.913 454.602 541.776 453.745 541.639 452.906C541.382 451.278 541.107 449.667 540.799 448.039C540.799 447.902 540.507 447.936 540.524 448.039C540.73 449.753 540.919 451.381 541.073 453.06L541.279 455.527C541.256 456.317 541.366 457.105 541.605 457.858C541.639 457.909 541.687 457.95 541.743 457.975C541.8 458 541.862 458.008 541.923 457.999C541.984 457.991 542.042 457.964 542.089 457.924C542.135 457.884 542.17 457.831 542.188 457.772C542.247 457.379 542.236 456.979 542.153 456.59Z" fill="#263238"/>
<path d="M629.123 408.011C626.998 404.07 624.307 398.878 619.027 399.204C614.674 399.478 612.703 403.916 611.777 407.6C608.898 418.96 608.692 430.955 608.143 442.607C606.944 467.231 605.881 491.871 605.727 516.529C605.727 523.383 605.727 530.237 605.727 537.091C605.727 544.065 605.727 551.073 606.206 558.03C606.206 558.167 606.261 558.297 606.357 558.394C606.454 558.49 606.584 558.544 606.721 558.544C606.857 558.544 606.988 558.49 607.084 558.394C607.181 558.297 607.235 558.167 607.235 558.03C607.235 552.067 607.064 546.036 607.046 540.141C607.029 534.247 607.046 528.506 607.149 522.68C607.343 510.903 607.658 499.125 608.092 487.347C608.538 475.644 609.052 463.941 609.549 452.237C609.789 446.394 610.046 440.534 610.303 434.691C610.56 428.848 610.8 423.364 611.451 417.727C611.811 414.557 612.274 411.404 612.943 408.302C613.268 405.989 614.209 403.805 615.668 401.979C616.674 400.985 618.003 400.384 619.415 400.283C620.826 400.183 622.227 400.59 623.364 401.431C625.78 403.172 627.672 405.543 628.832 408.285C628.868 408.324 628.918 408.346 628.971 408.348C629.024 408.35 629.076 408.33 629.115 408.294C629.153 408.257 629.176 408.207 629.177 408.154C629.179 408.101 629.159 408.05 629.123 408.011Z" fill="#263238"/>
<path d="M627.683 406.126C627.683 406.126 623.347 390.807 632.945 398.467C648.92 411.216 649.486 438.958 649.486 438.958C649.486 438.958 621.084 422.473 617.553 411.541C612.291 395.4 627.683 406.126 627.683 406.126Z" fill="#7963CD"/>
<path d="M643.505 427.597C643.248 427.168 642.974 426.757 642.7 426.329C642.734 425.895 642.734 425.46 642.7 425.026C642.7 424.375 642.7 423.707 642.7 423.056C642.7 421.754 642.7 420.451 642.837 419.166C642.837 419.13 642.822 419.095 642.797 419.069C642.771 419.043 642.736 419.029 642.7 419.029C642.663 419.029 642.628 419.043 642.603 419.069C642.577 419.095 642.562 419.13 642.562 419.166C642.562 420.434 642.442 421.719 642.408 422.987C642.408 423.621 642.408 424.255 642.408 424.889C642.408 425.129 642.408 425.42 642.408 425.712C641.294 423.998 640.146 422.285 638.98 420.571C638.637 420.074 638.277 419.594 637.935 419.115C637.752 417.453 637.723 415.778 637.849 414.111C637.849 412.398 637.849 410.547 637.952 408.765C637.952 408.594 637.677 408.594 637.677 408.765C637.677 410.616 637.54 412.466 637.437 414.317C637.326 415.633 637.292 416.955 637.335 418.275C634.592 414.557 631.678 410.958 628.764 407.377C628.662 407.257 628.456 407.377 628.559 407.548C630.376 409.862 632.124 412.226 633.838 414.625C630.496 413.837 627.102 413.392 623.708 412.912C623.537 412.912 623.468 413.152 623.708 413.186C627.308 413.734 630.838 414.625 634.386 415.413C635.741 417.333 637.095 419.252 638.414 421.188L640.026 423.553H639.889L638.774 423.399L636.409 423.193C634.781 423.056 633.135 422.97 631.49 422.884C631.318 422.884 631.335 423.159 631.49 423.159C633.101 423.159 634.712 423.313 636.306 423.484L638.86 423.793L639.957 423.93H640.283C641.191 425.266 642.117 426.603 643.008 427.939C644.619 430.321 646.059 432.857 647.756 435.136C647.778 435.155 647.806 435.167 647.835 435.169C647.864 435.172 647.893 435.165 647.918 435.149C647.943 435.134 647.962 435.111 647.973 435.084C647.984 435.057 647.986 435.027 647.979 434.999C646.638 432.444 645.144 429.972 643.505 427.597Z" fill="#263238"/>
<path d="M636.443 410.29C636.443 409.691 636.443 409.091 636.443 408.491C636.408 407.238 636.46 405.984 636.597 404.739C636.605 404.718 636.608 404.696 636.605 404.674C636.602 404.652 636.594 404.631 636.581 404.613C636.569 404.594 636.552 404.58 636.532 404.569C636.513 404.559 636.491 404.554 636.469 404.554C636.446 404.554 636.425 404.559 636.405 404.569C636.385 404.58 636.369 404.594 636.356 404.613C636.343 404.631 636.335 404.652 636.332 404.674C636.33 404.696 636.332 404.718 636.34 404.739C636.34 405.989 636.203 407.223 636.134 408.457C636.134 409.091 636.134 409.708 636.134 410.325V411.181C636.091 411.477 636.091 411.777 636.134 412.072C636.134 412.104 636.147 412.135 636.169 412.157C636.192 412.18 636.222 412.192 636.254 412.192C636.286 412.192 636.316 412.18 636.339 412.157C636.362 412.135 636.374 412.104 636.374 412.072C636.417 411.8 636.417 411.522 636.374 411.25L636.443 410.29Z" fill="#263238"/>
<path d="M632.929 416.631C631.866 416.443 630.786 416.391 629.723 416.305C628.661 416.219 627.392 416.099 626.295 415.945C626.259 415.945 626.224 415.959 626.198 415.985C626.173 416.011 626.158 416.046 626.158 416.082C626.158 416.119 626.173 416.153 626.198 416.179C626.224 416.205 626.259 416.219 626.295 416.219C628.541 416.357 630.769 416.769 633.014 416.837C633.031 416.854 633.049 416.648 632.929 416.631Z" fill="#263238"/>
<path d="M641.842 416.716C641.927 416.836 641.842 417.179 641.842 417.316V418.875C641.842 419.235 641.842 419.595 641.842 419.955C641.781 420.26 641.781 420.574 641.842 420.88C641.842 420.88 641.927 420.88 641.945 420.88C641.979 420.733 641.979 420.581 641.945 420.434C641.936 420.269 641.936 420.103 641.945 419.938V418.875C641.945 418.515 641.945 418.155 641.945 417.796V417.316C641.945 417.162 641.945 416.836 641.945 416.716C641.945 416.596 641.67 416.459 641.842 416.716Z" fill="#263238"/>
<path d="M629.774 489.763C623.809 485.291 618.445 478.848 610.406 478.523C603.772 478.266 599.127 483.252 596.471 488.804C595.142 491.766 594.059 494.832 593.231 497.971C592.031 502.152 590.889 506.362 589.803 510.6C587.735 518.928 585.964 527.324 584.49 535.789C583.684 540.501 582.93 545.23 582.33 549.977C581.576 554.788 581.113 559.64 580.942 564.507C580.939 564.694 581.005 564.876 581.129 565.017C581.252 565.157 581.424 565.247 581.609 565.268C581.795 565.29 581.983 565.241 582.135 565.132C582.287 565.023 582.393 564.862 582.433 564.679C583.238 560.703 583.581 556.608 584.147 552.598C584.712 548.589 585.347 544.528 586.015 540.518C587.386 532.522 588.975 524.525 590.78 516.529C592.494 509.006 594.208 501.381 596.591 494.064C598.305 488.821 601.116 482.704 606.789 480.819C615.359 477.957 623.227 485.24 629.534 489.986C629.723 490.072 629.911 489.866 629.774 489.763Z" fill="#263238"/>
<path d="M623.606 485.48C623.606 485.48 618.086 469.767 626.057 466.631C638.055 462.022 669.216 497.183 663.097 551.056C663.097 551.056 638.98 537.777 621.154 522.817C603.328 507.858 598.872 488.341 606.637 483.304C614.401 478.266 623.606 485.48 623.606 485.48Z" fill="#7963CD"/>
<path d="M659.497 539.559C658.668 537.678 657.7 535.863 656.6 534.127C655.572 532.276 654.543 530.443 653.481 528.626C651.407 525.079 649.35 521.532 647.225 518.003L646.179 516.289C646.179 516.083 646.265 515.861 646.299 515.655L646.659 514.096C646.933 512.931 647.139 511.748 647.344 510.566C647.79 508.27 648.184 505.939 648.801 503.712C648.801 503.558 648.579 503.506 648.544 503.712C648.047 506.008 647.31 508.287 646.642 510.566C646.299 511.68 645.939 512.776 645.648 513.907L645.339 515.055C642.785 510.857 640.197 506.676 637.352 502.632C637.535 502.079 637.634 501.501 637.643 500.919C637.729 500.13 637.814 499.342 637.917 498.554C638.123 496.84 638.329 495.007 638.586 493.242C639.1 489.815 639.614 486.388 640.471 482.961C640.471 482.79 640.248 482.738 640.214 482.961C639.34 486.388 638.414 489.815 637.763 493.242C637.454 494.956 637.146 496.669 636.923 498.383C636.82 499.239 636.717 500.096 636.632 500.953C636.632 501.193 636.632 501.467 636.529 501.724C635.672 500.507 634.815 499.274 633.906 498.091C631.147 494.459 628.284 490.929 625.336 487.399C625.233 487.262 624.993 487.399 625.113 487.553C630.05 493.865 634.584 500.48 638.689 507.362L641.037 511.183L640.248 511.08C639.237 510.943 638.226 510.891 637.215 510.789L631.113 510.257C627.05 509.932 622.971 509.692 618.926 509.264C618.754 509.264 618.703 509.503 618.926 509.521C623.039 510 627.119 510.651 631.215 511.234C633.238 511.525 635.243 511.8 637.266 512.057C638.796 512.361 640.351 512.516 641.911 512.519C643.505 515.124 645.116 517.66 646.71 520.299C646.35 520.299 645.973 520.299 645.63 520.299H639.82C637.197 520.299 634.575 520.299 631.97 520.299C631.781 520.299 631.815 520.556 631.97 520.556C634.626 520.556 637.266 520.727 639.923 520.864L643.694 521.087L645.579 521.224C646.143 521.355 646.729 521.355 647.293 521.224L651.372 527.838C652.624 529.877 653.892 531.899 655.178 533.921C656.389 536.065 657.759 538.115 659.274 540.056C659.343 539.816 659.566 539.73 659.497 539.559Z" fill="#263238"/>
<path d="M647.996 496.018C647.755 497.754 647.395 499.472 646.916 501.158C646.47 502.872 645.973 504.586 645.408 506.299C645.398 506.321 645.394 506.345 645.395 506.368C645.395 506.392 645.401 506.415 645.411 506.437C645.421 506.459 645.435 506.478 645.453 506.493C645.471 506.509 645.492 506.521 645.514 506.528C645.537 506.535 645.561 506.538 645.585 506.535C645.608 506.532 645.631 506.525 645.652 506.513C645.672 506.501 645.69 506.485 645.704 506.466C645.718 506.447 645.728 506.425 645.733 506.402C646.265 504.688 646.745 502.975 647.156 501.261C647.567 499.548 647.841 497.834 648.27 496.035C648.272 495.999 648.26 495.963 648.236 495.936C648.212 495.908 648.178 495.892 648.141 495.889C648.105 495.887 648.069 495.899 648.042 495.924C648.015 495.948 647.998 495.982 647.996 496.018Z" fill="#263238"/>
<path d="M630.272 506.539C629.901 506.228 629.436 506.053 628.952 506.042L626.672 505.733C625.267 505.545 623.844 505.391 622.439 505.219C619.49 504.877 616.559 504.585 613.611 504.226C613.44 504.226 613.389 504.465 613.611 504.483C616.388 504.825 619.148 505.254 621.924 505.614L625.987 506.145L627.958 506.35C628.717 506.357 629.47 506.491 630.186 506.744C630.21 506.745 630.234 506.738 630.254 506.725C630.274 506.712 630.289 506.693 630.299 506.671C630.308 506.649 630.31 506.624 630.305 506.601C630.301 506.577 630.289 506.556 630.272 506.539Z" fill="#263238"/>
<path d="M647.961 530.237C646.573 530.117 645.167 530.066 643.779 530.031H641.67H640.659C640.22 530.074 639.778 530.074 639.339 530.031C639.151 530.031 639.134 530.323 639.339 530.289C639.75 530.246 640.163 530.246 640.573 530.289H641.67L643.761 530.426C645.15 530.512 646.555 530.598 647.944 530.598C648.115 530.529 648.132 530.237 647.961 530.237Z" fill="#263238"/>
<path d="M656.463 524.205L656.926 521.841C657.2 520.282 657.491 518.722 657.783 517.18C657.783 517.144 657.768 517.109 657.742 517.083C657.717 517.057 657.682 517.043 657.645 517.043C657.609 517.043 657.574 517.057 657.548 517.083C657.523 517.109 657.508 517.144 657.508 517.18L656.48 521.721C656.309 522.475 656.137 523.229 655.983 523.983C655.983 524.343 655.846 524.685 655.76 525.045C655.652 525.406 655.611 525.783 655.64 526.159C655.643 526.193 655.657 526.226 655.679 526.253C655.702 526.279 655.731 526.299 655.765 526.308C655.798 526.317 655.834 526.316 655.866 526.305C655.899 526.293 655.928 526.273 655.949 526.245C656.248 525.604 656.422 524.912 656.463 524.205Z" fill="#263238"/>
<path d="M574.771 558.476L576.451 577.582L582.159 642.062H632.672L639.802 577.582L641.91 558.476H574.771Z" fill="#37474F"/>
<path d="M574.771 558.476L576.451 577.582H639.802L641.91 558.476H574.771Z" fill="#263238"/>
<path d="M569.767 568.774H646.916V553.284H569.767V568.774Z" fill="#37474F"/>
<path d="M301.555 495.127C301.555 467.711 306.034 443.076 314.993 421.223C323.951 399.369 342.429 380.332 370.424 364.111C378.835 359.073 389.199 353.361 401.517 346.976C414.193 340.321 426.275 332.593 437.632 323.877C449.241 315.101 459.319 304.465 467.456 292.4C475.659 280.101 479.911 265.592 479.643 250.813C479.888 240.048 477.598 229.377 472.958 219.661C468.678 210.986 462.677 203.273 455.321 196.991C447.765 190.696 439.022 185.982 429.61 183.128C419.961 180.083 409.904 178.529 399.786 178.519C388.319 178.362 376.935 180.482 366.294 184.756C356.505 188.789 347.322 194.157 339.006 200.709C330.902 207.123 323.568 214.455 317.152 222.556C311.246 229.921 305.78 237.628 300.783 245.638H288.134L227.68 195.26C234.672 178.32 244.471 162.679 256.664 148.995C268.586 135.652 282.455 124.186 297.801 114.981C313.412 105.703 330.256 98.6767 347.834 94.1106C365.928 89.3327 384.568 86.9307 403.283 86.9652C424.622 86.9772 445.846 90.0883 466.29 96.2011C486.678 102.2 505.667 112.195 522.151 125.605C539.179 139.696 552.94 157.318 562.482 177.251C572.835 198.247 578.011 223.305 578.011 252.423C578.27 268.463 576.15 284.452 571.721 299.871C567.699 313.208 561.596 325.826 553.638 337.26C545.756 348.5 536.439 358.662 525.922 367.486C514.502 376.997 502.428 385.695 489.79 393.515C478.58 400.255 467.382 406.698 456.195 412.843C445.368 418.749 435.104 425.631 425.531 433.406C416.516 440.71 408.838 449.523 402.837 459.451C396.963 469.253 394.027 481.15 394.027 495.144L301.555 495.127ZM303.269 690.794V574.909H396.512V690.794H303.269Z" fill="#7963CD"/>
<g opacity="0.2">
<path d="M301.555 495.127C301.555 467.711 306.034 443.076 314.993 421.223C323.951 399.369 342.429 380.332 370.424 364.111C378.835 359.073 389.199 353.361 401.517 346.976C414.193 340.321 426.275 332.593 437.632 323.877C449.241 315.101 459.319 304.465 467.456 292.4C475.659 280.101 479.911 265.592 479.643 250.813C479.888 240.048 477.598 229.377 472.958 219.661C468.678 210.986 462.677 203.273 455.321 196.991C447.765 190.696 439.022 185.982 429.61 183.128C419.961 180.083 409.904 178.529 399.786 178.519C388.319 178.362 376.935 180.482 366.294 184.756C356.505 188.789 347.322 194.157 339.006 200.709C330.902 207.123 323.568 214.455 317.152 222.556C311.246 229.921 305.78 237.628 300.783 245.638H288.134L227.68 195.26C234.672 178.32 244.471 162.679 256.664 148.995C268.586 135.652 282.455 124.186 297.801 114.981C313.412 105.703 330.256 98.6767 347.834 94.1106C365.928 89.3327 384.568 86.9307 403.283 86.9652C424.622 86.9772 445.846 90.0883 466.29 96.2011C486.678 102.2 505.667 112.195 522.151 125.605C539.179 139.696 552.94 157.318 562.482 177.251C572.835 198.247 578.011 223.305 578.011 252.423C578.27 268.463 576.15 284.452 571.721 299.871C567.699 313.208 561.596 325.826 553.638 337.26C545.756 348.5 536.439 358.662 525.922 367.486C514.502 376.997 502.428 385.695 489.79 393.515C478.58 400.255 467.382 406.698 456.195 412.843C445.368 418.749 435.104 425.631 425.531 433.406C416.516 440.71 408.838 449.523 402.837 459.451C396.963 469.253 394.027 481.15 394.027 495.144L301.555 495.127ZM303.269 690.794V574.909H396.512V690.794H303.269Z" fill="black"/>
</g>
<path d="M288.973 495.127C288.973 467.711 293.453 443.076 302.411 421.223C311.37 399.37 329.853 380.332 357.86 364.111C366.259 359.073 376.618 353.361 388.936 346.976C401.619 340.325 413.708 332.597 425.068 323.877C436.673 315.097 446.75 304.461 454.892 292.4C463.082 280.096 467.327 265.589 467.061 250.813C467.282 240.074 464.981 229.434 460.342 219.746C456.062 211.072 450.061 203.359 442.705 197.076C435.149 190.782 426.406 186.068 416.994 183.214C407.346 180.169 397.288 178.615 387.17 178.605C375.703 178.415 364.312 180.506 353.661 184.756C343.867 188.79 334.678 194.158 326.356 200.709C318.257 207.124 310.929 214.455 304.519 222.557C298.608 229.921 293.136 237.628 288.133 245.638L215.047 195.26C222.034 178.317 231.834 162.676 244.031 148.995C255.949 135.648 269.818 124.18 285.168 114.981C300.774 105.706 317.612 98.6797 335.184 94.1107C353.294 89.3269 371.952 86.9249 390.684 86.9653C412.023 86.9761 433.248 90.0873 453.692 96.2012C474.081 102.196 493.071 112.192 509.552 125.605C526.584 139.692 540.346 157.315 549.884 177.251C560.236 198.247 565.418 223.305 565.43 252.423C565.684 268.464 563.558 284.453 559.122 299.871C555.091 313.213 548.97 325.833 540.988 337.26C533.106 348.5 523.789 358.662 513.272 367.487C501.858 377.005 489.784 385.703 477.14 393.515C465.953 400.255 454.755 406.698 443.545 412.844C432.718 418.749 422.454 425.631 412.881 433.406C403.871 440.711 396.198 449.523 390.204 459.452C384.331 469.253 381.388 481.15 381.377 495.144L288.973 495.127ZM290.687 690.795V574.909H383.828V690.795H290.687Z" fill="#7963CD"/>
<path d="M250.544 700.065C246.893 701.23 142.8 699.894 138.875 697.323C137.366 696.364 136.681 681.199 136.372 662.83V662.265C136.372 658.478 136.252 654.571 136.235 650.63C136.235 650.081 136.235 649.533 136.235 649.002C136.098 622.511 136.509 595.009 136.509 595.009L206.15 595.711L204.042 649.122L203.957 651.247L203.528 662.316V663.447C203.528 663.447 243.105 681.85 247.133 685.106C251.161 688.362 254.195 698.9 250.544 700.065Z" fill="#AD6359"/>
<path d="M250.544 700.065C246.893 701.23 142.8 699.894 138.875 697.323C137.367 696.364 136.681 681.199 136.372 662.83V662.265C136.372 658.478 136.252 654.571 136.235 650.63C136.235 650.081 136.235 649.533 136.235 649.002L204.06 649.19L203.974 651.315L203.545 662.385V663.516C203.545 663.516 243.105 681.85 247.133 685.106C251.161 688.362 254.195 698.9 250.544 700.065Z" fill="#EBEBEB"/>
<path d="M250.544 700.065C248.299 700.785 207.968 700.545 176.395 699.654C156.684 699.123 140.4 698.3 138.875 697.323C137.35 696.347 136.698 681.628 136.39 663.601C136.39 663.344 136.39 663.087 136.39 662.83C136.39 662.573 136.39 662.436 136.39 662.248L203.563 662.385V663.516C203.563 663.516 243.191 681.85 247.202 685.123C251.213 688.396 254.195 698.9 250.544 700.065Z" fill="#7963CD"/>
<path d="M249.43 696.004C231.878 695.353 161.072 694.29 143.674 695.027C143.537 695.027 143.537 695.13 143.674 695.147C161.054 696.175 231.861 696.603 249.413 696.295C249.79 696.295 249.79 696.021 249.43 696.004Z" fill="#263238"/>
<path d="M211.002 662.659C204.146 661.288 195.661 662.23 190.314 667.079C190.108 667.268 190.314 667.559 190.605 667.491C197.233 665.454 204.059 664.127 210.968 663.532C211.07 663.517 211.163 663.466 211.232 663.389C211.301 663.312 211.341 663.213 211.345 663.11C211.349 663.006 211.317 662.905 211.254 662.823C211.192 662.74 211.103 662.682 211.002 662.659Z" fill="#263238"/>
<path d="M215.955 665.726C209.099 664.355 200.615 665.298 195.267 670.147C195.061 670.335 195.267 670.627 195.558 670.558C202.164 668.525 208.967 667.198 215.852 666.6C215.958 666.596 216.059 666.554 216.137 666.481C216.215 666.409 216.264 666.312 216.277 666.207C216.289 666.101 216.263 665.995 216.205 665.907C216.146 665.819 216.057 665.755 215.955 665.726Z" fill="#263238"/>
<path d="M220.891 668.793C214.035 667.422 205.55 668.364 200.202 673.214C199.997 673.402 200.202 673.693 200.494 673.625C207.123 671.594 213.948 670.273 220.856 669.684C220.975 669.688 221.09 669.646 221.177 669.565C221.263 669.485 221.315 669.374 221.319 669.255C221.324 669.137 221.281 669.022 221.201 668.935C221.12 668.849 221.009 668.797 220.891 668.793Z" fill="#263238"/>
<path d="M220.19 647.717C217.516 643.947 212.443 645.575 209.529 647.957C204.602 652.14 200.865 657.548 198.696 663.635C198.685 663.661 198.68 663.689 198.682 663.718C198.684 663.746 198.694 663.773 198.709 663.797C198.724 663.82 198.745 663.84 198.77 663.854C198.794 663.867 198.822 663.875 198.85 663.875C198.85 664.406 199.33 664.972 199.93 664.749C205.655 662.71 212.031 661.322 216.968 657.518C219.847 655.342 222.71 651.298 220.19 647.717ZM207.969 659.883C205.175 660.962 202.347 661.888 199.604 663.053C201.73 660.003 203.701 656.884 206.135 654.04C207.289 652.664 208.525 651.359 209.837 650.133C211.928 648.299 220.121 644.427 218.784 651.983C218.065 656.147 211.311 658.615 207.969 659.883Z" fill="#263238"/>
<path d="M181.16 661.596C186.817 664.098 193.364 664.064 199.415 664.732C200.032 664.732 200.357 664.132 200.255 663.618C200.281 663.609 200.305 663.594 200.326 663.575C200.346 663.556 200.361 663.532 200.371 663.506C200.381 663.479 200.385 663.451 200.383 663.423C200.38 663.395 200.372 663.368 200.357 663.344C196.833 657.927 191.952 653.526 186.199 650.578C182.771 648.865 177.492 648.522 175.778 652.806C174.064 657.09 177.852 660.14 181.16 661.596ZM178.109 656.627C175.093 649.584 183.954 651.486 186.388 652.789C187.96 653.66 189.467 654.645 190.896 655.736C193.832 658.009 196.647 660.434 199.329 663.001C196.381 662.487 193.416 662.247 190.45 661.836C186.919 661.373 179.858 660.517 178.144 656.627H178.109Z" fill="#263238"/>
<path d="M176.429 699.654C156.718 699.122 140.435 698.3 138.909 697.323C137.384 696.347 136.732 681.627 136.424 663.601C144.48 670.815 164.568 688.721 176.429 699.654Z" fill="#263238"/>
<path d="M115.135 295.245C115.135 295.245 130.767 471.087 133.304 484.504C133.903 487.571 134.263 504.192 134.503 525.542C135.035 572.167 134.726 656.233 134.726 656.233H208.104C208.104 656.233 205.927 510.583 202.671 483.767C199.414 456.95 178.674 295.279 178.674 295.279L115.135 295.245Z" fill="#37474F"/>
<path d="M204.78 643.451C193.33 643.211 196.621 643.125 185.171 643.005C179.566 643.005 142.749 642.645 137.504 643.502C137.472 643.502 137.441 643.515 137.419 643.537C137.396 643.56 137.384 643.59 137.384 643.622C137.384 643.654 137.396 643.684 137.419 643.707C137.441 643.73 137.472 643.742 137.504 643.742C142.749 644.6 179.566 644.291 185.171 644.222C196.621 644.119 193.33 644.034 204.78 643.794C204.825 643.794 204.869 643.776 204.901 643.743C204.933 643.711 204.951 643.668 204.951 643.622C204.951 643.577 204.933 643.533 204.901 643.501C204.869 643.469 204.825 643.451 204.78 643.451Z" fill="#263238"/>
<path d="M148.662 560.19C148.57 549.543 148.49 538.902 148.422 528.267C148.422 517.985 148.422 507.704 147.873 497.423C146.879 476.57 142.731 456.076 139.646 435.462C136.561 414.848 134.127 394.149 131.847 373.432C129.293 350.197 127.048 326.91 124.665 303.658C124.665 303.503 124.391 303.503 124.408 303.658C127.836 345.194 131.727 386.712 137.469 427.991C138.909 438.272 140.474 448.519 142.165 458.732C143.879 469.013 145.593 479.431 146.399 489.901C147.205 500.37 147.325 510.463 147.427 520.744C147.553 531.391 147.662 542.026 147.753 552.65C147.976 576.262 148.199 612.624 148.439 636.236C148.457 636.316 148.501 636.387 148.565 636.439C148.629 636.49 148.708 636.518 148.79 636.518C148.872 636.518 148.951 636.49 149.015 636.439C149.079 636.387 149.124 636.316 149.142 636.236C149.004 615.057 148.816 581.249 148.662 560.19Z" fill="#263238"/>
<path d="M99.6582 295.245C99.6582 295.245 130.768 471.087 133.305 484.504C133.905 487.571 134.265 504.192 134.505 525.542L169.574 295.245H99.6582Z" fill="#263238"/>
<path d="M165.34 706.268C161.62 707.176 57.8697 698.454 54.1331 695.627C52.6933 694.564 53.0875 679.382 54.1331 661.048C54.1331 660.859 54.1331 660.654 54.1331 660.465C54.3388 656.695 54.5616 652.806 54.8359 648.865L54.9387 647.151C56.6527 620.711 59.0352 593.312 59.0352 593.312L128.436 599.035L122.557 652.154L122.335 654.262L121.135 665.28L121.015 666.411C121.015 666.411 159.221 687.505 163.009 691.052C166.797 694.599 169.059 705.359 165.34 706.268Z" fill="#AD6359"/>
<path d="M165.34 706.268C161.62 707.176 57.8697 698.454 54.1331 695.627C52.6933 694.565 53.0875 679.383 54.1331 661.048C54.1331 660.86 54.1331 660.654 54.1331 660.465C54.3388 656.696 54.5616 652.806 54.8359 648.865L54.9387 647.151L122.557 652.138L122.335 654.245L121.135 665.263L121.015 666.394C121.015 666.394 159.221 687.488 163.009 691.035C166.797 694.582 169.059 705.36 165.34 706.268Z" fill="#EBEBEB"/>
<path d="M165.34 706.268C161.62 707.176 57.8697 698.454 54.1331 695.627C52.6933 694.565 53.0875 679.383 54.1331 661.048C54.1331 660.859 54.1331 660.654 54.1331 660.465L121.135 665.349L121.015 666.48C121.015 666.48 159.221 687.573 163.009 691.12C166.797 694.667 169.059 705.36 165.34 706.268Z" fill="#7963CD"/>
<path d="M164.431 702.138C146.982 700.236 76.415 694.239 59.0176 693.673C58.8804 693.673 58.8633 693.776 59.0176 693.793C76.2608 696.055 146.879 701.487 164.414 702.361C164.842 702.447 164.876 702.241 164.431 702.138Z" fill="#263238"/>
<path d="M128.539 666.154C121.683 664.304 113.267 664.646 107.593 669.101C107.371 669.273 107.593 669.598 107.851 669.547C114.597 667.974 121.492 667.129 128.419 667.028C128.526 667.027 128.63 666.988 128.71 666.918C128.791 666.847 128.843 666.749 128.858 666.643C128.873 666.537 128.848 666.429 128.79 666.339C128.731 666.249 128.642 666.184 128.539 666.154Z" fill="#263238"/>
<path d="M133.27 669.564C126.414 667.714 117.981 668.056 112.308 672.512C112.102 672.683 112.308 673.009 112.565 672.957C119.311 671.385 126.207 670.541 133.133 670.438C133.242 670.442 133.348 670.406 133.432 670.337C133.516 670.267 133.572 670.17 133.589 670.062C133.606 669.954 133.583 669.844 133.524 669.753C133.465 669.661 133.375 669.594 133.27 669.564Z" fill="#263238"/>
<path d="M137.984 672.974C131.128 671.123 122.695 671.466 117.021 675.921C116.815 676.093 117.021 676.418 117.295 676.367C124.041 674.792 130.937 673.948 137.864 673.848C137.971 673.847 138.074 673.808 138.155 673.737C138.236 673.667 138.288 673.569 138.303 673.463C138.317 673.357 138.293 673.249 138.235 673.159C138.176 673.069 138.087 673.003 137.984 672.974Z" fill="#263238"/>
<path d="M138.721 651.915C136.338 647.956 131.162 649.207 128.076 651.383C122.834 655.196 118.695 660.327 116.078 666.257C116.078 666.394 116.078 666.48 116.215 666.514C116.199 666.648 116.215 666.783 116.262 666.909C116.308 667.036 116.383 667.15 116.482 667.241C116.58 667.333 116.699 667.4 116.829 667.438C116.958 667.475 117.094 667.481 117.227 667.456C123.071 665.828 129.55 664.817 134.727 661.442C137.881 659.403 141.017 655.65 138.721 651.915ZM125.677 663.173C122.814 664.046 119.935 664.766 117.107 665.743C119.342 662.767 121.727 659.907 124.254 657.175C125.496 655.876 126.825 654.662 128.231 653.542C130.442 651.829 138.875 648.556 137.024 656.01C136.047 660.157 129.122 662.144 125.711 663.173H125.677Z" fill="#263238"/>
<path d="M98.8522 662.984C104.32 665.88 110.85 666.309 116.832 667.388C117.45 667.508 117.827 666.874 117.758 666.36C117.785 666.351 117.809 666.336 117.829 666.317C117.849 666.297 117.865 666.274 117.875 666.247C117.885 666.221 117.889 666.193 117.886 666.165C117.884 666.137 117.875 666.11 117.861 666.086C114.74 660.433 110.181 655.704 104.646 652.378C101.389 650.476 96.0755 649.705 94.1044 653.851C92.1332 657.998 95.6641 661.288 98.8522 662.984ZM96.1612 657.844C93.6416 650.596 102.349 653.114 104.731 654.588C106.232 655.581 107.664 656.674 109.016 657.861C111.785 660.338 114.423 662.957 116.918 665.709C114.004 664.989 111.073 664.526 108.142 663.995C104.611 663.156 97.5838 661.819 96.1612 657.809V657.844Z" fill="#263238"/>
<path d="M124.099 660.191L50.79 657.09C50.79 657.09 70.81 496.258 71.1699 486.337C72.1298 460.634 89.1844 295.125 89.1844 295.125H178.726C178.726 295.125 173.069 333.353 163.419 357.583C156.924 359.855 150.652 362.723 144.685 366.15C144.685 366.15 136.286 475.627 135.978 489.284C135.292 516.324 124.099 660.191 124.099 660.191Z" fill="#37474F"/>
<path d="M122.146 646.757C110.73 646.038 114.021 646.089 102.572 645.489C96.9839 645.198 60.2007 643.33 54.9386 643.964C54.8186 643.964 54.8186 644.17 54.9386 644.204C60.0807 645.284 96.9496 646.535 102.537 646.706C113.987 647.083 110.713 646.86 122.163 647.1C122.208 647.098 122.251 647.078 122.282 647.044C122.312 647.01 122.328 646.966 122.326 646.92C122.324 646.875 122.303 646.832 122.27 646.802C122.236 646.771 122.191 646.755 122.146 646.757Z" fill="#263238"/>
<path d="M95.7496 304.994C92.4244 346.685 89.0135 388.392 85.1912 430.082C81.3689 471.772 76.8953 513.633 71.4789 555.255C68.4451 578.473 65.017 611.219 61.4004 634.385C61.4004 634.54 61.6061 634.608 61.6404 634.385C69.0278 593.261 74.4613 542.129 79.0721 500.576C83.6828 459.023 87.4709 417.35 90.8475 375.677C92.7501 352.099 94.4641 328.504 96.281 304.926C96.2981 304.703 95.8696 304.703 95.7496 304.994Z" fill="#263238"/>
<path d="M166.608 355.972C159.014 358.752 151.679 362.192 144.686 366.253C144.626 366.28 144.581 366.33 144.558 366.391C144.536 366.452 144.538 366.519 144.566 366.578C144.593 366.637 144.642 366.683 144.704 366.706C144.765 366.728 144.832 366.726 144.891 366.698C152.279 363.528 159.803 360.495 167.002 356.914C167.127 356.862 167.226 356.762 167.278 356.637C167.329 356.511 167.329 356.371 167.277 356.246C167.224 356.121 167.124 356.022 166.999 355.97C166.874 355.919 166.733 355.919 166.608 355.972Z" fill="#263238"/>
<path d="M168.956 305.303C168.956 305.046 168.493 304.994 168.493 305.303C168.493 314.059 167.996 321.77 167.259 329.978C166.916 333.782 163.831 354.789 157.249 353.264C156.152 353.007 155.535 351.911 155.415 350.249C155.427 348.072 155.721 345.907 156.289 343.806C157.009 339.402 157.609 334.998 158.003 330.543C158.769 322.268 158.677 313.936 157.729 305.68C157.715 305.633 157.687 305.592 157.649 305.563C157.61 305.534 157.563 305.518 157.514 305.518C157.466 305.518 157.419 305.534 157.38 305.563C157.342 305.592 157.313 305.633 157.3 305.68C157.495 317.137 156.825 328.594 155.295 339.95C154.472 345.416 151.712 353.659 157.437 354.481C163.162 355.303 167.036 341.561 167.721 337.791C169.541 327.061 169.955 316.14 168.956 305.303Z" fill="#263238"/>
<path d="M157.42 353.796C156.827 355.21 156.334 356.664 155.946 358.148C155.513 359.291 155.304 360.507 155.329 361.729C155.329 361.969 155.655 361.986 155.775 361.832C156.456 360.773 156.976 359.618 157.317 358.405C157.815 357.051 158.346 355.715 158.809 354.344C158.881 354.16 158.878 353.955 158.799 353.773C158.721 353.591 158.573 353.449 158.389 353.376C158.205 353.303 157.999 353.307 157.818 353.385C157.636 353.464 157.493 353.612 157.42 353.796Z" fill="#263238"/>
<path d="M127.563 312.174C127.583 311.258 127.491 310.343 127.288 309.45C127.275 309.425 127.256 309.403 127.231 309.389C127.207 309.374 127.179 309.366 127.151 309.366C127.123 309.366 127.095 309.374 127.071 309.389C127.047 309.403 127.027 309.425 127.014 309.45C126.833 310.226 126.73 311.018 126.705 311.814C126.705 312.723 126.5 313.528 126.397 314.522C126.207 316.376 125.886 318.214 125.437 320.022C124.603 323.437 122.862 326.562 120.398 329.07C117.941 331.486 115.027 333.391 111.828 334.673C108.286 335.927 104.675 336.974 101.012 337.809C100.976 337.809 100.941 337.823 100.915 337.849C100.889 337.874 100.875 337.909 100.875 337.946C100.875 337.982 100.889 338.017 100.915 338.043C100.941 338.068 100.976 338.083 101.012 338.083C105.068 338.075 109.084 337.283 112.839 335.752C116.168 334.504 119.198 332.572 121.735 330.081C124.267 327.507 126.045 324.289 126.877 320.776C127.297 318.965 127.538 317.117 127.597 315.259C127.645 314.231 127.634 313.201 127.563 312.174Z" fill="#263238"/>
<path d="M215.201 144.625C220.72 151.291 226.719 169.3 226.496 174.218C226.274 179.136 195.952 190.308 191.667 187.635C187.382 184.962 170.516 161.144 170.362 152.319C170.208 143.494 209.476 137.737 215.201 144.625Z" fill="#AD6359"/>
<path d="M169.573 132.391C166.796 129.495 157.815 120.842 153.821 124.749C151.319 127.182 157.352 133.847 159.889 136.486C165.117 141.901 169.162 151.48 171.047 156.158C172.933 160.835 181.76 151.6 181.76 151.6C181.76 151.6 176.824 139.913 169.573 132.391Z" fill="#AD6359"/>
<path d="M176.943 161.384C176.943 161.384 180.045 169.712 185.102 169.523C190.158 169.335 188.873 162.172 188.804 161.658C188.958 162.104 192.009 169.677 197.083 168.975C202.157 168.272 199.997 161.23 199.843 160.784C200.117 161.144 204.025 165.925 207.744 164.503C214.155 162.069 204.539 149.612 205.465 144.146C205.465 144.146 214.926 144.677 215.2 144.626C215.2 144.626 206.287 132.631 198.831 131.74C197.746 131.59 196.642 131.818 195.706 132.386C194.769 132.954 194.057 133.827 193.689 134.859C193.689 134.859 191.238 130.66 187.227 131.089C185.17 131.312 183.696 134.807 183.696 134.807C183.095 133.884 182.25 133.146 181.254 132.674C180.259 132.203 179.152 132.016 178.057 132.134C175.229 132.597 173.824 136.127 173.669 137.497C172.469 147.984 176.943 161.384 176.943 161.384Z" fill="#AD6359"/>
<path d="M173.994 136.538C173.994 136.538 173.875 136.538 173.857 136.538C172.312 145.054 173.394 153.839 176.96 161.726C177.08 161.966 177.525 161.881 177.44 161.589C175.088 153.449 173.927 145.011 173.994 136.538Z" fill="#263238"/>
<path d="M183.679 134.687C183.679 134.584 183.524 134.584 183.507 134.687C181.909 144.091 183.733 153.757 188.649 161.932C188.838 162.223 189.284 162.292 189.095 161.932C185.958 156.243 183.507 142.621 183.679 134.687Z" fill="#263238"/>
<path d="M200.426 161.23C195.729 153.176 194.067 144.437 193.673 135.201C193.673 135.081 193.501 135.099 193.467 135.201C192.438 139.776 193.313 145.62 194.375 150.126C195.286 154.318 197.277 158.199 200.152 161.384C200.237 161.521 200.426 161.401 200.426 161.23Z" fill="#263238"/>
<path d="M176.943 161.384C177.689 162.923 178.573 164.391 179.583 165.771C180.511 167.153 181.788 168.264 183.285 168.992C183.997 169.265 184.785 169.265 185.496 168.992C186.224 168.732 186.873 168.289 187.382 167.707C187.831 167.083 188.146 166.372 188.305 165.62C188.464 164.867 188.465 164.09 188.307 163.338L187.673 159.636L189.559 162.892C190.383 164.348 191.436 165.661 192.678 166.782C193.221 167.332 193.874 167.76 194.595 168.038C195.317 168.316 196.089 168.437 196.86 168.392C197.579 168.349 198.261 168.06 198.792 167.573C199.322 167.086 199.669 166.432 199.774 165.719C199.973 164.118 199.767 162.491 199.174 160.99L197.649 156.809L200.443 160.236C201.22 161.193 202.112 162.05 203.1 162.789C204.016 163.514 205.124 163.955 206.288 164.057C206.812 164.081 207.334 163.959 207.794 163.705C208.253 163.451 208.634 163.075 208.893 162.618C209.297 161.522 209.386 160.335 209.15 159.191C208.659 156.662 207.971 154.176 207.093 151.754C206.682 150.52 206.27 149.269 205.928 148.001C205.507 146.757 205.355 145.437 205.482 144.129C205.505 145.424 205.772 146.703 206.27 147.899C206.716 149.115 207.213 150.315 207.71 151.531C208.774 153.955 209.606 156.474 210.196 159.054C210.548 160.44 210.489 161.899 210.024 163.252C209.689 163.961 209.154 164.557 208.483 164.965C207.813 165.373 207.038 165.576 206.253 165.548C204.805 165.466 203.414 164.953 202.26 164.074C201.144 163.276 200.136 162.337 199.26 161.281L200.528 160.527C201.268 162.284 201.533 164.204 201.3 166.096C201.143 167.149 200.621 168.113 199.826 168.821C199.032 169.481 198.059 169.887 197.032 169.986C196.052 170.046 195.07 169.895 194.153 169.544C193.237 169.192 192.406 168.647 191.718 167.947C190.34 166.711 189.181 165.251 188.29 163.629L189.541 163.183C189.702 164.123 189.656 165.086 189.408 166.006C189.159 166.926 188.713 167.781 188.102 168.512C187.441 169.201 186.615 169.708 185.702 169.986C184.772 170.273 183.769 170.199 182.891 169.78C181.315 168.919 180.014 167.63 179.137 166.062C178.231 164.591 177.495 163.021 176.943 161.384Z" fill="#263238"/>
<path d="M188.085 184.088C188.085 184.088 155.398 167.381 168.202 157.82C171.99 154.975 190.999 147.83 192.507 151.617C194.461 156.5 187.074 160.973 182 163.029C182 163.029 193.913 167.159 193.519 176.292C193.419 177.965 192.86 179.579 191.901 180.955C190.942 182.331 189.621 183.415 188.085 184.088Z" fill="#AD6359"/>
<path d="M167.191 158.676C168.54 157.379 170.077 156.293 171.751 155.455C173.413 154.569 175.131 153.791 176.893 153.124C180.393 151.75 184.006 150.684 187.691 149.937C188.671 149.732 189.677 149.674 190.674 149.766C191.277 149.803 191.864 149.979 192.388 150.28C192.66 150.438 192.903 150.641 193.108 150.88C193.31 151.118 193.466 151.391 193.57 151.685C193.965 152.74 193.965 153.903 193.57 154.958C193.209 155.921 192.675 156.809 191.993 157.58C190.702 159.041 189.165 160.264 187.451 161.195C185.803 162.138 184.084 162.952 182.309 163.628V162.412C183.652 162.936 184.943 163.584 186.166 164.348C187.395 165.089 188.544 165.956 189.594 166.935C190.628 167.942 191.506 169.097 192.199 170.363C192.901 171.595 193.36 172.95 193.553 174.355C193.19 173.019 192.611 171.752 191.839 170.602C191.051 169.489 190.117 168.487 189.062 167.621C188.004 166.737 186.855 165.967 185.634 165.325C184.448 164.671 183.203 164.132 181.915 163.714L180.321 163.217L181.864 162.497C183.535 161.774 185.156 160.938 186.714 159.996C188.254 159.107 189.643 157.979 190.828 156.654C191.396 156.105 191.813 155.421 192.041 154.665C192.269 153.909 192.3 153.107 192.131 152.336C191.754 151.137 189.714 151.188 187.983 151.445C186.251 151.702 184.417 152.165 182.618 152.61C180.818 153.056 179.053 153.553 177.287 154.118C173.706 155.105 170.3 156.643 167.191 158.676Z" fill="#263238"/>
<path d="M150.462 207.735C179.36 243.393 221.371 266.491 231.741 258.969C242.111 251.447 207.162 212.07 206.562 211.487C204.522 209.534 189.062 201.497 160.986 189.674C133.441 178.073 137.555 191.816 150.462 207.735Z" fill="#AD6359"/>
<path d="M193.569 203.605L171.801 232.221C171.801 232.221 153.529 213.372 143.862 200.898C134.195 188.423 135.155 178.725 156.786 186.778C169.448 191.465 181.744 197.089 193.569 203.605Z" fill="#7963CD"/>
<path d="M169.728 225.658C172.385 221.751 175.162 217.913 178.007 214.16C179.43 212.31 180.801 210.425 182.258 208.592C183.715 206.758 185.377 204.925 186.869 203.04C186.971 202.903 187.177 203.04 187.074 203.177C185.703 205.062 184.469 207.032 183.098 208.917C181.727 210.802 180.218 212.755 178.761 214.675C175.893 218.444 172.939 222.146 169.9 225.778C169.814 225.881 169.574 225.778 169.728 225.658Z" fill="#263238"/>
<path d="M182.223 218.479L171.802 232.187C171.802 232.187 153.53 213.338 143.863 200.864L142.938 199.647L142.543 199.081L141.943 198.208C141.429 197.454 140.966 196.717 140.555 195.997C140.401 195.74 140.264 195.483 140.127 195.226C139.412 193.925 138.837 192.553 138.412 191.131C138.286 190.692 138.189 190.246 138.121 189.794C138.121 189.571 138.121 189.366 138.121 189.16C147.617 195.74 169.899 210.151 182.223 218.479Z" fill="#263238"/>
<path d="M183.097 312.808C183.097 312.808 83.9057 314.521 83.3229 313.905C81.7803 312.191 101.817 210.082 122.54 189.04C129.859 181.603 144.96 184.636 147.479 185.853C153.29 188.663 158.758 194.729 163.334 205.97C172.487 228.451 184.348 311.197 183.097 312.808Z" fill="#7963CD"/>
<path opacity="0.1" d="M152.433 189.211H122.386L122.54 189.04C123.239 188.333 124.015 187.707 124.854 187.172H149.793C150.727 187.779 151.61 188.461 152.433 189.211ZM155.741 192.639H119.558C119.078 193.273 118.615 193.958 118.152 194.678H157.318C156.821 193.958 156.307 193.324 155.861 192.639H155.741ZM159.478 198.105H116.078C115.701 198.773 115.324 199.458 114.964 200.161H160.643C160.283 199.458 159.906 198.756 159.512 198.105H159.478ZM162.271 203.588H113.233L112.256 205.627H163.18C162.906 204.924 162.614 204.239 162.306 203.605L162.271 203.588ZM164.448 209.054H110.748L109.873 211.093H165.151C164.928 210.459 164.705 209.705 164.431 209.054H164.448ZM166.162 214.52H108.485C108.228 215.206 107.954 215.874 107.679 216.576H166.762L166.162 214.52ZM167.636 219.986H106.411C106.171 220.672 105.914 221.34 105.674 222.043H168.185C167.968 221.346 167.796 220.66 167.671 219.986H167.636ZM168.973 225.47H104.44C104.2 226.138 103.977 226.823 103.754 227.509H169.436L168.973 225.47ZM170.207 230.936H102.726C102.503 231.604 102.297 232.289 102.075 232.975H170.773C170.533 232.289 170.396 231.604 170.242 231.021L170.207 230.936ZM171.373 236.402H101.012C100.789 237.07 100.583 237.756 100.378 238.458H171.921C171.699 237.773 171.562 237.087 171.407 236.402H171.373ZM172.487 241.868H99.2979C99.0922 242.554 98.8865 243.239 98.698 243.924H173.001L172.487 241.868ZM173.55 247.351H97.6867C97.481 248.037 97.2924 248.705 97.1039 249.39H173.961C173.841 248.705 173.721 248.02 173.584 247.351H173.55ZM174.561 252.818H96.1612C95.9726 253.503 95.7841 254.188 95.6127 254.857H174.972C174.852 254.171 174.715 253.503 174.595 252.818H174.561ZM175.538 258.284H94.7042C94.5157 258.969 94.3443 259.654 94.1729 260.34H175.932C175.83 259.654 175.71 258.969 175.572 258.284H175.538ZM176.515 263.767H93.2816C93.1273 264.452 92.9559 265.121 92.7845 265.806H176.875C176.772 265.138 176.652 264.452 176.549 263.767H176.515ZM177.406 269.233H91.9275C91.7732 269.919 91.6018 270.604 91.4476 271.272H177.783C177.681 270.604 177.561 269.919 177.441 269.233H177.406ZM178.298 274.699H90.6249C90.4706 275.402 90.3163 276.087 90.1449 276.755H178.658C178.555 276.07 178.452 275.402 178.332 274.699H178.298ZM179.172 280.165H89.3736C89.2193 280.851 89.0651 281.553 88.9108 282.222H179.498C179.395 281.553 179.292 280.868 179.206 280.165H179.172ZM179.977 285.649H88.1566C88.0195 286.334 87.8653 287.02 87.7281 287.688H180.286L179.977 285.649ZM180.766 291.115H86.9911C86.854 291.817 86.7169 292.486 86.5797 293.154H181.092C180.989 292.486 180.903 291.8 180.8 291.115H180.766ZM181.52 296.581H85.9113C85.7513 297.289 85.6141 297.975 85.4999 298.637H181.829C181.743 297.969 181.572 297.284 181.572 296.581H181.52ZM182.206 302.047H84.8657C84.7286 302.767 84.6086 303.452 84.4886 304.103H182.497C182.429 303.452 182.343 302.767 182.24 302.047H182.206ZM182.84 307.53H83.8716C83.7516 308.267 83.6659 308.953 83.563 309.569H182.977C183.011 308.97 182.943 308.284 182.874 307.53H182.84ZM83.2202 312.997C83.144 313.294 83.144 313.607 83.2202 313.905C83.683 314.367 145.2 313.425 171.407 312.997H83.2202Z" fill="#030402"/>
<path d="M128.196 201.412C121.511 210.579 87.2307 248.465 85.9623 251.978C84.6939 255.491 92.6299 263.253 92.4927 264.71C91.9785 270.638 79.1747 310.084 74.0497 306.074C67.2964 300.796 38.7063 262.996 42.7515 246.632C46.7966 230.268 113.558 190.976 124.151 187.567C134.744 184.157 134.795 192.364 128.196 201.412Z" fill="#AD6359"/>
<path d="M101.269 235.905L81.7979 208.575C81.7979 208.575 103.583 194.284 118.153 188.184C132.722 182.084 139.904 185.476 126.586 204.308C118.8 215.348 110.346 225.9 101.269 235.905Z" fill="#7963CD"/>
<path d="M87.5563 206.792C90.6415 210.368 93.6411 214.023 96.555 217.759C97.9947 219.592 99.4517 221.409 100.84 223.276C102.228 225.144 103.6 227.235 105.057 229.154C105.159 229.291 104.954 229.462 104.851 229.325C103.377 227.612 101.8 225.898 100.326 224.013C98.8518 222.128 97.3434 220.243 95.8693 218.359C92.9555 214.623 90.1273 210.802 87.402 206.929C87.2992 206.827 87.4706 206.689 87.5563 206.792Z" fill="#263238"/>
<path d="M101.234 236.042C104.216 232.084 107.73 228.554 110.952 224.802C114.175 221.049 117.38 217.176 120.448 213.27C120.448 213.27 120.671 213.27 120.602 213.372C119.18 215.411 117.791 217.468 116.3 219.455C115.563 220.432 114.792 221.392 114.003 222.351L115.152 221.409C116.327 220.526 117.545 219.702 118.803 218.941C118.803 218.941 118.94 218.941 118.803 219.044C117.712 220.053 116.568 221.003 115.375 221.889C114.518 222.54 113.661 223.139 112.752 223.739L111.381 225.453C108.389 229.314 105.056 232.898 101.422 236.162C101.32 236.316 101.131 236.162 101.234 236.042Z" fill="#263238"/>
<path d="M90.813 321.05C95.3895 317.949 89.0989 314.316 89.0989 314.316C89.0989 314.316 99.3832 317.366 102.811 312.345C106.239 307.325 98.4233 303.384 97.8748 303.075C98.4233 303.246 107.953 305.782 110.936 300.385C113.918 294.987 105.554 291.971 105.005 291.817C105.571 291.817 112.993 291.492 114.33 286.865C116.609 278.932 95.2866 278.006 90.693 273.157C90.693 273.157 92.7498 262.67 92.9212 262.379C91.5421 264.732 89.4019 266.545 86.8536 267.519C82.2428 268.822 78.0948 269.576 76.2265 271.786C75.3549 272.753 74.8176 273.975 74.6941 275.271C74.5707 276.567 74.8675 277.869 75.5409 278.983C75.5409 278.983 69.7132 278.315 67.2279 282.496C65.9595 284.638 68.2734 288.596 68.2734 288.596C66.9546 288.502 65.6353 288.771 64.4595 289.376C63.2837 289.98 62.2965 290.896 61.6058 292.023C60.0118 295.107 62.5828 298.586 62.5828 298.586C62.5828 298.586 57.9207 300.299 57.3207 304C56.1723 311.42 81.0087 327.664 90.813 321.05Z" fill="#AD6359"/>
<path d="M62.9944 299.22C62.9944 299.22 62.8058 299.22 62.8744 299.34C69.9792 306.991 79.246 312.298 89.4419 314.556C89.7676 314.556 90.0075 314.11 89.6647 313.973C80.1066 310.373 71.1226 305.403 62.9944 299.22Z" fill="#263238"/>
<path d="M68.2057 288.527C68.1944 288.518 68.1815 288.512 68.1676 288.508C68.1538 288.504 68.1393 288.502 68.125 288.504C68.1106 288.506 68.0968 288.51 68.0842 288.517C68.0715 288.524 68.0604 288.533 68.0514 288.545C68.0424 288.556 68.0357 288.569 68.0317 288.583C68.0277 288.596 68.0264 288.611 68.028 288.625C68.0296 288.64 68.034 288.653 68.0409 288.666C68.0479 288.679 68.0573 288.69 68.0685 288.699C75.9891 297.048 86.6333 302.292 98.0813 303.487C98.4755 303.487 98.8697 303.144 98.4069 303.075C90.7281 301.91 75.7474 294.422 68.2057 288.527Z" fill="#263238"/>
<path d="M105.932 291.56C94.7562 290.292 85.1062 285.563 75.9019 279.292C75.7819 279.292 75.679 279.377 75.7476 279.48C79.4156 283.781 85.7061 287.174 90.8311 289.401C95.5373 291.555 100.727 292.436 105.88 291.954C106.155 291.937 106.155 291.595 105.932 291.56Z" fill="#263238"/>
<path d="M62.3598 298.586C61.4288 297.649 60.7758 296.472 60.4732 295.187C60.1706 293.901 60.2304 292.557 60.6458 291.303C61.1826 290.123 62.1254 289.175 63.3025 288.63C64.7056 288.145 66.206 288.01 67.6733 288.236C66.8552 287.083 66.4057 285.71 66.3843 284.296C66.3629 282.883 66.7705 281.497 67.5533 280.32C68.4311 279.313 69.654 278.671 70.9814 278.52C72.4963 278.373 74.0241 278.431 75.5236 278.692C74.8989 277.957 74.4544 277.086 74.2253 276.149C73.9962 275.212 73.9888 274.234 74.2038 273.294C74.4875 272.273 75.0077 271.333 75.7224 270.55C76.437 269.767 77.3261 269.163 78.3175 268.788C80.6497 267.944 83.0708 267.369 85.5335 267.074C86.7977 266.885 88.0348 266.545 89.2187 266.063C90.4945 265.479 91.564 264.524 92.2868 263.321C92.424 263.116 92.424 263.321 92.2868 263.51C91.8068 264.327 91.1926 265.056 90.47 265.669C89.7196 266.322 88.8834 266.87 87.9846 267.297C85.7535 268.138 83.4615 268.808 81.1285 269.302C79.0834 269.846 77.2756 271.051 75.9864 272.729C75.3972 273.617 75.066 274.651 75.0296 275.715C74.9933 276.78 75.2533 277.834 75.7807 278.76C75.7807 278.76 75.7807 278.983 75.6264 278.966C74.2579 278.96 72.8937 279.121 71.5642 279.446C70.4614 279.709 69.4673 280.308 68.7189 281.159C68.0254 282.245 67.6288 283.494 67.5687 284.78C67.5085 286.067 67.7869 287.347 68.3761 288.493C66.8979 288.592 65.4508 288.964 64.1081 289.59C63.2364 290.126 62.5349 290.898 62.0856 291.817C61.5721 292.876 61.3628 294.057 61.4808 295.228C61.5988 296.398 62.0396 297.514 62.754 298.449C62.7606 298.477 62.7606 298.506 62.754 298.534C62.754 298.534 61.2628 299.151 61.1942 299.151C61.1257 299.151 61.1942 299.151 61.1942 299.151C61.5708 298.939 61.96 298.75 62.3598 298.586Z" fill="#263238"/>
<path d="M147.445 201.052C141.994 203.057 131.333 195.637 126.688 189.16C126.379 188.714 126.071 169.437 125.625 165.633C125.522 164.845 150.256 168.58 150.256 168.58C149.465 173.509 149.281 178.515 149.708 183.488C149.776 184.036 152.707 199.133 147.445 201.052Z" fill="#AD6359"/>
<path d="M150.256 168.581C150.256 168.581 149.982 170.174 149.759 172.539C142.903 180.952 131.899 181.844 126.311 181.655C126.122 175.675 125.9 167.947 125.625 165.634C125.522 164.862 150.256 168.581 150.256 168.581Z" fill="#263238"/>
<path d="M125.728 124.56C125.728 124.56 117.843 127.61 116.232 135.492C114.621 143.375 116.232 151.737 116.884 152.165C117.535 152.593 125.728 124.56 125.728 124.56Z" fill="#263238"/>
<path d="M157.574 134.739C159.596 143.426 153.46 167.741 147.015 172.813C137.691 180.181 123.225 179.976 117.157 168.958C111.295 158.283 119.865 126.754 126.978 122.213C137.434 115.547 154.54 121.887 157.574 134.739Z" fill="#AD6359"/>
<path d="M133.116 148.396C133.116 148.396 133.236 148.498 133.218 148.567C132.875 150.28 132.755 152.217 134.196 153.039C134.196 153.039 134.196 153.142 134.196 153.125C132.344 152.542 132.515 149.921 133.116 148.396Z" fill="#263238"/>
<path d="M134.916 146.887C137.675 147.144 136.938 152.628 134.402 152.388C131.865 152.148 132.619 146.665 134.916 146.887Z" fill="#263238"/>
<path d="M123.551 146.699C123.551 146.699 123.414 146.699 123.397 146.836C123.243 148.549 122.78 150.451 121.169 150.828V150.931C123.089 150.897 123.671 148.327 123.551 146.699Z" fill="#263238"/>
<path d="M122.266 144.728C119.558 144.18 118.65 149.629 121.169 150.143C123.689 150.657 124.529 145.191 122.266 144.728Z" fill="#263238"/>
<path d="M124.802 154.753C124.802 154.753 124.082 157.22 123.911 158.42C126.241 158.76 128.51 159.435 130.647 160.424C131.144 160.664 131.213 160.236 130.647 159.79C129.052 158.495 127.106 157.708 125.059 157.529C125.059 157.186 126.242 153.742 126.054 153.69C125.128 153.637 124.199 153.712 123.294 153.913C124.631 148.772 126.722 143.769 128.059 138.491C128.059 138.303 127.836 138.2 127.75 138.354C125.277 143.587 123.325 149.051 121.923 154.667C121.7 155.421 124.288 154.89 124.802 154.753Z" fill="#263238"/>
<path d="M137.006 145.02C136.355 144.608 135.841 144.111 135.292 143.649C134.744 143.186 134.024 142.758 133.767 141.935C133.712 141.688 133.743 141.429 133.855 141.201C133.967 140.974 134.154 140.791 134.384 140.684C134.866 140.527 135.382 140.502 135.877 140.614C136.372 140.725 136.827 140.969 137.195 141.318C138.06 141.899 138.673 142.787 138.909 143.803C138.954 144.042 138.927 144.288 138.83 144.511C138.734 144.734 138.573 144.923 138.369 145.054C138.164 145.185 137.925 145.252 137.682 145.245C137.439 145.239 137.204 145.161 137.006 145.02Z" fill="#263238"/>
<path d="M121.066 138.697C121.82 138.577 122.506 138.371 123.243 138.183C124.037 138.115 124.785 137.783 125.368 137.24C125.521 137.038 125.604 136.791 125.604 136.538C125.604 136.284 125.521 136.037 125.368 135.835C124.993 135.493 124.533 135.258 124.036 135.152C123.538 135.047 123.022 135.075 122.54 135.235C121.51 135.408 120.581 135.958 119.935 136.778C119.804 136.971 119.731 137.197 119.724 137.43C119.717 137.663 119.776 137.893 119.895 138.094C120.013 138.295 120.186 138.458 120.393 138.565C120.6 138.671 120.834 138.717 121.066 138.697Z" fill="#263238"/>
<path d="M153.53 155.506C148.49 155.01 151.233 132.785 151.233 132.785C148.122 133.844 144.868 134.422 141.583 134.499C138.264 134.382 134.969 133.888 131.761 133.025C131.076 132.768 140.177 130.198 140.177 130.198C140.177 130.198 117.792 132.151 117.038 127.936C116.764 126.479 120.929 113.217 139.509 114.056C153.221 114.673 159.614 128.998 159.614 128.998C159.614 128.998 166.282 136.418 165.134 139.776C163.18 145.671 158.877 156.038 153.53 155.506Z" fill="#263238"/>
<path d="M150.479 155.626C150.479 155.626 156.735 148.155 160.18 150.486C163.626 152.816 158.466 163.937 154.044 165.153C153.493 165.345 152.909 165.423 152.327 165.384C151.746 165.344 151.178 165.188 150.657 164.924C150.137 164.66 149.676 164.294 149.301 163.847C148.925 163.401 148.644 162.884 148.474 162.326L150.479 155.626Z" fill="#AD6359"/>
<path d="M233.968 257.684C247.886 246.94 234.585 192.399 226.495 172.316C224.112 166.405 186.318 177.457 188.083 184.088C198.179 221.597 218.73 269.456 233.968 257.684Z" fill="#AD6359"/>
<path d="M194.342 204.667L198.507 214.949C199.93 218.376 201.318 221.803 202.861 225.23C204.403 228.657 205.894 231.964 207.471 235.305C209.048 238.647 210.797 241.92 212.511 245.209C210.342 242.19 208.367 239.037 206.597 235.768C204.883 232.495 203.169 229.137 201.678 225.744C200.187 222.351 198.815 218.89 197.581 215.36C196.347 211.83 195.285 208.283 194.342 204.667Z" fill="#263238"/>
<path d="M191.855 96.2527C192.02 98.1799 191.611 100.113 190.678 101.807C189.745 103.502 188.33 104.882 186.613 105.773C184.896 106.664 182.953 107.026 181.03 106.814C179.107 106.602 177.29 105.825 175.808 104.581C174.327 103.336 173.248 101.681 172.707 99.8242C172.166 97.9671 172.188 95.9914 172.769 94.1468C173.351 92.3021 174.467 90.6712 175.975 89.4601C177.484 88.249 179.318 87.5121 181.245 87.3424C182.527 87.2295 183.819 87.3706 185.047 87.7575C186.274 88.1445 187.413 88.7697 188.399 89.5973C189.384 90.425 190.197 91.4389 190.79 92.5809C191.383 93.7229 191.745 94.9707 191.855 96.2527Z" fill="white"/>
<path d="M191.854 96.2524C192.067 98.8761 191.264 101.481 189.612 103.531C187.96 105.581 185.585 106.919 182.976 107.27C181.555 107.555 180.089 107.537 178.676 107.216C177.263 106.896 175.933 106.28 174.774 105.41C173.616 104.539 172.654 103.434 171.953 102.166C171.251 100.898 170.826 99.4964 170.704 98.0526C170.583 96.6088 170.768 95.1556 171.247 93.7884C171.727 92.4211 172.49 91.1706 173.487 90.1188C174.484 89.0671 175.692 88.2378 177.032 87.6855C178.371 87.1331 179.813 86.8701 181.262 86.9137C183.886 86.824 186.446 87.7415 188.415 89.4779C190.385 91.2143 191.615 93.6381 191.854 96.2524ZM191.854 96.2524C191.745 94.9919 191.381 93.7667 190.785 92.6505C190.189 91.5343 189.373 90.5503 188.387 89.7577C187.4 88.9652 186.263 88.3805 185.045 88.039C183.826 87.6975 182.551 87.6061 181.296 87.7705C178.897 88.0787 176.709 89.302 175.191 91.1847C173.673 93.0674 172.942 95.4638 173.15 97.8731C173.358 100.282 174.489 102.518 176.308 104.113C178.126 105.708 180.491 106.538 182.907 106.431C184.173 106.378 185.414 106.069 186.557 105.523C187.7 104.977 188.721 104.205 189.557 103.253C190.393 102.302 191.028 101.191 191.422 99.988C191.817 98.7848 191.964 97.514 191.854 96.2524Z" fill="#263238"/>
<path d="M170.567 114.296C170.658 115.37 170.429 116.446 169.908 117.39C169.387 118.333 168.598 119.101 167.641 119.596C166.683 120.091 165.601 120.291 164.53 120.171C163.459 120.051 162.447 119.617 161.623 118.922C160.799 118.228 160.199 117.305 159.9 116.269C159.601 115.234 159.615 114.134 159.941 113.107C160.267 112.08 160.891 111.173 161.733 110.5C162.575 109.827 163.597 109.419 164.671 109.327C165.385 109.264 166.105 109.342 166.788 109.558C167.472 109.774 168.106 110.123 168.654 110.585C169.202 111.046 169.653 111.612 169.982 112.249C170.31 112.886 170.509 113.582 170.567 114.296Z" fill="white"/>
<path d="M170.567 114.296C170.663 115.472 170.403 116.65 169.821 117.676C169.238 118.702 168.36 119.529 167.301 120.05C166.242 120.57 165.051 120.76 163.882 120.595C162.714 120.429 161.622 119.916 160.749 119.122C159.877 118.327 159.263 117.289 158.989 116.141C158.715 114.994 158.792 113.79 159.212 112.687C159.631 111.584 160.373 110.633 161.34 109.957C162.308 109.282 163.456 108.913 164.636 108.898C166.121 108.893 167.554 109.444 168.653 110.443C169.751 111.443 170.434 112.817 170.567 114.296ZM170.567 114.296C170.51 113.601 170.31 112.925 169.977 112.312C169.645 111.698 169.189 111.161 168.637 110.734C168.086 110.306 167.451 109.999 166.774 109.83C166.097 109.662 165.392 109.636 164.705 109.755C163.74 109.919 162.843 110.359 162.124 111.024C161.406 111.688 160.896 112.547 160.658 113.497C160.42 114.446 160.463 115.444 160.783 116.369C161.103 117.293 161.685 118.105 162.459 118.705C163.233 119.304 164.165 119.665 165.14 119.744C166.116 119.823 167.093 119.615 167.953 119.148C168.813 118.68 169.518 117.972 169.983 117.111C170.447 116.249 170.65 115.271 170.567 114.296Z" fill="#263238"/>
<path d="M264.975 50.7414C265.885 58.2639 263.772 65.8399 259.099 71.8059C254.427 77.7719 247.577 81.6403 240.053 82.5616C235.102 83.1778 230.076 82.4743 225.484 80.5225C223.244 83.4534 220.359 85.8285 217.052 87.4633C213.744 89.098 210.105 89.9485 206.415 89.9485C202.726 89.9485 199.086 89.098 195.779 87.4633C192.472 85.8285 189.587 83.4534 187.347 80.5225C186.293 80.8338 185.215 81.0574 184.124 81.1908C180.392 81.6463 176.608 81.0099 173.23 79.3587C169.852 77.7074 167.026 75.1122 165.094 71.8876C163.162 68.6629 162.207 64.9473 162.345 61.191C162.482 57.4347 163.707 53.7989 165.87 50.7243C161.658 45.367 159.499 38.6816 159.783 31.8734C160.066 25.0653 162.773 18.5823 167.416 13.5935C172.059 8.60474 178.332 5.43832 185.104 4.66518C191.876 3.89203 198.702 5.56305 204.35 9.37693C206.999 6.0837 210.472 3.54859 214.416 2.02817C218.361 0.507745 222.637 0.0559715 226.812 0.718571C230.987 1.38117 234.913 3.13462 238.192 5.80147C241.471 8.46832 243.988 11.9539 245.487 15.9055C246.488 15.5687 247.522 15.339 248.572 15.22C251.741 14.8403 254.951 15.4353 257.774 16.9258C260.596 18.4162 262.897 20.7313 264.37 23.5625C265.843 26.3936 266.417 29.6063 266.017 32.7722C265.617 35.9381 264.261 38.9069 262.13 41.2828C263.629 44.2434 264.592 47.4456 264.975 50.7414Z" fill="white"/>
<path d="M264.975 50.7413C265.866 58.2611 263.781 65.8312 259.165 71.8348C257.617 73.7904 255.832 75.5459 253.851 77.061C249.839 80.0966 245.105 82.0344 240.116 82.6835C235.126 83.3325 230.054 82.6703 225.398 80.7623H225.672C223.42 83.7492 220.508 86.1754 217.163 87.8518C213.818 89.5282 210.131 90.4094 206.39 90.4265C202.63 90.4399 198.918 89.5898 195.54 87.9419C192.163 86.2653 189.205 83.8529 186.884 80.8822L187.501 81.0878C183.513 82.2918 179.25 82.2319 175.297 80.9165C171.326 79.6064 167.867 77.0831 165.407 73.7025C164.203 72.0032 163.25 70.1391 162.579 68.1678C161.936 66.1852 161.596 64.1173 161.568 62.0334C161.53 57.8333 162.8 53.7254 165.201 50.2786V51.2382C160.817 45.751 158.581 38.856 158.911 31.8411C159.097 26.6157 160.686 21.5366 163.512 17.1369C166.338 12.7372 170.297 9.17904 174.972 6.83579C179.648 4.49253 184.868 3.45058 190.086 3.81928C195.303 4.18799 200.325 5.95374 204.624 8.93126L203.87 9.03407C206.592 5.6844 210.152 3.11461 214.189 1.58575C218.226 0.056884 222.596 -0.376591 226.855 0.329358C231.088 1.0315 235.061 2.83837 238.371 5.56733C241.682 8.29629 244.213 11.8506 245.709 15.871L245.487 15.7511C248.836 14.6621 252.452 14.7103 255.771 15.8882C258.211 16.7606 260.398 18.2215 262.139 20.1414C263.879 22.0612 265.119 24.3806 265.747 26.8941C266.376 29.4075 266.375 32.0372 265.744 34.5501C265.113 37.063 263.872 39.3814 262.13 41.2998C263.63 44.2537 264.593 47.4505 264.975 50.7413ZM264.975 50.7413C264.571 47.4465 263.584 44.2496 262.061 41.2998C264.391 38.7434 265.802 35.4842 266.072 32.0367C266.342 28.5893 265.456 25.1501 263.553 22.2625C261.671 19.3828 258.886 17.2094 255.634 16.0835C252.383 14.9577 248.85 14.9432 245.59 16.0424H245.418V15.871C243.897 11.9807 241.386 8.55489 238.133 5.93259C234.88 3.31484 230.986 1.6114 226.855 0.997631C222.743 0.383646 218.541 0.856248 214.668 2.36846C210.819 3.89628 207.443 6.41463 204.881 9.66807L204.556 10.0793L204.11 9.77089C198.593 6.09486 191.947 4.50158 185.362 5.27618C178.777 6.05077 172.683 9.14269 168.17 13.9986C163.657 18.8545 161.019 25.1575 160.73 31.7796C160.44 38.4016 162.518 44.9106 166.59 50.1416L166.967 50.6213L166.607 51.1183C164.368 54.2785 163.169 58.0579 163.179 61.9306C163.206 63.8551 163.512 65.7656 164.087 67.6024C164.688 69.4355 165.561 71.1683 166.675 72.743C168.944 75.9142 172.14 78.3044 175.823 79.5841C179.507 80.8638 183.497 80.9701 187.244 79.8884L187.638 79.7855L187.861 80.094C190.042 82.9651 192.842 85.3079 196.054 86.9481C200.944 89.4244 206.543 90.1221 211.891 88.9214C217.239 87.7208 222.003 84.6967 225.364 80.3681L225.484 80.2139H225.655C230.223 82.189 235.231 82.922 240.173 82.3387C245.144 81.7279 249.871 79.8321 253.885 76.8383C255.863 75.352 257.648 73.6252 259.199 71.6977C260.721 69.7259 261.994 67.5733 262.987 65.2891C264.89 60.6913 265.574 55.6808 264.975 50.7413Z" fill="#263238"/>
<path d="M216.108 51.6324C216.072 49.5469 216.445 47.4746 217.205 45.5322C218.16 43.4938 219.772 41.8346 221.782 40.82C222.484 40.3917 223.324 39.929 224.353 39.3978C225.394 38.8498 226.386 38.2134 227.318 37.4958C228.276 36.7671 229.11 35.8874 229.786 34.8912C230.463 33.8777 230.815 32.6826 230.797 31.4642C230.815 30.5747 230.621 29.6938 230.232 28.8939C229.88 28.1776 229.384 27.5418 228.775 27.0262C228.156 26.5103 227.439 26.1255 226.667 25.8952C225.875 25.638 225.048 25.5051 224.215 25.5011C223.263 25.4834 222.317 25.6643 221.439 26.0323C220.635 26.3631 219.88 26.8012 219.193 27.3346C218.552 27.8705 217.977 28.4801 217.479 29.1509C216.988 29.7552 216.535 30.3906 216.125 31.0529L210.092 26.8891C210.677 25.4976 211.488 24.2123 212.491 23.085C213.457 21.9735 214.591 21.0195 215.851 20.2577C217.137 19.5 218.521 18.9234 219.965 18.5442C221.458 18.1505 222.997 17.9547 224.541 17.9616C226.282 17.9706 228.013 18.2244 229.683 18.7156C231.365 19.2171 232.931 20.0438 234.294 21.1488C235.698 22.3074 236.832 23.7574 237.619 25.3983C238.507 27.3431 238.941 29.4642 238.888 31.6013C238.908 32.9217 238.735 34.238 238.373 35.5081C238.045 36.6094 237.541 37.6508 236.882 38.5925C236.233 39.5211 235.467 40.362 234.602 41.0942C233.663 41.8811 232.666 42.597 231.62 43.2361L228.843 44.8297C227.954 45.3244 227.111 45.8979 226.324 46.5432C225.564 47.1353 224.919 47.8612 224.421 48.6851C223.905 49.5796 223.65 50.6005 223.684 51.6324H216.108ZM216.245 67.7738V58.2123H223.924V67.7738H216.245Z" fill="#7963CD"/>
<path d="M198.952 33.743C199.426 35.7721 199.485 37.8764 199.123 39.9288C198.634 42.1108 197.427 44.0657 195.695 45.4806C195.095 46.0289 194.358 46.6629 193.467 47.3997C192.56 48.1512 191.718 48.9765 190.947 49.8672C190.162 50.775 189.531 51.8054 189.079 52.9173C188.626 54.0496 188.531 55.2932 188.805 56.4814C188.96 57.3499 189.325 58.1674 189.867 58.8632C190.359 59.498 190.978 60.0232 191.684 60.4054C192.396 60.7864 193.177 61.0196 193.981 61.0908C194.812 61.1663 195.649 61.1201 196.467 60.9537C197.399 60.775 198.286 60.4076 199.072 59.8742C199.789 59.3893 200.44 58.8133 201.009 58.1607C201.557 57.5062 202.024 56.7869 202.397 56.0188C202.748 55.3237 203.057 54.6085 203.323 53.8769L210.076 56.7213C209.8 58.2049 209.272 59.6305 208.516 60.9366C207.783 62.2127 206.858 63.3685 205.774 64.3636C204.673 65.3735 203.439 66.2269 202.106 66.8997C200.727 67.5923 199.264 68.0993 197.752 68.4076C196.029 68.7738 194.262 68.8835 192.507 68.7331C190.76 68.6022 189.057 68.1184 187.502 67.3109C185.898 66.4741 184.49 65.3059 183.371 63.8839C181.347 61.0497 180.35 57.6108 180.543 54.1339C180.638 52.9946 180.916 51.8779 181.366 50.8268C181.806 49.7844 182.382 48.8049 183.08 47.9138C183.836 46.9471 184.661 46.0365 185.548 45.1893C186.337 44.4696 187.142 43.7499 187.931 43.0645C188.693 42.3847 189.387 41.633 190.005 40.8198C190.607 40.0778 191.077 39.2372 191.393 38.3352C191.706 37.3529 191.741 36.3034 191.496 35.3023L198.952 33.743ZM195.524 17.9785L197.495 27.3344L189.97 28.9108L187.999 19.555L195.524 17.9785Z" fill="#7963CD"/>
</svg>
