<svg width="38" height="28" viewBox="0 0 38 28" fill="none" xmlns="http://www.w3.org/2000/svg">
<path d="M35.2857 0H2.71429C1.99441 0 1.30402 0.294999 0.794996 0.820101C0.285968 1.3452 0 2.05739 0 2.8V25.2C0 25.9426 0.285968 26.6548 0.794996 27.1799C1.30402 27.705 1.99441 28 2.71429 28H35.2857C36.0056 28 36.696 27.705 37.205 27.1799C37.714 26.6548 38 25.9426 38 25.2V2.8C38 2.05739 37.714 1.3452 37.205 0.820101C36.696 0.294999 36.0056 0 35.2857 0ZM32.3 2.8L19 12.292L5.7 2.8H32.3ZM2.71429 25.2V4.074L18.2264 15.148C18.4536 15.3106 18.7235 15.3977 19 15.3977C19.2765 15.3977 19.5464 15.3106 19.7736 15.148L35.2857 4.074V25.2H2.71429Z" fill="#FCF8FF"/>
</svg>
