<svg width="36" height="32" viewBox="0 0 36 32" fill="none" xmlns="http://www.w3.org/2000/svg">
<path d="M28.1455 0C28.8681 0 29.5823 0.2267 30.1763 0.632374L30.2592 0.671748L30.3034 0.707543L34.6205 4.54951L34.5791 4.58531C35.9095 5.6496 36.3239 7.23889 35.7451 8.61341C35.7423 8.61937 35.7478 8.64204 35.7451 8.6492C34.575 11.5462 31.5771 17.1326 25.7293 22.1844C19.8581 27.2553 13.3002 29.7371 10.0579 30.8348H10.0164C9.20321 31.0664 8.33451 31.1125 7.49459 30.9687C6.65467 30.8248 5.87206 30.4959 5.22268 30.0139L5.18124 29.9781L5.13703 29.9399L0.859974 26.2495C-0.286652 25.2592 -0.286652 23.5482 0.859974 22.5578L6.47154 17.7112L6.51575 17.6361C7.66237 16.6457 9.68624 16.6457 10.8329 17.6361L10.8743 17.6742L13.5958 20.0248C15.6695 19.1642 17.5768 18.0321 19.2502 16.6684C21.5103 14.8035 22.668 12.6594 23.0907 11.8194L20.3305 9.43311C19.1673 8.42847 19.1494 6.76521 20.372 5.77966L20.3305 5.74148L20.459 5.63051L25.9849 0.707543L26.0305 0.671748L26.1162 0.632374C26.691 0.229611 27.4068 0.00672981 28.1469 0H28.1455ZM28.1455 2.38632C28.0433 2.38632 27.9425 2.42927 27.8416 2.49847L22.3157 7.38207L22.2301 7.45724L22.1886 7.49303C22.1983 7.48707 22.1057 7.60877 22.2743 7.75553L25.728 10.7384L26.3773 11.261L26.0733 12.0056C26.0733 12.0056 24.4846 15.6721 21.1511 18.42L20.8513 18.6431C17.6408 21.175 13.8555 22.5567 13.8555 22.5567L12.9921 22.8931L12.3428 22.3347L8.88913 19.3518C8.65427 19.149 8.69572 19.149 8.46087 19.3518L2.80371 24.2354C2.56886 24.4383 2.56886 24.3667 2.80371 24.5695L7.03518 28.2242C7.67066 28.6966 8.34344 28.7921 9.14884 28.5606C12.282 27.4987 18.3633 25.1876 23.7856 20.5068C29.2494 15.7855 32.1049 10.4282 33.152 7.8307C33.3634 7.34508 33.2114 6.62561 32.721 6.26408L32.6796 6.22829L32.6354 6.18891L28.4467 2.49847C28.3645 2.43268 28.2587 2.39311 28.1469 2.38632H28.1455Z" fill="#FCF8FF"/>
</svg>
