<svg width="61" height="70" viewBox="0 0 61 70" fill="none" xmlns="http://www.w3.org/2000/svg">
<path d="M57.7478 66.8755H12.1246" stroke="#5C40CA" stroke-width="6" stroke-linecap="round" stroke-linejoin="round"/>
<path d="M3 57.7508C3 60.1708 3.96134 62.4917 5.67255 64.2029C6.51985 65.0502 7.52574 65.7224 8.63279 66.1809C9.73985 66.6395 10.9264 66.8755 12.1246 66.8755" stroke="#5C40CA" stroke-width="6" stroke-linecap="round" stroke-linejoin="round"/>
<path d="M3 57.7506C3 55.3306 3.96134 53.0097 5.67255 51.2985C7.38375 49.5873 9.70464 48.626 12.1246 48.626" stroke="#5C40CA" stroke-width="6" stroke-linecap="round" stroke-linejoin="round"/>
<path d="M57.7478 48.626H12.1246" stroke="#5C40CA" stroke-width="6" stroke-linecap="round" stroke-linejoin="round"/>
<path d="M3 12.1276C3 10.9293 3.23602 9.74278 3.69457 8.63572C4.15313 7.52867 4.82524 6.52278 5.67255 5.67548C6.51985 4.82817 7.52574 4.15606 8.63279 3.6975C9.73985 3.23895 10.9264 3.00293 12.1246 3.00293" stroke="#5C40CA" stroke-width="6" stroke-linecap="round" stroke-linejoin="round"/>
<path d="M57.7478 3.00293L12.1246 3.00293" stroke="#5C40CA" stroke-width="6" stroke-linecap="round" stroke-linejoin="round"/>
<path d="M3 12.1274V57.7507" stroke="#5C40CA" stroke-width="6" stroke-linecap="round" stroke-linejoin="round"/>
<path d="M12.1246 48.626V3" stroke="#5C40CA" stroke-width="6" stroke-linecap="round" stroke-linejoin="round"/>
<path d="M57.7479 3.00293V48.6261" stroke="#5C40CA" stroke-width="6" stroke-linecap="round" stroke-linejoin="round"/>
<path d="M57.7479 48.626C54.8783 54.6171 54.7203 60.6951 57.7479 66.8753" stroke="#5C40CA" stroke-width="6" stroke-linecap="round" stroke-linejoin="round"/>
</svg>
