<svg width="90" height="54" viewBox="0 0 90 54" fill="none" xmlns="http://www.w3.org/2000/svg">
<path d="M45 11.25C37.5441 11.25 31.5 18.3009 31.5 27C31.5 35.6977 37.5441 42.75 45 42.75C52.4531 42.75 58.5 35.7005 58.5 27C58.5 18.3009 52.4559 11.25 45 11.25ZM50.625 34.875C50.625 35.4966 50.1216 36 49.5 36H40.5C39.8784 36 39.375 35.4966 39.375 34.875V32.625C39.375 32.0034 39.8784 31.5 40.5 31.5H42.75V23.7038L42.6839 23.7473C42.561 23.8293 42.4232 23.8863 42.2783 23.915C42.1334 23.9437 41.9843 23.9435 41.8394 23.9145C41.6946 23.8856 41.5569 23.8283 41.4342 23.746C41.3115 23.6638 41.2062 23.5581 41.1244 23.4352L39.8756 21.5634C39.7936 21.4406 39.7366 21.3027 39.708 21.1578C39.6793 21.0129 39.6794 20.8638 39.7084 20.719C39.7374 20.5741 39.7947 20.4364 39.8769 20.3137C39.9592 20.191 40.0648 20.0857 40.1878 20.0039L42.3436 18.5667C42.8979 18.1972 43.5491 18 44.2153 18H46.125C46.7466 18 47.25 18.5034 47.25 19.125V31.5H49.5C50.1216 31.5 50.625 32.0034 50.625 32.625V34.875ZM85.5 0H4.5C2.01516 0 0 2.01516 0 4.5V49.5C0 51.9848 2.01516 54 4.5 54H85.5C87.9848 54 90 51.9848 90 49.5V4.5C90 2.01516 87.9848 0 85.5 0ZM83.25 38.25C78.2789 38.25 74.25 42.2789 74.25 47.25H15.75C15.75 42.2789 11.7211 38.25 6.75 38.25V15.75C11.7211 15.75 15.75 11.7211 15.75 6.75H74.25C74.25 11.7211 78.2789 15.75 83.25 15.75V38.25Z" fill="#5C40CA"/>
</svg>
