<svg width="509" height="572" viewBox="0 0 509 572" fill="none" xmlns="http://www.w3.org/2000/svg">
<path d="M245.474 572C355.85 572 445.328 554.126 445.328 532.078C445.328 510.029 355.85 492.156 245.474 492.156C135.097 492.156 45.6192 510.029 45.6192 532.078C45.6192 554.126 135.097 572 245.474 572Z" fill="#5C40CA"/>
<path opacity="0.5" d="M245.474 572C355.85 572 445.328 554.126 445.328 532.078C445.328 510.029 355.85 492.156 245.474 492.156C135.097 492.156 45.6192 510.029 45.6192 532.078C45.6192 554.126 135.097 572 245.474 572Z" fill="white"/>
<path d="M457.64 1H313.54C308.618 1 304.627 4.98589 304.627 9.90273V168.572C304.627 173.489 308.618 177.475 313.54 177.475H457.64C462.563 177.475 466.553 173.489 466.553 168.572V9.90273C466.553 4.98589 462.563 1 457.64 1Z" fill="white" stroke="#263238" stroke-linecap="round" stroke-linejoin="round"/>
<path d="M313.54 1.00011H457.626C459.978 1.00011 462.234 1.93341 463.897 3.59468C465.56 5.25596 466.494 7.50914 466.494 9.85854V19.1008H304.627V9.90284C304.621 8.73207 304.848 7.57176 305.294 6.48898C305.74 5.4062 306.396 4.42244 307.225 3.59457C308.054 2.76671 309.038 2.11116 310.122 1.66584C311.206 1.22051 312.368 0.994243 313.54 1.00011Z" fill="#263238" stroke="#263238" stroke-linecap="round" stroke-linejoin="round"/>
<path d="M313.452 95.2246H378.606" stroke="#263238" stroke-linecap="round" stroke-linejoin="round"/>
<path d="M313.452 103.625H378.606" stroke="#263238" stroke-linecap="round" stroke-linejoin="round"/>
<path d="M313.452 112.026H378.606" stroke="#263238" stroke-linecap="round" stroke-linejoin="round"/>
<path d="M313.452 120.426H378.606" stroke="#263238" stroke-linecap="round" stroke-linejoin="round"/>
<path d="M313.452 128.827H378.606" stroke="#263238" stroke-linecap="round" stroke-linejoin="round"/>
<path d="M313.452 137.243H378.606" stroke="#263238" stroke-linecap="round" stroke-linejoin="round"/>
<path d="M313.452 145.644H378.606" stroke="#263238" stroke-linecap="round" stroke-linejoin="round"/>
<path d="M313.452 154.044H378.606" stroke="#263238" stroke-linecap="round" stroke-linejoin="round"/>
<path d="M313.452 162.445H378.606" stroke="#263238" stroke-linecap="round" stroke-linejoin="round"/>
<path d="M390.062 95.2246H455.216" stroke="#263238" stroke-linecap="round" stroke-linejoin="round"/>
<path d="M390.062 103.625H455.216" stroke="#263238" stroke-linecap="round" stroke-linejoin="round"/>
<path d="M390.062 112.026H455.216" stroke="#263238" stroke-linecap="round" stroke-linejoin="round"/>
<path d="M390.062 120.426H455.216" stroke="#263238" stroke-linecap="round" stroke-linejoin="round"/>
<path d="M390.062 128.827H455.216" stroke="#263238" stroke-linecap="round" stroke-linejoin="round"/>
<path d="M390.062 137.243H455.216" stroke="#263238" stroke-linecap="round" stroke-linejoin="round"/>
<path d="M390.062 145.644H455.216" stroke="#263238" stroke-linecap="round" stroke-linejoin="round"/>
<path d="M390.062 154.044H455.216" stroke="#263238" stroke-linecap="round" stroke-linejoin="round"/>
<path d="M390.062 162.445H455.216" stroke="#263238" stroke-linecap="round" stroke-linejoin="round"/>
<path d="M357.026 42.0292C357.347 41.0316 357.517 39.9914 357.529 38.9435C357.529 35.1196 353.641 34.8982 349.828 34.8982H348.867V33.9976H365.51V34.8982C361.179 34.8982 359.598 37.659 358.253 41.7487L349.384 68.1911C348.719 70.1547 348.157 71.6164 346.073 71.6164H345.896L338.091 46.3551L330.834 68.2502C330.154 70.2138 329.592 71.6754 327.508 71.6754H327.346L315.994 34.8982H312.003V33.9976H326.607V34.8982H322.453L330.878 63.8652H331.218L337.574 44.6277L334.618 34.972H330.627V33.9976H345.246V34.8982H341.092L349.517 63.8652H349.842L357.026 42.0292Z" fill="#5C40CA"/>
<path d="M455.675 25.6265H388.628V86.1591H455.675V25.6265Z" fill="#7963CD" stroke="#263238" stroke-width="2" stroke-linecap="round" stroke-linejoin="round"/>
<path d="M455.675 50.9321C453.426 51.0601 451.192 51.3712 448.994 51.8623C438.809 54.0769 436.149 68.6785 424.634 68.6785C414.436 68.6785 413.563 54.9627 398.945 53.191C395.388 52.6315 391.746 53.2759 388.598 55.0218V86.1592H455.675V50.9321Z" fill="#263238" stroke="#263238" stroke-linecap="round" stroke-linejoin="round"/>
<path d="M410.903 39.4754C410.906 40.9659 410.466 42.4237 409.639 43.6642C408.811 44.9047 407.634 45.8721 406.256 46.4438C404.878 47.0155 403.361 47.1659 401.898 46.8758C400.434 46.5858 399.089 45.8683 398.034 44.8144C396.979 43.7605 396.261 42.4175 395.97 40.9555C395.68 39.4935 395.831 37.9783 396.403 36.6018C396.975 35.2254 397.944 34.0495 399.186 33.2233C400.428 32.397 401.887 31.9575 403.379 31.9605C405.375 31.9605 407.288 32.7522 408.699 34.1615C410.11 35.5709 410.903 37.4823 410.903 39.4754Z" fill="white" stroke="#263238" stroke-linecap="round" stroke-linejoin="round"/>
<path d="M458.734 6.30029H309.49V12.0435H458.734V6.30029Z" fill="white" stroke="#263238" stroke-linecap="round" stroke-linejoin="round"/>
<path d="M449.422 212.687H384.814C382.274 212.687 379.838 213.695 378.042 215.489C376.245 217.283 375.236 219.717 375.236 222.254V256.772C375.236 259.31 376.245 261.743 378.042 263.537C379.838 265.332 382.274 266.34 384.814 266.34H386.795C384.785 270.769 380.883 277.56 374.719 281.591C374.719 281.591 387.83 280.675 401.487 266.34H449.393C451.933 266.34 454.369 265.332 456.165 263.537C457.962 261.743 458.971 259.31 458.971 256.772V222.254C458.971 219.722 457.966 217.293 456.176 215.5C454.386 213.706 451.957 212.695 449.422 212.687Z" fill="#263238" stroke="#263238" stroke-linecap="round" stroke-linejoin="round"/>
<path d="M406.01 238.288C406.013 237.312 405.726 236.356 405.185 235.543C404.643 234.73 403.872 234.096 402.97 233.72C402.067 233.345 401.073 233.247 400.114 233.436C399.155 233.626 398.274 234.096 397.583 234.787C396.891 235.477 396.421 236.357 396.231 237.315C396.041 238.273 396.14 239.266 396.515 240.167C396.891 241.069 397.526 241.839 398.34 242.38C399.154 242.92 400.111 243.208 401.088 243.205C402.393 243.201 403.642 242.682 404.564 241.76C405.487 240.839 406.006 239.591 406.01 238.288Z" fill="#FFBC58" stroke="#263238" stroke-linecap="round" stroke-linejoin="round"/>
<path d="M422.757 238.288C422.757 237.316 422.469 236.365 421.928 235.557C421.387 234.748 420.618 234.118 419.719 233.746C418.819 233.374 417.83 233.276 416.875 233.466C415.92 233.656 415.043 234.124 414.355 234.812C413.666 235.499 413.198 236.375 413.008 237.329C412.818 238.283 412.915 239.271 413.288 240.169C413.66 241.068 414.291 241.836 415.101 242.376C415.91 242.916 416.862 243.204 417.835 243.204C419.139 243.201 420.389 242.681 421.311 241.76C422.234 240.839 422.753 239.591 422.757 238.288Z" fill="#FFBC58" stroke="#263238" stroke-linecap="round" stroke-linejoin="round"/>
<path d="M439.519 238.288C439.522 237.312 439.235 236.357 438.694 235.544C438.153 234.731 437.383 234.097 436.482 233.721C435.58 233.346 434.587 233.246 433.628 233.435C432.669 233.623 431.788 234.092 431.096 234.781C430.405 235.47 429.933 236.349 429.741 237.306C429.55 238.262 429.646 239.255 430.02 240.157C430.393 241.059 431.026 241.83 431.838 242.372C432.65 242.915 433.605 243.204 434.582 243.204C435.888 243.2 437.139 242.682 438.063 241.761C438.988 240.84 439.511 239.592 439.519 238.288Z" fill="#FFBC58" stroke="#263238" stroke-linecap="round" stroke-linejoin="round"/>
<path d="M94.1305 21.9355H200.554C203.086 21.9355 205.515 22.9404 207.306 24.729C209.097 26.5177 210.103 28.9436 210.103 31.4731V105.161H84.6263V31.4731C84.6263 28.9513 85.6262 26.532 87.4073 24.7447C89.1884 22.9573 91.6058 21.9473 94.1305 21.9355Z" fill="#7963CD" stroke="#263238" stroke-linecap="round" stroke-linejoin="round"/>
<path d="M210.043 93.2754H84.6263V105.116H210.043V93.2754Z" fill="#263238" stroke="#263238" stroke-linecap="round" stroke-linejoin="round"/>
<path d="M204.308 97.3208H90.3761V101.071H204.308V97.3208Z" fill="white" stroke="#263238" stroke-linecap="round" stroke-linejoin="round"/>
<path d="M147.342 77.0054C156.91 77.0054 164.666 69.2584 164.666 59.7019C164.666 50.1455 156.91 42.3984 147.342 42.3984C137.775 42.3984 130.019 50.1455 130.019 59.7019C130.019 69.2584 137.775 77.0054 147.342 77.0054Z" fill="#263238" stroke="#263238" stroke-linecap="round" stroke-linejoin="round"/>
<path d="M139.523 48.939L158.221 59.7167L139.523 70.4945V48.939Z" fill="white" stroke="#263238" stroke-linecap="round" stroke-linejoin="round"/>
<path d="M155.797 135.427H36.7653C34.4632 135.427 32.597 137.291 32.597 139.59V184.901C32.597 187.201 34.4632 189.065 36.7653 189.065H155.797C158.099 189.065 159.965 187.201 159.965 184.901V139.59C159.965 137.291 158.099 135.427 155.797 135.427Z" fill="#263238" stroke="#263238" stroke-linecap="round" stroke-linejoin="round"/>
<path d="M47.7623 142.735L48.3832 143.768C45.5748 145.333 42.9585 148.079 42.9585 151.298C42.9226 151.851 42.9975 152.405 43.1788 152.929C43.3602 153.453 43.6443 153.935 44.0146 154.347C44.3849 154.76 44.8339 155.094 45.3353 155.331C45.8367 155.568 46.3805 155.703 46.9346 155.727C47.3485 155.727 47.6293 155.521 47.6293 155.107C47.6293 154.694 47.4224 154.561 47.0085 154.487C46.4504 154.336 45.9642 153.992 45.6366 153.516C45.309 153.04 45.1613 152.463 45.22 151.889C45.2308 151.43 45.3348 150.979 45.5257 150.562C45.7166 150.145 45.9905 149.771 46.3306 149.463C46.6707 149.155 47.07 148.919 47.5042 148.77C47.9384 148.621 48.3983 148.562 48.8561 148.596C49.3542 148.598 49.8468 148.699 50.3048 148.895C50.7629 149.09 51.1772 149.375 51.5231 149.733C51.869 150.091 52.1395 150.514 52.3187 150.978C52.4978 151.442 52.582 151.938 52.5662 152.435C52.5589 153.06 52.4257 153.677 52.1745 154.249C51.9232 154.821 51.5591 155.337 51.1038 155.766C50.6485 156.194 50.1114 156.527 49.5246 156.743C48.9378 156.96 48.3133 157.056 47.6884 157.026C46.9116 157.077 46.1328 156.963 45.4026 156.694C44.6724 156.424 44.007 156.004 43.4496 155.462C42.8922 154.919 42.4552 154.265 42.1669 153.543C41.8786 152.82 41.7454 152.045 41.776 151.268C41.7317 147.533 44.614 144.521 47.7623 142.735ZM60.4593 142.735L61.0801 143.768C58.2569 145.333 55.6554 148.079 55.6554 151.298C55.6174 151.851 55.6909 152.407 55.8715 152.931C56.0521 153.456 56.3361 153.939 56.7068 154.352C57.0775 154.764 57.5273 155.099 58.0297 155.335C58.532 155.572 59.0767 155.705 59.6315 155.727C60.0454 155.727 60.3262 155.521 60.3262 155.107C60.3262 154.694 60.1193 154.561 59.7054 154.487C59.1473 154.336 58.6611 153.992 58.3335 153.516C58.0059 153.04 57.8582 152.463 57.9169 151.889C57.9256 151.429 58.0281 150.977 58.2184 150.559C58.4086 150.141 58.6824 149.766 59.023 149.458C59.3636 149.149 59.7637 148.914 60.1988 148.766C60.6339 148.618 61.0948 148.56 61.5531 148.596C62.0511 148.598 62.5437 148.699 63.0018 148.895C63.4598 149.09 63.8741 149.375 64.22 149.733C64.5659 150.091 64.8364 150.514 65.0156 150.978C65.1947 151.442 65.2789 151.938 65.2631 152.435C65.2538 153.059 65.1192 153.675 64.8673 154.246C64.6153 154.818 64.2511 155.333 63.7963 155.761C63.3414 156.189 62.8051 156.522 62.2193 156.739C61.6334 156.956 61.0097 157.054 60.3853 157.026C59.609 157.074 58.8312 156.959 58.1021 156.689C57.3729 156.419 56.7085 155.999 56.1516 155.456C55.5947 154.914 55.1576 154.261 54.8685 153.54C54.5794 152.819 54.4446 152.045 54.4729 151.268C54.4138 147.533 57.2961 144.521 60.4593 142.735Z" fill="#FFBC58"/>
<path d="M72.6093 153.661H145.096" stroke="white" stroke-linecap="round" stroke-linejoin="round"/>
<path d="M72.6093 159.876H145.096" stroke="white" stroke-linecap="round" stroke-linejoin="round"/>
<path d="M72.6093 166.092H145.096" stroke="white" stroke-linecap="round" stroke-linejoin="round"/>
<path d="M72.6093 172.322H145.096" stroke="white" stroke-linecap="round" stroke-linejoin="round"/>
<path d="M132.27 272.23C147.232 269.791 157.381 255.699 154.939 240.755C152.497 225.81 138.388 215.673 123.427 218.112C108.466 220.551 98.3168 234.643 100.759 249.588C103.201 264.532 117.309 274.669 132.27 272.23Z" fill="#263238" stroke="#263238" stroke-linecap="round" stroke-linejoin="round"/>
<path d="M145.259 260.469C153.7 250.868 152.751 236.25 143.139 227.819C133.528 219.388 118.893 220.335 110.452 229.936C102.011 239.537 102.96 254.154 112.572 262.586C122.183 271.017 136.818 270.069 145.259 260.469Z" fill="white" stroke="#263238" stroke-linecap="round" stroke-linejoin="round"/>
<path d="M127.861 228.44V245.168H139.183" stroke="#263238" stroke-width="2" stroke-linecap="round" stroke-linejoin="round"/>
<path d="M299.587 245.227C299.587 245.227 315.329 278.786 315.329 280.557C315.329 282.329 301.361 289.918 298.7 291.512C296.636 292.687 294.51 293.746 292.329 294.687L293.926 310.233C293.926 310.233 317.975 304.756 328.055 299.278C338.136 293.801 337.781 287.615 335.446 278.431C333.11 269.248 317.575 233.755 317.575 233.755L299.587 245.227Z" fill="white"/>
<g style="mix-blend-mode:multiply" opacity="0.5">
<path d="M328.011 299.278C338.092 293.801 337.737 287.615 335.401 278.431C333.066 269.248 317.531 233.755 317.531 233.755L315.018 235.35L314.22 236.826C314.22 236.826 328.72 272.378 329.592 284.219C330.184 292.177 314.146 302.098 303.548 307.768C311.412 305.686 322.113 302.482 328.011 299.278Z" fill="#5C40CA"/>
</g>
<path d="M299.587 245.227C299.587 245.227 315.329 278.786 315.329 280.557C315.329 282.329 301.361 289.918 298.7 291.512C296.636 292.687 294.51 293.746 292.329 294.687L293.926 310.233C293.926 310.233 317.975 304.756 328.055 299.278C338.136 293.801 337.781 287.615 335.446 278.431C333.11 269.248 317.575 233.755 317.575 233.755L299.587 245.227Z" stroke="#263238" stroke-linecap="round" stroke-linejoin="round"/>
<path d="M186.009 237.816C186.009 237.816 174.525 279.849 174.185 287.275C173.845 294.702 196.992 309.348 197.834 310.234C198.677 311.119 196.519 284.692 196.519 284.692L204.367 246.305L186.009 237.816Z" fill="white"/>
<g style="mix-blend-mode:multiply" opacity="0.5">
<path d="M191.271 241.256L191.02 240.119L186.009 237.816C186.009 237.816 174.525 279.849 174.185 287.276C173.845 294.702 196.992 309.348 197.834 310.234C198.174 310.588 198.041 306.631 197.76 301.744C190.872 295.912 180.984 287.704 179.831 284.249" fill="#5C40CA"/>
</g>
<path d="M186.009 237.816C186.009 237.816 174.525 279.849 174.185 287.275C173.845 294.702 196.992 309.348 197.834 310.234C198.677 311.119 196.519 284.692 196.519 284.692L204.367 246.305L186.009 237.816Z" stroke="#263238" stroke-linecap="round" stroke-linejoin="round"/>
<path d="M239.945 195.59C239.945 195.59 235.511 198.78 226.864 199.134C218.217 199.488 217.803 193.228 207.058 193.228C194.036 193.228 177.702 234.376 177.702 234.376C177.702 234.376 185.832 242.333 193.799 245.685C198.206 247.613 202.84 248.978 207.59 249.745L208.831 276.778H296.542L297.591 249.745L325.01 231.984C325.01 231.984 311.56 207.963 305.026 198.957C298.493 189.951 287.511 193.302 284.156 195.59C280.8 197.879 270.853 198.425 267.187 197.894C262.405 196.837 257.679 195.541 253.027 194.011C253.027 194.011 247.38 189.316 239.945 195.59Z" fill="#7963CD" stroke="#263238" stroke-linecap="round" stroke-linejoin="round"/>
<path d="M208.477 205.128L208.122 249.996" stroke="#263238" stroke-width="0.5" stroke-linecap="round" stroke-linejoin="round"/>
<path d="M211.654 209.203C211.654 209.203 212.896 231.098 217.567 243.293" stroke="#263238" stroke-width="0.5" stroke-linecap="round" stroke-linejoin="round"/>
<path d="M218.38 245.05C219.389 248.026 220.629 250.919 222.09 253.702" stroke="#263238" stroke-width="0.5" stroke-linecap="round" stroke-linejoin="round"/>
<path d="M214.478 206.723C216.156 214.684 218.525 222.484 221.558 230.035" stroke="#263238" stroke-width="0.5" stroke-linecap="round" stroke-linejoin="round"/>
<path d="M290.718 210.605C290.718 210.605 286.476 227.924 282.751 235.704" stroke="#263238" stroke-width="0.5" stroke-linecap="round" stroke-linejoin="round"/>
<path d="M297.591 249.819L297.414 214.843" stroke="#263238" stroke-width="0.5" stroke-linecap="round" stroke-linejoin="round"/>
<path d="M295.655 215.552C295.655 215.552 292.462 237.698 284.688 249.288" stroke="#263238" stroke-width="0.5" stroke-linecap="round" stroke-linejoin="round"/>
<path d="M291.768 244.873C291.768 244.873 288.22 251.591 285.752 255.119" stroke="#263238" stroke-width="0.5" stroke-linecap="round" stroke-linejoin="round"/>
<path d="M234.994 198.248C234.994 198.248 237.477 213.44 241.01 221.206C244.542 228.972 250.736 230.567 256.042 228.278C261.348 225.99 265.236 214.666 264.911 200.226" stroke="#263238" stroke-width="0.5" stroke-linecap="round" stroke-linejoin="round"/>
<path d="M222.445 166.446C222.445 166.446 219.075 160.629 216.429 163.627C213.783 166.624 218.557 173.518 221.203 175.807C223.849 178.095 225.8 176.693 225.637 174.227C225.475 171.762 222.445 166.446 222.445 166.446Z" fill="#5C40CA" stroke="#263238" stroke-linecap="round" stroke-linejoin="round"/>
<path opacity="0.5" d="M222.445 166.446C222.445 166.446 219.075 160.629 216.429 163.627C213.783 166.624 218.557 173.518 221.203 175.807C223.849 178.095 225.8 176.693 225.637 174.227C225.475 171.762 222.445 166.446 222.445 166.446Z" fill="white"/>
<path d="M222.445 166.446C222.445 166.446 219.075 160.629 216.429 163.627C213.783 166.624 218.557 173.518 221.203 175.807C223.849 178.095 225.8 176.693 225.637 174.227C225.475 171.762 222.445 166.446 222.445 166.446Z" stroke="#263238" stroke-linecap="round" stroke-linejoin="round"/>
<path d="M275.937 166.446C275.937 166.446 279.293 160.629 281.953 163.627C284.614 166.624 279.825 173.518 277.179 175.807C274.533 178.095 272.567 176.693 272.745 174.227C272.922 171.762 275.937 166.446 275.937 166.446Z" fill="#5C40CA" stroke="#263238" stroke-linecap="round" stroke-linejoin="round"/>
<path opacity="0.5" d="M275.937 166.446C275.937 166.446 279.293 160.629 281.953 163.627C284.614 166.624 279.825 173.518 277.179 175.807C274.533 178.095 272.567 176.693 272.745 174.227C272.922 171.762 275.937 166.446 275.937 166.446Z" fill="white"/>
<path d="M275.937 166.446C275.937 166.446 279.293 160.629 281.953 163.627C284.614 166.624 279.825 173.518 277.179 175.807C274.533 178.095 272.567 176.693 272.745 174.227C272.922 171.762 275.937 166.446 275.937 166.446Z" stroke="#263238" stroke-linecap="round" stroke-linejoin="round"/>
<path d="M238.349 194.365C240.019 201.904 242.146 209.334 244.72 216.615C247.912 224.558 253.913 224.558 256.397 219.435C258.88 214.311 260.461 195.222 260.461 195.222C260.461 195.222 243.833 197.54 238.349 194.365Z" fill="white" stroke="#263238" stroke-linecap="round" stroke-linejoin="round"/>
<path d="M222.799 168.395C222.799 168.395 227.396 184.636 236.102 194.188C244.808 203.74 247.927 205.999 252.554 205.305C257.18 204.611 262.102 198.602 268.99 186.112C275.878 173.622 276.381 164.04 276.957 163.154C277.534 162.268 275.479 144.61 265.635 137.007C255.791 129.403 244.764 126.067 235.215 134.364C225.667 142.661 219.607 156.2 222.799 168.395Z" fill="white"/>
<g style="mix-blend-mode:multiply" opacity="0.5">
<path d="M265.591 136.948C255.687 129.359 244.72 126.008 235.171 134.305C225.623 142.602 219.607 156.2 222.799 168.395C222.799 168.395 223.672 171.525 225.401 175.777C225.396 175.233 225.471 174.691 225.623 174.168C227.736 167.48 233.974 154.532 254.963 160.467C271.636 165.162 269.596 179.808 268.044 187.618L268.946 185.994C275.849 173.459 276.336 163.922 276.913 163.036C277.489 162.15 275.494 144.551 265.591 136.948Z" fill="#5C40CA"/>
</g>
<path d="M222.799 168.395C222.799 168.395 227.396 184.636 236.102 194.188C244.808 203.74 247.927 205.999 252.554 205.305C257.18 204.611 262.102 198.602 268.99 186.112C275.878 173.622 276.381 164.04 276.957 163.154C277.534 162.268 275.479 144.61 265.635 137.007C255.791 129.403 244.764 126.067 235.215 134.364C225.667 142.661 219.607 156.2 222.799 168.395Z" stroke="#263238" stroke-linecap="round" stroke-linejoin="round"/>
<path d="M252.509 176.87C251.961 180.318 251.665 183.802 251.622 187.293C251.8 190.822 252.864 191.885 251.268 192.239C249.671 192.593 247.912 190.113 247.912 190.113" stroke="#263238" stroke-linecap="round" stroke-linejoin="round"/>
<path d="M234.816 179.705C235.841 180.444 237.065 180.857 238.329 180.888C239.593 180.92 240.836 180.569 241.897 179.882" stroke="#263238" stroke-linecap="round" stroke-linejoin="round"/>
<path d="M257.284 179.705C258.306 180.443 259.528 180.855 260.789 180.886C262.05 180.918 263.291 180.568 264.349 179.882" stroke="#263238" stroke-linecap="round" stroke-linejoin="round"/>
<path d="M246.109 173.754C246.109 173.754 242.739 165.442 231.609 169.325" stroke="#263238" stroke-linecap="round" stroke-linejoin="round"/>
<path d="M255.377 172.736C255.377 172.736 258.2 164.601 268.281 169.369" stroke="#263238" stroke-linecap="round" stroke-linejoin="round"/>
<path d="M248.252 180.31C248.252 184.857 243.035 188.533 236.59 188.533C230.146 188.533 224.913 184.857 224.913 180.31C224.913 175.762 229.791 173.873 236.235 173.873C242.68 173.873 248.252 175.777 248.252 180.31Z" stroke="#263238" stroke-linecap="round" stroke-linejoin="round"/>
<path d="M275.139 180.31C275.139 184.857 269.907 188.533 263.462 188.533C257.018 188.533 251.8 184.857 251.8 180.31C251.8 175.762 256.663 173.873 263.107 173.873C269.552 173.873 275.139 175.777 275.139 180.31Z" stroke="#263238" stroke-linecap="round" stroke-linejoin="round"/>
<path d="M126.102 321.941L125.378 500.926C125.378 501.49 125.602 502.031 126.001 502.429C126.4 502.828 126.942 503.052 127.506 503.052C128.057 503.052 128.585 502.838 128.98 502.455C129.375 502.071 129.604 501.549 129.62 501L134.734 322.192L126.102 321.941Z" fill="white" stroke="#263238" stroke-linecap="round" stroke-linejoin="round"/>
<path d="M114.041 363.783L113.346 548.821C113.344 549.1 113.398 549.378 113.504 549.637C113.61 549.895 113.767 550.13 113.965 550.328C114.163 550.526 114.398 550.683 114.657 550.789C114.917 550.895 115.194 550.949 115.474 550.947C116.024 550.947 116.552 550.735 116.949 550.356C117.346 549.976 117.58 549.458 117.603 548.909L122.702 364.019L114.041 363.783Z" fill="white" stroke="#263238" stroke-linecap="round" stroke-linejoin="round"/>
<path d="M373.832 321.941L374.556 500.926C374.558 501.205 374.505 501.481 374.4 501.739C374.294 501.996 374.139 502.231 373.942 502.428C373.746 502.626 373.512 502.783 373.255 502.89C372.998 502.997 372.721 503.052 372.443 503.052C371.891 503.052 371.36 502.839 370.963 502.456C370.566 502.073 370.333 501.551 370.314 501L365.215 322.192L373.832 321.941Z" fill="white" stroke="#263238" stroke-linecap="round" stroke-linejoin="round"/>
<path d="M385.908 363.783L386.632 548.821C386.634 549.1 386.581 549.378 386.474 549.637C386.368 549.895 386.211 550.13 386.013 550.328C385.815 550.526 385.58 550.683 385.321 550.789C385.062 550.895 384.784 550.949 384.504 550.947C383.956 550.947 383.429 550.735 383.035 550.355C382.641 549.974 382.409 549.456 382.39 548.909L377.276 364.019L385.908 363.783Z" fill="white" stroke="#263238" stroke-linecap="round" stroke-linejoin="round"/>
<path d="M198.026 371.475L197.598 535.71C197.551 536.12 197.665 536.532 197.916 536.859C198.167 537.187 198.535 537.405 198.943 537.467C199.341 537.412 199.704 537.207 199.956 536.894C200.209 536.582 200.333 536.184 200.303 535.784L203.51 371.667L198.026 371.475Z" fill="white" stroke="#263238" stroke-linecap="round" stroke-linejoin="round"/>
<path d="M302.1 366.189L302.499 509.518C302.533 509.865 302.432 510.212 302.218 510.487C302.003 510.762 301.691 510.943 301.346 510.995C301.002 510.943 300.691 510.761 300.479 510.486C300.267 510.21 300.17 509.864 300.208 509.518L297.473 366.307L302.1 366.189Z" fill="white" stroke="#263238" stroke-linecap="round" stroke-linejoin="round"/>
<path d="M196.415 366.189L196.814 509.518C196.849 509.865 196.748 510.212 196.533 510.487C196.319 510.762 196.007 510.943 195.661 510.995C195.317 510.943 195.007 510.761 194.794 510.486C194.582 510.21 194.485 509.864 194.523 509.518L191.789 366.307L196.415 366.189Z" fill="white" stroke="#263238" stroke-linecap="round" stroke-linejoin="round"/>
<path d="M299.129 371.475L299.587 535.71C299.634 536.12 299.52 536.532 299.269 536.859C299.018 537.187 298.65 537.405 298.242 537.467C297.845 537.408 297.485 537.203 297.233 536.891C296.981 536.579 296.855 536.184 296.882 535.784L293.674 371.667L299.129 371.475Z" fill="white" stroke="#263238" stroke-linecap="round" stroke-linejoin="round"/>
<path d="M247.853 382.976C284.18 382.976 313.629 376.254 313.629 367.961C313.629 359.669 284.18 352.946 247.853 352.946C211.526 352.946 182.078 359.669 182.078 367.961C182.078 376.254 211.526 382.976 247.853 382.976Z" fill="white" stroke="#263238" stroke-linecap="round" stroke-linejoin="round"/>
<path d="M215.823 495.419C215.823 495.419 212.379 500.35 214.847 502.801C217.316 505.252 219.769 504.277 219.518 506.743C219.267 509.209 215.335 517.565 211.891 526.423C208.447 535.282 215.586 544.14 222.238 541.69C228.889 539.239 228.15 514.612 229.126 510.183C230.101 505.754 230.855 505.016 230.604 500.837C230.353 496.659 230.116 492.23 226.909 491.728C223.701 491.226 217.301 493.706 215.823 495.419Z" fill="white" stroke="#263238" stroke-linecap="round" stroke-linejoin="round"/>
<path d="M226.391 534.898C221.957 533.215 215.158 533.555 211.329 533.939C212.615 539.505 217.537 543.417 222.238 541.69C224.204 540.966 225.49 538.338 226.391 534.898Z" fill="#FFBC58" stroke="#263238" stroke-linecap="round" stroke-linejoin="round"/>
<path d="M208.196 484.597C208.196 484.597 215.335 496.659 217.301 499.848C219.267 503.037 225.933 502.063 226.672 497.633C227.411 493.204 223.952 480.906 223.952 480.906L209.171 484.597H208.196Z" fill="white" stroke="#263238" stroke-linecap="round" stroke-linejoin="round"/>
<path d="M191.198 465.404C191.198 465.404 189.217 468.608 190.207 470.822C191.198 473.037 193.902 479.43 195.632 482.634C197.361 485.837 205.24 487.801 214.345 486.325C223.45 484.848 228.638 480.655 228.889 476.964C229.14 473.273 227.411 468.357 226.169 462.451C224.928 456.545 221.735 456.796 217.301 456.796C212.867 456.796 194.893 461.964 191.198 465.404Z" fill="#FFBC58" stroke="#263238" stroke-linecap="round" stroke-linejoin="round"/>
<path d="M217.803 393.06C217.936 387.007 221.44 384.025 221.706 379.876C222.123 374.391 221.669 368.875 220.361 363.532L213.62 354.334C194.228 354.585 180.334 354.91 180.112 354.984C179.373 355.22 178.87 359.413 178.382 362.853C178.382 362.853 170.149 363.901 171.627 386.785C171.834 389.974 180.141 426.87 180.747 431.078C184.443 456.782 192.676 469.656 192.676 469.656C192.676 469.656 193.415 472.86 203.022 472.122C212.63 471.383 222.238 464.991 222.238 464.991C222.238 464.991 217.301 414.955 217.803 393.06Z" fill="#263238" stroke="#263238" stroke-linecap="round" stroke-linejoin="round"/>
<path d="M177.052 359.103C177.052 359.103 166.868 360.579 160.63 367.695C154.393 374.812 159.684 379.506 171.805 378.237C183.925 376.967 197.908 364.58 198.499 363.916C199.091 363.251 185.862 354.836 177.052 359.103Z" fill="white" stroke="#263238" stroke-linecap="round" stroke-linejoin="round"/>
<path d="M195.129 363.532C201.618 363.865 208.056 364.855 214.345 366.485C222.725 368.95 237.507 373.867 240.951 373.867C244.394 373.867 243.419 361.066 243.419 358.615C243.419 356.165 199.076 354.673 193.651 354.673C188.227 354.673 195.129 363.532 195.129 363.532Z" fill="white" stroke="#263238" stroke-linecap="round" stroke-linejoin="round"/>
<path d="M243.419 358.615C243.419 358.615 239.472 360.579 237.994 367.961C236.516 375.343 234.55 379.285 237.507 381.248C240.463 383.212 253.278 384.688 255.244 382.725C257.21 380.761 262.634 370.913 263.625 364.521C264.615 358.128 243.419 358.615 243.419 358.615Z" fill="#FFBC58" stroke="#263238" stroke-linecap="round" stroke-linejoin="round"/>
<path d="M260.166 361.066C257.875 363.693 256.046 366.688 254.756 369.925C253.711 373.313 252.887 376.765 252.288 380.26C257.003 381.551 261.614 383.199 266.078 385.191C273.971 388.631 287.274 391.096 300.075 394.049C312.875 397.002 316.334 399.955 320.768 399.955C325.202 399.955 330.627 396.5 337.53 388.144C344.433 379.787 338.505 362.055 331.617 356.637C324.729 351.219 287.762 346.804 282.84 348.281C277.918 349.757 260.166 361.066 260.166 361.066Z" fill="#263238" stroke="#263238" stroke-linecap="round" stroke-linejoin="round"/>
<path d="M167.725 378.37C166.752 373.953 164.78 369.817 161.961 366.278C161.502 366.706 161.059 367.149 160.63 367.636C155.147 373.867 158.576 378.296 167.725 378.37Z" fill="#FFBC58" stroke="#263238" stroke-linecap="round" stroke-linejoin="round"/>
<path d="M217.05 382.267C217.05 382.267 211.965 436.614 201.589 445.073" stroke="white" stroke-width="0.5" stroke-linecap="round" stroke-linejoin="round"/>
<path d="M213.458 433.853C213.458 433.853 209.423 451.57 198.839 458.612" stroke="white" stroke-width="0.5" stroke-linecap="round" stroke-linejoin="round"/>
<path d="M278.893 372.39C278.893 372.39 263.122 373.379 273.469 380.259C283.816 387.139 302.543 391.583 302.543 391.583" stroke="white" stroke-width="0.5" stroke-linecap="round" stroke-linejoin="round"/>
<path d="M393.387 353.773L388.066 348.989L375.768 322.414C375.185 321.205 374.269 320.187 373.128 319.478C371.987 318.77 370.667 318.4 369.324 318.413H130.462C129.116 318.398 127.794 318.766 126.65 319.474C125.506 320.183 124.587 321.203 124.003 322.414L108.675 355.515L106.148 354.585V362.159L106.266 362.07C106.416 363.081 106.93 364.002 107.71 364.662C108.491 365.322 109.485 365.676 110.508 365.658H389.264C390.341 365.683 391.385 365.288 392.177 364.558C392.968 363.828 393.445 362.82 393.506 361.746L393.387 353.773Z" fill="#263238" stroke="#263238" stroke-linecap="round" stroke-linejoin="round"/>
<path d="M389.263 358.733H110.508C109.818 358.761 109.132 358.613 108.514 358.303C107.897 357.993 107.369 357.532 106.979 356.962C106.589 356.393 106.35 355.733 106.285 355.046C106.219 354.359 106.33 353.667 106.606 353.035L124.003 315.49C124.585 314.276 125.502 313.254 126.647 312.545C127.791 311.836 129.115 311.469 130.462 311.488H369.324C370.668 311.472 371.989 311.84 373.131 312.549C374.273 313.258 375.188 314.278 375.768 315.49L393.166 353.035C393.441 353.667 393.552 354.359 393.487 355.046C393.422 355.733 393.183 356.393 392.793 356.962C392.403 357.532 391.874 357.993 391.257 358.303C390.64 358.613 389.954 358.761 389.263 358.733Z" fill="white" stroke="#263238" stroke-linecap="round" stroke-linejoin="round"/>
<g style="mix-blend-mode:multiply" opacity="0.5">
<path d="M124.624 333.516C124.624 333.516 118.312 337.842 122.259 339.422C126.205 341.002 171.568 339.821 177.096 338.241C182.625 336.661 188.921 322.089 188.921 319.727C188.921 317.364 180.969 315.667 178.042 315.534C175.116 315.401 136.449 317.748 136.449 317.748L124.624 333.516Z" fill="#5C40CA"/>
</g>
<g style="mix-blend-mode:multiply" opacity="0.5">
<path d="M350.271 341.002C359.202 341.002 366.442 338.001 366.442 334.299C366.442 330.597 359.202 327.596 350.271 327.596C341.34 327.596 334.101 330.597 334.101 334.299C334.101 338.001 341.34 341.002 350.271 341.002Z" fill="#5C40CA"/>
</g>
<g style="mix-blend-mode:multiply" opacity="0.5">
<path d="M247.321 349.284C279.346 349.284 305.307 344.433 305.307 338.448C305.307 332.463 279.346 327.611 247.321 327.611C215.296 327.611 189.335 332.463 189.335 338.448C189.335 344.433 215.296 349.284 247.321 349.284Z" fill="#5C40CA"/>
</g>
<path d="M338.446 307.93C338.446 307.93 337.382 303.693 333.849 305.11C330.317 306.528 330.671 315.888 331.366 321.188C332.061 326.489 336.85 324.008 336.85 324.008V320.834C336.85 320.834 335.091 322.237 334.204 320.303C333.317 318.369 333.495 308.639 334.381 308.816C335.268 308.993 337.027 311.99 337.027 311.99C337.027 311.99 337.559 311.651 338.446 307.93Z" fill="#5C40CA" stroke="#263238" stroke-linecap="round" stroke-linejoin="round"/>
<path d="M335.904 308.639V331.848C335.904 334.58 342.186 336.794 349.946 336.794C357.706 336.794 363.973 334.58 363.973 331.848V308.639H335.904Z" fill="#5C40CA" stroke="#263238" stroke-linecap="round" stroke-linejoin="round"/>
<path d="M363.973 308.639C363.973 311.001 357.691 312.906 349.946 312.906C342.201 312.906 335.904 311.001 335.904 308.639C335.904 306.277 342.186 304.372 349.946 304.372C357.706 304.372 363.973 306.291 363.973 308.639Z" fill="white" stroke="#263238" stroke-linecap="round" stroke-linejoin="round"/>
<path d="M362.14 308.639C362.14 310.691 356.671 312.345 349.946 312.345C343.221 312.345 337.737 310.691 337.737 308.639C337.737 306.587 343.206 304.933 349.946 304.933C356.686 304.933 362.14 306.587 362.14 308.639Z" fill="white" stroke="#263238" stroke-linecap="round" stroke-linejoin="round"/>
<path d="M340.53 311.002C346.674 312.793 353.203 312.793 359.347 311.002C353.203 309.21 346.674 309.21 340.53 311.002Z" fill="#263238" stroke="#263238" stroke-linecap="round" stroke-linejoin="round"/>
<path d="M122.88 319.239L123.057 327.183L176.638 327.714V318.531L122.88 319.239Z" fill="white" stroke="#263238" stroke-linecap="round" stroke-linejoin="round"/>
<path d="M176.638 327.714L184.428 310.942V305.996L176.283 320.125L176.638 327.714Z" fill="white" stroke="#263238" stroke-linecap="round" stroke-linejoin="round"/>
<path d="M122.88 326.474L123.057 334.432L176.638 334.964V325.78L122.88 326.474Z" fill="white" stroke="#263238" stroke-linecap="round" stroke-linejoin="round"/>
<path d="M176.638 334.963L184.428 318.176V313.23L176.283 327.36L176.638 334.963Z" fill="white" stroke="#263238" stroke-linecap="round" stroke-linejoin="round"/>
<path d="M143.573 299.101C143.573 299.101 144.815 296.636 143.041 295.573C141.267 294.51 139.331 297.049 138.267 297.861C137.202 298.673 114.927 313.408 114.218 315.711C113.508 318.014 114.218 323.093 118.992 323.654C123.766 324.215 128.009 321.011 130.137 320.48C132.266 319.948 133.093 319.771 133.093 319.771L147.771 299.987L143.573 299.101Z" fill="white" stroke="#263238" stroke-linecap="round" stroke-linejoin="round"/>
<path d="M118.992 323.669C123.766 324.2 128.009 321.026 130.137 320.495C132.266 319.963 133.093 319.786 133.093 319.786L133.625 319.062L119.835 316.257C119.085 315.552 118.121 315.117 117.096 315.02C116.07 314.924 115.042 315.172 114.174 315.726C113.508 317.999 114.218 323.123 118.992 323.669Z" fill="white" stroke="#263238" stroke-linecap="round" stroke-linejoin="round"/>
<path d="M119.879 316.287H161.266C174.185 316.287 178.072 315.578 178.072 315.578L186.024 299.146C186.024 299.146 160.896 300.74 153.136 300.208C149.93 300.116 146.736 299.761 143.588 299.146L119.879 316.287Z" fill="white" stroke="#263238" stroke-linecap="round" stroke-linejoin="round"/>
<path d="M119.879 316.286L120.589 319.461C120.589 319.461 154.186 319.638 163.025 319.638C171.864 319.638 178.589 319.992 178.589 319.992L178.057 315.563L119.879 316.286Z" fill="white" stroke="#263238" stroke-linecap="round" stroke-linejoin="round"/>
<path d="M178.589 319.948L186.009 302.985V299.102L178.057 315.534L178.589 319.948Z" fill="white" stroke="#263238" stroke-linecap="round" stroke-linejoin="round"/>
<path d="M297.961 339.792H196.637C196.413 339.794 196.19 339.752 195.982 339.667C195.774 339.583 195.585 339.458 195.425 339.3C195.266 339.142 195.14 338.954 195.053 338.747C194.967 338.54 194.922 338.318 194.922 338.094C194.922 337.87 194.967 337.648 195.053 337.441C195.14 337.234 195.266 337.046 195.425 336.888C195.585 336.73 195.774 336.605 195.982 336.521C196.19 336.436 196.413 336.394 196.637 336.396H297.961C298.185 336.394 298.407 336.436 298.614 336.521C298.821 336.606 299.009 336.731 299.167 336.889C299.326 337.047 299.451 337.235 299.535 337.442C299.62 337.649 299.663 337.87 299.661 338.094C299.663 338.317 299.62 338.539 299.535 338.746C299.451 338.953 299.326 339.141 299.167 339.299C299.009 339.457 298.821 339.582 298.614 339.667C298.407 339.752 298.185 339.794 297.961 339.792Z" fill="white" stroke="#263238" stroke-linecap="round" stroke-linejoin="round"/>
<path d="M298.818 336.366H195.765C195.388 336.367 195.025 336.223 194.75 335.965C194.475 335.707 194.309 335.354 194.287 334.978L188.685 267.728C188.66 267.52 188.679 267.308 188.742 267.108C188.805 266.908 188.91 266.724 189.05 266.567C189.189 266.411 189.361 266.286 189.553 266.201C189.745 266.116 189.953 266.073 190.163 266.074H304.435C304.645 266.073 304.853 266.116 305.045 266.201C305.237 266.286 305.408 266.411 305.548 266.567C305.688 266.724 305.793 266.908 305.856 267.108C305.919 267.308 305.938 267.52 305.913 267.728L300.311 334.978C300.288 335.357 300.121 335.712 299.843 335.97C299.565 336.229 299.198 336.37 298.818 336.366Z" fill="white" stroke="#263238" stroke-linecap="round" stroke-linejoin="round"/>
<path d="M257.018 302.379C257.018 306.395 252.657 309.643 247.292 309.643C241.926 309.643 237.551 306.395 237.551 302.379C237.551 298.363 241.911 295.13 247.292 295.13C252.672 295.13 257.018 298.378 257.018 302.379Z" fill="white" stroke="#263238" stroke-linecap="round" stroke-linejoin="round"/>
<path d="M357.721 249.849C359.301 248.617 360.412 246.882 360.869 244.932C361.201 243.47 361.166 241.948 360.766 240.503" stroke="#263238" stroke-linecap="round" stroke-linejoin="round"/>
<path d="M345.925 302.497C345.925 302.497 355.755 296.591 352.547 289.844C349.34 283.097 338.491 278.624 338.491 268.112C338.491 259.046 348.143 255.695 354.439 252.063" stroke="#263238" stroke-linecap="round" stroke-linejoin="round"/>
<path d="M355.001 302.305C355.001 302.305 360.485 298.659 360.485 292.871C360.485 288.988 356.331 286.449 350.848 280.204" stroke="#263238" stroke-linecap="round" stroke-linejoin="round"/>
<path d="M347.817 276.424C347.817 276.424 344.226 273.604 346.871 268.304" stroke="#263238" stroke-linecap="round" stroke-linejoin="round"/>
<path d="M264.6 121.77C266.359 121.401 270.128 119.954 272.671 114.063C272.71 113.974 272.731 113.878 272.733 113.781C272.735 113.684 272.717 113.587 272.681 113.496C272.646 113.406 272.592 113.323 272.525 113.253C272.457 113.183 272.376 113.128 272.286 113.089C272.106 113.014 271.903 113.012 271.721 113.084C271.539 113.155 271.392 113.295 271.311 113.473C268.975 118.877 265.635 120.072 264.245 120.338C266.732 117.333 268.105 113.563 268.133 109.664C268.133 99.4175 258.629 91.1201 246.907 91.1201C235.186 91.1201 225.682 99.4175 225.682 109.664C225.69 113.405 226.937 117.039 229.229 119.999C226.997 119.881 223.228 120.825 218.454 126.391C218.317 126.532 218.241 126.72 218.241 126.916C218.241 127.111 218.317 127.299 218.454 127.44C218.591 127.553 218.763 127.616 218.942 127.617C219.049 127.617 219.155 127.593 219.252 127.547C219.35 127.501 219.435 127.434 219.503 127.351C225.608 120.25 229.643 121.445 230.456 121.77C229.076 122.529 227.782 123.434 226.598 124.472C219.784 130.599 215.631 142.189 216.163 151.845C216.761 158.249 219.085 164.371 222.888 169.562C227.837 166.024 231.941 161.436 234.905 156.126C237.114 152.226 239.088 148.198 240.818 144.064C240.818 148.39 241.379 153.616 243.655 157.352C245.298 160.302 247.703 162.758 250.621 164.461C253.538 166.165 256.86 167.055 260.24 167.037C261.407 167.054 262.572 166.94 263.713 166.697C263.814 166.672 263.908 166.626 263.989 166.563C264.071 166.499 264.138 166.419 264.186 166.328C269.892 167.539 275.568 167.436 276.44 166.225C277.844 164.291 279.839 158.252 280.505 150.87C281.717 138.35 273.824 127.484 264.6 121.77ZM245.03 156.451C242.163 151.771 242.251 144.138 242.591 139.753L242.783 139.251C242.92 143.761 244.071 148.182 246.151 152.187C248.231 156.192 251.187 159.678 254.8 162.386C256.796 163.764 259.01 164.797 261.348 165.442C257.727 165.693 250.277 164.999 245.03 156.451Z" fill="#263238"/>
<path d="M245.281 133.212C245.281 133.212 244.069 142.159 255.451 150.929C266.832 159.699 277.622 156.244 277.622 156.244" stroke="white" stroke-width="0.5" stroke-linecap="round" stroke-linejoin="round"/>
<path d="M246.952 130.26C246.952 130.26 258.939 147.696 275.494 143.149" stroke="white" stroke-width="0.5" stroke-linecap="round" stroke-linejoin="round"/>
<path d="M241.024 124.457C239.134 123.498 237.016 123.077 234.902 123.238C232.788 123.4 230.759 124.138 229.037 125.373C222.666 129.61 219.474 139.62 219.474 139.62" stroke="white" stroke-width="0.5" stroke-linecap="round" stroke-linejoin="round"/>
<path d="M241.335 129.314C241.335 129.314 236.176 127.941 232.984 131.13C231.428 132.539 230.097 134.177 229.037 135.988" stroke="white" stroke-width="0.5" stroke-linecap="round" stroke-linejoin="round"/>
</svg>
