<svg width="77" height="66" viewBox="0 0 77 66" fill="none" xmlns="http://www.w3.org/2000/svg">
<path d="M27.511 10.989C27.511 8.07454 28.6688 5.27944 30.7296 3.2186C32.7904 1.15777 35.5855 0 38.5 0C41.4145 0 44.2096 1.15777 46.2704 3.2186C48.3312 5.27944 49.489 8.07454 49.489 10.989C49.489 13.9035 48.3312 16.6986 46.2704 18.7594C44.2096 20.8202 41.4145 21.978 38.5 21.978C35.5855 21.978 32.7904 20.8202 30.7296 18.7594C28.6688 16.6986 27.511 13.9035 27.511 10.989ZM38.5 5.5C37.7792 5.5 37.0654 5.64198 36.3995 5.91782C35.7335 6.19367 35.1284 6.59799 34.6187 7.10769C34.109 7.61739 33.7047 8.2225 33.4288 8.88845C33.153 9.55441 33.011 10.2682 33.011 10.989C33.011 11.7098 33.153 12.4236 33.4288 13.0895C33.7047 13.7555 34.109 14.3606 34.6187 14.8703C35.1284 15.38 35.7335 15.7843 36.3995 16.0602C37.0654 16.336 37.7792 16.478 38.5 16.478C39.9558 16.478 41.3519 15.8997 42.3813 14.8703C43.4107 13.8409 43.989 12.4448 43.989 10.989C43.989 9.53323 43.4107 8.13708 42.3813 7.10769C41.3519 6.0783 39.9558 5.5 38.5 5.5ZM55 13.739C55 12.6556 55.2134 11.5828 55.628 10.5819C56.0426 9.58093 56.6503 8.67145 57.4164 7.90537C58.1825 7.13929 59.0919 6.53159 60.0929 6.11699C61.0938 5.70239 62.1666 5.489 63.25 5.489C64.3334 5.489 65.4062 5.70239 66.4071 6.11699C67.4081 6.53159 68.3176 7.13929 69.0836 7.90537C69.8497 8.67145 70.4574 9.58093 70.872 10.5819C71.2866 11.5828 71.5 12.6556 71.5 13.739C71.5 15.927 70.6308 18.0255 69.0836 19.5726C67.5365 21.1198 65.438 21.989 63.25 21.989C61.062 21.989 58.9635 21.1198 57.4164 19.5726C55.8692 18.0255 55 15.927 55 13.739ZM63.25 10.989C62.5207 10.989 61.8212 11.2787 61.3055 11.7945C60.7897 12.3102 60.5 13.0097 60.5 13.739C60.5 14.4683 60.7897 15.1678 61.3055 15.6835C61.8212 16.1993 62.5207 16.489 63.25 16.489C63.9793 16.489 64.6788 16.1993 65.1945 15.6835C65.7103 15.1678 66 14.4683 66 13.739C66 13.0097 65.7103 12.3102 65.1945 11.7945C64.6788 11.2787 63.9793 10.989 63.25 10.989ZM13.75 5.489C11.562 5.489 9.46354 6.35819 7.91637 7.90537C6.36919 9.45255 5.5 11.551 5.5 13.739C5.5 15.927 6.36919 18.0255 7.91637 19.5726C9.46354 21.1198 11.562 21.989 13.75 21.989C15.938 21.989 18.0365 21.1198 19.5836 19.5726C21.1308 18.0255 22 15.927 22 13.739C22 11.551 21.1308 9.45255 19.5836 7.90537C18.0365 6.35819 15.938 5.489 13.75 5.489ZM11 13.739C11 13.0097 11.2897 12.3102 11.8055 11.7945C12.3212 11.2787 13.0207 10.989 13.75 10.989C14.4793 10.989 15.1788 11.2787 15.6945 11.7945C16.2103 12.3102 16.5 13.0097 16.5 13.739C16.5 14.4683 16.2103 15.1678 15.6945 15.6835C15.1788 16.1993 14.4793 16.489 13.75 16.489C13.0207 16.489 12.3212 16.1993 11.8055 15.6835C11.2897 15.1678 11 14.4683 11 13.739ZM17.974 27.489C17.006 29.1602 16.4975 31.0577 16.5 32.989H5.5V46.739C5.49956 48.1071 5.83932 49.4538 6.48872 50.6579C7.13812 51.862 8.07675 52.8857 9.22014 53.6368C10.3635 54.388 11.6758 54.843 13.0387 54.961C14.4017 55.0789 15.7726 54.8561 17.028 54.3125C17.435 56.133 18.073 57.871 18.898 59.4935C16.8106 60.3363 14.5481 60.6538 12.3093 60.4179C10.0705 60.182 7.92389 59.4001 6.05793 58.1407C4.19197 56.8813 2.66376 55.1831 1.6075 53.1951C0.551243 51.2071 -0.000748263 48.9902 7.61273e-07 46.739V32.989C7.61273e-07 31.5303 0.579463 30.1314 1.61091 29.0999C2.64236 28.0685 4.04131 27.489 5.5 27.489H17.974ZM58.102 59.4935C60.1894 60.3363 62.4519 60.6538 64.6907 60.4179C66.9295 60.182 69.0761 59.4001 70.9421 58.1407C72.808 56.8813 74.3362 55.1831 75.3925 53.1951C76.4488 51.2071 77.0007 48.9902 77 46.739V32.989C77 31.5303 76.4205 30.1314 75.3891 29.0999C74.3576 28.0685 72.9587 27.489 71.5 27.489H59.026C59.961 29.106 60.5 30.9815 60.5 32.989H71.5V46.739C71.5004 48.1071 71.1607 49.4538 70.5113 50.6579C69.8619 51.862 68.9232 52.8857 67.7799 53.6368C66.6365 54.388 65.3242 54.843 63.9613 54.961C62.5983 55.0789 61.2274 54.8561 59.972 54.3125C59.5595 56.133 58.927 57.871 58.102 59.4935ZM27.5 27.4835C26.0413 27.4835 24.6424 28.063 23.6109 29.0944C22.5795 30.1259 22 31.5248 22 32.9835V49.489C22 53.8651 23.7384 58.0619 26.8327 61.1563C29.9271 64.2506 34.1239 65.989 38.5 65.989C42.8761 65.989 47.0729 64.2506 50.1673 61.1563C53.2616 58.0619 55 53.8651 55 49.489V32.989C55 31.5303 54.4205 30.1314 53.3891 29.0999C52.3576 28.0685 50.9587 27.489 49.5 27.489H27.5V27.4835ZM27.5 32.9835H49.5V49.489C49.5 52.4064 48.3411 55.2043 46.2782 57.2672C44.2153 59.3301 41.4174 60.489 38.5 60.489C35.5826 60.489 32.7847 59.3301 30.7218 57.2672C28.6589 55.2043 27.5 52.4064 27.5 49.489V32.989V32.9835Z" fill="#5C40CA"/>
</svg>
