<svg width="68" height="68" viewBox="0 0 68 68" fill="none" xmlns="http://www.w3.org/2000/svg">
<path d="M0 33.84C0 27.72 1.53 22.05 4.56 16.86C7.59 11.67 11.7 7.56 16.89 4.53C22.08 1.5 27.72 0 33.81 0C38.37 0 42.75 0.9 46.92 2.67C51.09 4.44 54.66 6.87 57.69 9.87C60.72 12.87 63.12 16.47 64.89 20.67C66.66 24.87 67.56 29.22 67.56 33.84C67.56 38.4 66.66 42.78 64.89 46.95C63.12 51.12 60.69 54.72 57.69 57.72C54.69 60.72 51.09 63.12 46.92 64.89C42.75 66.66 38.4 67.56 33.81 67.56C29.22 67.56 24.81 66.66 20.64 64.89C16.47 63.12 12.87 60.69 9.84 57.69C6.81 54.69 4.44 51.09 2.64 46.95C0.84 42.81 0 38.43 0 33.84ZM7.44 33.84C7.44 40.95 10.02 47.13 15.21 52.38C20.4 57.57 26.58 60.15 33.81 60.15C38.55 60.15 42.96 58.98 46.98 56.61C51 54.24 54.24 51.06 56.61 47.01C58.98 42.96 60.18 38.58 60.18 33.84C60.18 29.1 58.98 24.69 56.61 20.64C54.24 16.59 51.03 13.38 46.98 11.01C42.93 8.64 38.55 7.47 33.81 7.47C29.07 7.47 24.66 8.64 20.64 11.01C16.62 13.38 13.38 16.59 10.98 20.64C8.58 24.69 7.44 29.1 7.44 33.84ZM31.2 33.84V13.86C31.2 13.17 31.44 12.57 31.92 12.09C32.4 11.61 33 11.37 33.69 11.37C34.38 11.37 34.98 11.61 35.46 12.09C35.94 12.57 36.18 13.17 36.18 13.86V32.31L46.95 38.58C47.55 38.94 47.91 39.45 48.09 40.11C48.27 40.77 48.18 41.4 47.82 41.97C47.34 42.81 46.62 43.23 45.66 43.23C45.15 43.23 44.73 43.11 44.4 42.87L32.94 36.18C32.43 36.03 32.01 35.73 31.68 35.31C31.35 34.89 31.2 34.41 31.2 33.84Z" fill="#5C40CA"/>
</svg>
