<svg width="45" height="53" viewBox="0 0 45 53" fill="none" xmlns="http://www.w3.org/2000/svg">
<path d="M41.25 18.8177H26.25V3.76353H3.75V48.9259H41.25V18.8177ZM39.6975 15.0541L30 5.32163V15.0541H39.6975ZM1.875 0H30L45 15.0541V50.8077C45 51.3068 44.8025 51.7854 44.4508 52.1383C44.0992 52.4912 43.6223 52.6894 43.125 52.6894H1.875C1.37772 52.6894 0.900806 52.4912 0.549175 52.1383C0.197544 51.7854 0 51.3068 0 50.8077V1.88177C0 1.38269 0.197544 0.904056 0.549175 0.551156C0.900806 0.198257 1.37772 0 1.875 0ZM11.25 26.3447H33.75V30.1083H11.25V26.3447ZM11.25 15.0541H20.625V18.8177H11.25V15.0541ZM11.25 37.6353H33.75V41.3988H11.25V37.6353Z" fill="#5C40CA"/>
</svg>
