<svg width="580" height="438" viewBox="0 0 580 438" fill="none" xmlns="http://www.w3.org/2000/svg">
<path d="M580 397.446H531.667V397.788H580V397.446Z" fill="#EBEBEB"/>
<path d="M406.806 401.166H394.124V401.508H406.806V401.166Z" fill="#EBEBEB"/>
<path d="M530.207 384.755H502.202V385.097H530.207V384.755Z" fill="#EBEBEB"/>
<path d="M63.0288 387.052H0V387.394H63.0288V387.052Z" fill="#EBEBEB"/>
<path d="M85.2703 387.052H76.0327V387.394H85.2703V387.052Z" fill="#EBEBEB"/>
<path d="M252.014 392.823H115.303V393.165H252.014V392.823Z" fill="#EBEBEB"/>
<path d="M269.307 100.161V124.176L282.441 125.339C284.203 133.253 287.545 140.783 292.291 147.534L283.812 157.107L301.937 174.093L312.153 166.147C319.352 170.591 327.384 173.718 335.823 175.365L337.064 187.673H362.85L364.091 175.365C372.535 173.718 380.571 170.591 387.776 166.147L397.991 174.093L416.116 157.107L407.637 147.534C412.379 140.783 415.716 133.252 417.473 125.339L430.68 124.176V100.161L417.473 98.9853C415.728 91.0647 412.4 83.5247 407.667 76.7622L416.145 67.1891L398.02 50.2175L387.805 58.1631C380.611 53.7255 372.591 50.5941 364.164 48.9319L362.923 36.6237H337.21L335.969 48.9319C327.531 50.5893 319.501 53.7209 312.299 58.1631L302.083 50.2175L283.9 67.1891L292.379 76.7622C287.637 83.5103 284.295 91.0358 282.528 98.9443L269.307 100.161ZM349.979 79.6478C356.842 79.6478 363.552 81.5551 369.259 85.1285C374.966 88.702 379.414 93.7811 382.04 99.7235C384.667 105.666 385.354 112.205 384.015 118.513C382.676 124.822 379.371 130.616 374.518 135.165C369.664 139.713 363.481 142.81 356.749 144.065C350.017 145.32 343.04 144.676 336.699 142.214C330.357 139.753 324.938 135.585 321.124 130.237C317.311 124.888 315.276 118.601 315.276 112.169C315.276 107.893 316.175 103.66 317.923 99.7109C319.671 95.7617 322.232 92.1742 325.461 89.1536C328.689 86.133 332.522 83.7387 336.739 82.1076C340.956 80.4764 345.475 79.6406 350.037 79.6478H349.979Z" fill="#F0F0F0"/>
<path d="M226.051 207.653L233.348 213.37L246.38 201.157L240.28 194.319C243.72 189.458 246.142 184.028 247.416 178.319L256.902 177.484V160.185L247.416 159.35C246.153 153.664 243.751 148.253 240.338 143.404L246.438 136.566L233.406 124.354L226.11 130.07C220.933 126.878 215.16 124.628 209.094 123.438L208.204 114.548H189.728L188.838 123.438C182.77 124.636 176.997 126.895 171.822 130.098L164.526 124.381L151.494 136.594L157.594 143.432C154.181 148.28 151.779 153.691 150.516 159.378L141.03 160.212V177.471L150.516 178.305C151.779 183.992 154.181 189.402 157.594 194.251L151.494 201.089L164.526 213.301L171.822 207.585C176.999 210.778 182.772 213.028 188.838 214.218L189.728 223.107H208.145L209.035 214.218C215.096 213.049 220.869 210.822 226.051 207.653V207.653ZM174.011 168.855C174.011 164.232 175.474 159.713 178.215 155.869C180.957 152.025 184.853 149.029 189.411 147.261C193.969 145.492 198.984 145.03 203.822 145.933C208.661 146.836 213.104 149.063 216.592 152.333C220.079 155.603 222.453 159.769 223.414 164.304C224.375 168.838 223.879 173.538 221.989 177.809C220.099 182.079 216.9 185.728 212.797 188.295C208.693 190.861 203.87 192.23 198.937 192.227C195.662 192.227 192.42 191.622 189.395 190.448C186.37 189.273 183.621 187.551 181.307 185.381C178.992 183.21 177.156 180.634 175.904 177.798C174.653 174.962 174.009 171.924 174.011 168.855Z" fill="#F5F5F5"/>
<path d="M307.907 324.568C315.13 323.16 322.003 320.483 328.162 316.677L336.918 323.514L352.489 308.95L345.193 300.744C349.254 294.972 352.111 288.531 353.613 281.762L364.908 280.778V260.264L353.613 259.266C352.118 252.477 349.261 246.017 345.193 240.229L352.489 232.023L336.933 217.486L328.177 224.324C322.014 220.524 315.142 217.847 307.921 216.433L306.856 205.862H284.966L283.9 216.392C276.679 217.806 269.808 220.483 263.645 224.283L254.889 217.445L239.376 231.982L246.673 240.188C242.618 245.963 239.761 252.403 238.252 259.17L226.957 260.168V280.682L238.252 281.667C239.759 288.434 242.615 294.875 246.673 300.649L239.376 308.854L254.889 323.378L263.645 316.54C269.793 320.394 276.667 323.118 283.9 324.568L284.966 335.153H306.856L307.907 324.568ZM266.199 270.48C266.202 264.979 267.945 259.602 271.208 255.029C274.472 250.457 279.108 246.894 284.533 244.79C289.957 242.687 295.924 242.138 301.681 243.213C307.438 244.288 312.726 246.938 316.876 250.829C321.025 254.72 323.851 259.676 324.995 265.072C326.139 270.467 325.551 276.059 323.304 281.141C321.057 286.224 317.252 290.567 312.371 293.623C307.49 296.679 301.752 298.31 295.882 298.31C291.982 298.31 288.121 297.59 284.519 296.191C280.917 294.792 277.644 292.742 274.887 290.158C272.131 287.573 269.945 284.505 268.454 281.129C266.963 277.752 266.197 274.134 266.199 270.48V270.48Z" fill="#FAFAFA"/>
<path d="M129.886 75.8985L62.7529 67.303L53.5807 130.215L120.714 138.811L129.886 75.8985Z" fill="#F5F5F5"/>
<path d="M72.6278 84.5532L72.0352 88.6182L115.745 94.2146L116.337 90.1496L72.6278 84.5532Z" fill="#E0E0E0"/>
<path d="M70.7606 97.3144L70.168 101.379L113.878 106.976L114.47 102.911L70.7606 97.3144Z" fill="#E0E0E0"/>
<path d="M68.849 110.504L68.2563 114.569L93.9935 117.864L94.5861 113.799L68.849 110.504Z" fill="#E0E0E0"/>
<path d="M505.748 6.01206L437.992 6.2337L438.228 69.73L505.985 69.5084L505.748 6.01206Z" fill="#F0F0F0"/>
<path d="M494.484 21.7923L450.369 21.9438L450.385 26.0466L494.5 25.895L494.484 21.7923Z" fill="#E0E0E0"/>
<path d="M494.55 34.6746L450.434 34.8262L450.45 38.9289L494.566 38.7774L494.55 34.6746Z" fill="#E0E0E0"/>
<path d="M476.448 48.0569L450.472 48.1461L450.488 52.2488L476.464 52.1596L476.448 48.0569Z" fill="#E0E0E0"/>
<path d="M546.411 160.868L479.191 168.848L487.707 231.841L554.927 223.861L546.411 160.868Z" fill="#F5F5F5"/>
<path d="M537.309 177.886L493.543 183.081L494.093 187.152L537.859 181.956L537.309 177.886Z" fill="#E0E0E0"/>
<path d="M539.038 190.656L495.272 195.852L495.823 199.922L539.589 194.726L539.038 190.656Z" fill="#E0E0E0"/>
<path d="M522.826 206L497.056 209.059L497.606 213.129L523.377 210.07L522.826 206Z" fill="#E0E0E0"/>
<path d="M185.99 263.108L118.233 263.33L118.469 326.826L186.226 326.605L185.99 263.108Z" fill="#F0F0F0"/>
<path d="M174.803 278.941L130.688 279.092L130.704 283.195L174.82 283.043L174.803 278.941Z" fill="#E0E0E0"/>
<path d="M174.853 291.823L130.738 291.974L130.754 296.077L174.869 295.926L174.853 291.823Z" fill="#E0E0E0"/>
<path d="M156.767 305.205L130.791 305.294L130.807 309.397L156.783 309.308L156.767 305.205Z" fill="#E0E0E0"/>
<path d="M485.253 294.199L417.496 294.421L417.733 357.917L485.489 357.695L485.253 294.199Z" fill="#F0F0F0"/>
<path d="M474.057 309.982L429.942 310.134L429.958 314.236L474.073 314.085L474.057 309.982Z" fill="#E0E0E0"/>
<path d="M474.122 322.865L430.007 323.016L430.023 327.119L474.138 326.967L474.122 322.865Z" fill="#E0E0E0"/>
<path d="M456.021 336.247L430.045 336.336L430.061 340.439L456.037 340.35L456.021 336.247Z" fill="#E0E0E0"/>
<path d="M199.733 1.86449L133.587 15.6293L148.276 77.6161L214.422 63.8513L199.733 1.86449Z" fill="#F0F0F0"/>
<path d="M192.326 19.6319L149.259 28.594L150.208 32.5992L193.275 23.6371L192.326 19.6319Z" fill="#E0E0E0"/>
<path d="M195.312 32.2123L152.245 41.1744L153.194 45.1796L196.261 36.2175L195.312 32.2123Z" fill="#E0E0E0"/>
<path d="M180.679 48.8921L155.321 54.1692L156.27 58.1744L181.628 52.8973L180.679 48.8921Z" fill="#E0E0E0"/>
<path d="M68.2689 74.1639H67.0576L65.3794 66.9157H69.9325L68.2689 74.1639Z" fill="#E0E0E0"/>
<path d="M67.6555 72.3723C71.0567 72.3723 73.8139 70.3334 73.8139 67.8183C73.8139 65.3031 71.0567 63.2642 67.6555 63.2642C64.2543 63.2642 61.4971 65.3031 61.4971 67.8183C61.4971 70.3334 64.2543 72.3723 67.6555 72.3723Z" fill="#E6E6E6"/>
<path d="M192.063 10.886H190.852L189.188 3.65149H193.742L192.063 10.886Z" fill="#E0E0E0"/>
<path d="M191.466 9.10807C194.875 9.10807 197.639 7.06916 197.639 4.55403C197.639 2.0389 194.875 0 191.466 0C188.057 0 185.293 2.0389 185.293 4.55403C185.293 7.06916 188.057 9.10807 191.466 9.10807Z" fill="#E6E6E6"/>
<path d="M470.9 12.7048H469.688L468.01 5.47028H472.563L470.9 12.7048Z" fill="#E0E0E0"/>
<path d="M470.287 10.927C473.688 10.927 476.445 8.88807 476.445 6.37295C476.445 3.85782 473.688 1.81891 470.287 1.81891C466.886 1.81891 464.128 3.85782 464.128 6.37295C464.128 8.88807 466.886 10.927 470.287 10.927Z" fill="#E6E6E6"/>
<path d="M540.161 169.963H538.949L537.286 162.728H541.839L540.161 169.963Z" fill="#E0E0E0"/>
<path d="M539.562 168.185C542.963 168.185 545.72 166.146 545.72 163.631C545.72 161.116 542.963 159.077 539.562 159.077C536.161 159.077 533.403 161.116 533.403 163.631C533.403 166.146 536.161 168.185 539.562 168.185Z" fill="#E6E6E6"/>
<path d="M452.585 301.414H451.359L449.696 294.166H454.249L452.585 301.414Z" fill="#E0E0E0"/>
<path d="M451.972 299.623C455.374 299.623 458.131 297.584 458.131 295.069C458.131 292.554 455.374 290.515 451.972 290.515C448.571 290.515 445.814 292.554 445.814 295.069C445.814 297.584 448.571 299.623 451.972 299.623Z" fill="#E6E6E6"/>
<path d="M150.342 268.866H149.13L147.467 261.618H152.02L150.342 268.866Z" fill="#E0E0E0"/>
<path d="M149.743 267.075C153.144 267.075 155.901 265.036 155.901 262.521C155.901 260.005 153.144 257.967 149.743 257.967C146.342 257.967 143.584 260.005 143.584 262.521C143.584 265.036 146.342 267.075 149.743 267.075Z" fill="#E6E6E6"/>
<path d="M288.278 437.201C444.548 437.201 571.229 430.27 571.229 421.72C571.229 413.17 444.548 406.239 288.278 406.239C132.009 406.239 5.32715 413.17 5.32715 421.72C5.32715 430.27 132.009 437.201 288.278 437.201Z" fill="#F5F5F5"/>
<path d="M133.106 192.788C133.106 183.775 139.425 176.377 147.204 176.377C154.982 176.377 161.301 183.707 161.301 192.788C161.301 201.868 154.982 209.117 147.204 209.117C139.425 209.117 133.106 201.8 133.106 192.788ZM136.025 192.788C136.025 200.282 141.045 206.381 147.204 206.381C153.362 206.381 158.382 200.282 158.382 192.788C158.382 185.293 153.377 179.112 147.204 179.112C141.031 179.112 136.025 185.293 136.025 192.788Z" fill="#263238"/>
<path d="M105.365 192.788C105.365 183.775 111.684 176.377 119.462 176.377C127.24 176.377 133.559 183.707 133.559 192.788C133.559 201.868 127.24 209.117 119.462 209.117C111.684 209.117 105.365 201.8 105.365 192.788ZM108.283 192.788C108.283 200.282 113.289 206.381 119.462 206.381C125.635 206.381 130.64 200.282 130.64 192.788C130.64 185.293 125.62 179.112 119.462 179.112C113.304 179.112 108.283 185.293 108.283 192.788Z" fill="#263238"/>
<path d="M77.6079 192.788C77.6079 183.775 83.9414 176.377 91.7197 176.377C99.498 176.377 105.817 183.707 105.817 192.788C105.817 201.868 99.4834 209.117 91.7197 209.117C83.956 209.117 77.6079 201.8 77.6079 192.788ZM80.5266 192.788C80.5266 200.282 85.5467 206.381 91.7197 206.381C97.8927 206.381 102.898 200.282 102.898 192.788C102.898 185.293 97.8781 179.112 91.7197 179.112C85.5613 179.112 80.5266 185.293 80.5266 192.788Z" fill="#263238"/>
<path d="M49.8657 192.788C49.8657 183.775 56.1993 176.377 63.9775 176.377C71.7558 176.377 78.0747 183.707 78.0747 192.788C78.0747 201.868 71.7412 209.117 63.9775 209.117C56.2139 209.117 49.8657 201.8 49.8657 192.788ZM52.7844 192.788C52.7844 200.282 57.8045 206.381 63.9775 206.381C70.1505 206.381 75.1561 200.282 75.1561 192.788C75.1561 185.293 70.1359 179.112 63.9775 179.112C57.8191 179.112 52.7844 185.293 52.7844 192.788Z" fill="#263238"/>
<path d="M160.849 192.788C160.849 183.775 167.168 176.377 174.946 176.377C182.725 176.377 189.058 183.707 189.058 192.788C189.058 201.868 182.725 209.117 174.946 209.117C167.168 209.117 160.849 201.8 160.849 192.788ZM163.768 192.788C163.768 200.282 168.788 206.381 174.946 206.381C181.105 206.381 186.139 200.282 186.139 192.788C186.139 185.293 181.119 179.112 174.946 179.112C168.773 179.112 163.768 185.293 163.768 192.788Z" fill="#263238"/>
<path d="M31.5218 418.37H205.3L205.3 193.102L31.5218 193.102L31.5218 418.37Z" fill="#263238"/>
<path opacity="0.7" d="M31.5218 418.37H205.3L205.3 193.102L31.5218 193.102L31.5218 418.37Z" fill="white"/>
<path opacity="0.6" d="M47.1806 418.37H205.3L205.3 193.102L47.1806 193.102L47.1806 418.37Z" fill="white"/>
<path opacity="0.2" d="M36.7313 418.37L36.0016 207.845L35.272 418.37H36.7313Z" fill="black"/>
<path opacity="0.2" d="M43.9994 418.37L43.2697 220.96L42.54 418.37H43.9994Z" fill="black"/>
<path opacity="0.2" d="M38.9067 193.266L39.6364 351.536L40.3661 193.266H38.9067Z" fill="black"/>
<path d="M179.149 203.81C179.298 204.539 179.666 205.214 180.21 205.754C180.753 206.294 181.449 206.679 182.217 206.862C182.985 207.045 183.792 207.02 184.545 206.789C185.298 206.558 185.966 206.131 186.469 205.558C186.973 204.985 187.292 204.289 187.389 203.553C187.487 202.816 187.358 202.068 187.019 201.397C186.68 200.726 186.144 200.16 185.474 199.764C184.804 199.367 184.027 199.158 183.235 199.161C182.039 199.278 180.94 199.832 180.176 200.701C179.412 201.571 179.043 202.688 179.149 203.81V203.81Z" fill="#263238"/>
<path d="M183.497 205.192C183.705 205.19 183.911 205.146 184.1 205.063C184.288 204.981 184.456 204.861 184.592 204.713C187.532 201.355 189.113 197.131 189.057 192.788C189.057 183.775 182.724 176.377 174.945 176.377C169.225 176.377 164.102 180.343 161.913 186.456C161.852 186.626 161.827 186.807 161.84 186.986C161.853 187.166 161.904 187.341 161.989 187.503C162.075 187.664 162.193 187.808 162.338 187.926C162.483 188.045 162.651 188.135 162.833 188.193C163.015 188.25 163.207 188.273 163.399 188.261C163.591 188.249 163.778 188.202 163.95 188.122C164.122 188.042 164.276 187.931 164.402 187.795C164.528 187.659 164.625 187.502 164.686 187.331C166.467 182.339 170.524 179.126 174.902 179.126C181.075 179.126 186.095 185.239 186.095 192.801C186.157 196.488 184.828 200.076 182.344 202.935C182.158 203.133 182.038 203.378 181.997 203.639C181.956 203.9 181.996 204.167 182.114 204.407C182.231 204.647 182.42 204.85 182.657 204.992C182.895 205.133 183.172 205.208 183.453 205.205L183.497 205.192Z" fill="#263238"/>
<g opacity="0.4">
<path d="M183.497 205.192C183.705 205.19 183.911 205.146 184.1 205.063C184.288 204.981 184.456 204.861 184.592 204.713C187.532 201.355 189.113 197.131 189.057 192.788C189.057 183.775 182.724 176.377 174.945 176.377C169.225 176.377 164.102 180.343 161.913 186.456C161.852 186.626 161.827 186.807 161.84 186.986C161.853 187.166 161.904 187.341 161.989 187.503C162.075 187.664 162.193 187.808 162.338 187.926C162.483 188.045 162.651 188.135 162.833 188.193C163.015 188.25 163.207 188.273 163.399 188.261C163.591 188.249 163.778 188.202 163.95 188.122C164.122 188.042 164.276 187.931 164.402 187.795C164.528 187.659 164.625 187.502 164.686 187.331C166.467 182.339 170.524 179.126 174.902 179.126C181.075 179.126 186.095 185.239 186.095 192.801C186.157 196.488 184.828 200.076 182.344 202.935C182.158 203.133 182.038 203.378 181.997 203.639C181.956 203.9 181.996 204.167 182.114 204.407C182.231 204.647 182.42 204.85 182.657 204.992C182.895 205.133 183.172 205.208 183.453 205.205L183.497 205.192Z" fill="white"/>
</g>
<path d="M151.407 203.81C151.559 204.535 151.928 205.204 152.47 205.74C153.012 206.276 153.706 206.656 154.47 206.837C155.234 207.018 156.037 206.992 156.785 206.761C157.534 206.531 158.198 206.106 158.699 205.536C159.199 204.966 159.517 204.274 159.615 203.541C159.713 202.809 159.586 202.065 159.25 201.397C158.915 200.729 158.383 200.164 157.718 199.768C157.053 199.372 156.281 199.162 155.493 199.161C154.297 199.278 153.199 199.832 152.434 200.701C151.67 201.571 151.301 202.688 151.407 203.81V203.81Z" fill="#263238"/>
<path d="M155.741 205.192C155.952 205.192 156.16 205.149 156.351 205.066C156.543 204.984 156.713 204.863 156.85 204.713C159.786 201.353 161.362 197.13 161.301 192.788C161.301 183.775 154.982 176.377 147.204 176.377C141.468 176.377 136.361 180.343 134.172 186.456C134.048 186.8 134.075 187.177 134.248 187.503C134.42 187.828 134.723 188.077 135.091 188.193C135.459 188.309 135.861 188.283 136.208 188.122C136.556 187.96 136.821 187.676 136.945 187.331C138.725 182.339 142.782 179.126 147.16 179.126C153.333 179.126 158.338 185.239 158.338 192.801C158.406 196.486 157.083 200.075 154.602 202.935C154.417 203.133 154.297 203.376 154.255 203.636C154.214 203.896 154.253 204.161 154.369 204.401C154.484 204.64 154.671 204.844 154.907 204.986C155.142 205.129 155.417 205.205 155.697 205.205L155.741 205.192Z" fill="#263238"/>
<g opacity="0.4">
<path d="M155.741 205.192C155.952 205.192 156.16 205.149 156.351 205.066C156.543 204.984 156.713 204.863 156.85 204.713C159.786 201.353 161.362 197.13 161.301 192.788C161.301 183.775 154.982 176.377 147.204 176.377C141.468 176.377 136.361 180.343 134.172 186.456C134.048 186.8 134.075 187.177 134.248 187.503C134.42 187.828 134.723 188.077 135.091 188.193C135.459 188.309 135.861 188.283 136.208 188.122C136.556 187.96 136.821 187.676 136.945 187.331C138.725 182.339 142.782 179.126 147.16 179.126C153.333 179.126 158.338 185.239 158.338 192.801C158.406 196.486 157.083 200.075 154.602 202.935C154.417 203.133 154.297 203.376 154.255 203.636C154.214 203.896 154.253 204.161 154.369 204.401C154.484 204.64 154.671 204.844 154.907 204.986C155.142 205.129 155.417 205.205 155.697 205.205L155.741 205.192Z" fill="white"/>
</g>
<path d="M123.65 203.81C123.799 204.539 124.167 205.213 124.709 205.753C125.252 206.293 125.947 206.677 126.714 206.861C127.481 207.045 128.288 207.021 129.041 206.791C129.794 206.561 130.461 206.135 130.966 205.564C131.47 204.992 131.79 204.297 131.889 203.561C131.988 202.825 131.862 202.078 131.525 201.407C131.188 200.735 130.654 200.168 129.986 199.77C129.317 199.372 128.542 199.161 127.751 199.161C126.554 199.278 125.454 199.831 124.687 200.701C123.92 201.57 123.548 202.687 123.65 203.81Z" fill="#263238"/>
<path d="M127.999 205.192C128.21 205.192 128.418 205.149 128.61 205.066C128.801 204.984 128.971 204.863 129.108 204.713C132.018 201.344 133.568 197.121 133.486 192.788C133.486 183.775 127.167 176.377 119.389 176.377C113.654 176.377 108.546 180.343 106.357 186.456C106.295 186.626 106.27 186.807 106.283 186.986C106.296 187.166 106.346 187.342 106.432 187.503C106.517 187.665 106.636 187.809 106.781 187.927C106.926 188.045 107.094 188.135 107.277 188.193C107.459 188.251 107.651 188.274 107.843 188.262C108.035 188.25 108.222 188.203 108.394 188.123C108.567 188.043 108.72 187.932 108.847 187.796C108.973 187.66 109.069 187.502 109.13 187.331C110.91 182.339 114.967 179.126 119.345 179.126C125.504 179.126 130.524 185.239 130.524 192.801C130.593 196.489 129.264 200.08 126.773 202.935C126.587 203.133 126.467 203.378 126.426 203.639C126.385 203.9 126.426 204.167 126.543 204.407C126.66 204.647 126.849 204.85 127.087 204.992C127.324 205.133 127.601 205.208 127.883 205.205L127.999 205.192Z" fill="#263238"/>
<g opacity="0.4">
<path d="M127.999 205.192C128.21 205.192 128.418 205.149 128.61 205.066C128.801 204.984 128.971 204.863 129.108 204.713C132.018 201.344 133.568 197.121 133.486 192.788C133.486 183.775 127.167 176.377 119.389 176.377C113.654 176.377 108.546 180.343 106.357 186.456C106.295 186.626 106.27 186.807 106.283 186.986C106.296 187.166 106.346 187.342 106.432 187.503C106.517 187.665 106.636 187.809 106.781 187.927C106.926 188.045 107.094 188.135 107.277 188.193C107.459 188.251 107.651 188.274 107.843 188.262C108.035 188.25 108.222 188.203 108.394 188.123C108.567 188.043 108.72 187.932 108.847 187.796C108.973 187.66 109.069 187.502 109.13 187.331C110.91 182.339 114.967 179.126 119.345 179.126C125.504 179.126 130.524 185.239 130.524 192.801C130.593 196.489 129.264 200.08 126.773 202.935C126.587 203.133 126.467 203.378 126.426 203.639C126.385 203.9 126.426 204.167 126.543 204.407C126.66 204.647 126.849 204.85 127.087 204.992C127.324 205.133 127.601 205.208 127.883 205.205L127.999 205.192Z" fill="white"/>
</g>
<path d="M95.9077 203.81C96.0572 204.539 96.4247 205.213 96.9673 205.753C97.5099 206.293 98.2053 206.677 98.9723 206.861C99.7393 207.045 100.546 207.021 101.299 206.791C102.052 206.561 102.719 206.135 103.223 205.564C103.728 204.992 104.048 204.297 104.147 203.561C104.246 202.825 104.12 202.078 103.783 201.407C103.446 200.735 102.912 200.168 102.244 199.77C101.575 199.372 100.8 199.161 100.008 199.161C98.8114 199.278 97.7114 199.831 96.9447 200.701C96.1779 201.57 95.8056 202.687 95.9077 203.81V203.81Z" fill="#263238"/>
<path d="M100.256 205.192C100.467 205.192 100.675 205.149 100.867 205.066C101.058 204.984 101.228 204.863 101.365 204.713C104.275 201.344 105.826 197.121 105.743 192.788C105.743 183.775 99.4099 176.377 91.6463 176.377C85.9111 176.377 80.8034 180.343 78.6144 186.456C78.5376 186.629 78.4995 186.815 78.5026 187.002C78.5057 187.189 78.5498 187.374 78.6323 187.545C78.7147 187.716 78.8338 187.869 78.982 187.994C79.1301 188.12 79.3043 188.216 79.4937 188.276C79.6831 188.336 79.8837 188.359 80.0829 188.344C80.2822 188.328 80.4759 188.275 80.6521 188.186C80.8283 188.097 80.9831 187.976 81.1071 187.829C81.231 187.682 81.3213 187.512 81.3725 187.331C83.1529 182.339 87.2099 179.126 91.5879 179.126C97.7463 179.126 102.766 185.239 102.766 192.801C102.828 196.488 101.5 200.076 99.0159 202.935C98.83 203.133 98.7093 203.378 98.6684 203.639C98.6274 203.9 98.6681 204.167 98.7853 204.407C98.9026 204.647 99.0915 204.85 99.3292 204.992C99.5669 205.133 99.8433 205.208 100.125 205.205L100.256 205.192Z" fill="#263238"/>
<g opacity="0.4">
<path d="M100.256 205.192C100.467 205.192 100.675 205.149 100.867 205.066C101.058 204.984 101.228 204.863 101.365 204.713C104.275 201.344 105.826 197.121 105.743 192.788C105.743 183.775 99.4099 176.377 91.6463 176.377C85.9111 176.377 80.8034 180.343 78.6144 186.456C78.5376 186.629 78.4995 186.815 78.5026 187.002C78.5057 187.189 78.5498 187.374 78.6323 187.545C78.7147 187.716 78.8338 187.869 78.982 187.994C79.1301 188.12 79.3043 188.216 79.4937 188.276C79.6831 188.336 79.8837 188.359 80.0829 188.344C80.2822 188.328 80.4759 188.275 80.6521 188.186C80.8283 188.097 80.9831 187.976 81.1071 187.829C81.231 187.682 81.3213 187.512 81.3725 187.331C83.1529 182.339 87.2099 179.126 91.5879 179.126C97.7463 179.126 102.766 185.239 102.766 192.801C102.828 196.488 101.5 200.076 99.0159 202.935C98.83 203.133 98.7093 203.378 98.6684 203.639C98.6274 203.9 98.6681 204.167 98.7853 204.407C98.9026 204.647 99.0915 204.85 99.3292 204.992C99.5669 205.133 99.8433 205.208 100.125 205.205L100.256 205.192Z" fill="white"/>
</g>
<path d="M68.166 203.81C68.166 206.381 70.0048 208.46 72.2522 208.46C73.4085 208.256 74.4523 207.679 75.2033 206.83C75.9542 205.981 76.3652 204.913 76.3652 203.81C76.3652 202.708 75.9542 201.64 75.2033 200.791C74.4523 199.942 73.4085 199.365 72.2522 199.161C70.0048 199.161 68.166 201.212 68.166 203.81Z" fill="#263238"/>
<path d="M72.5151 205.192C72.7259 205.192 72.9342 205.149 73.1257 205.066C73.3171 204.984 73.4872 204.863 73.6242 204.713C76.5287 201.341 78.0781 197.121 78.0022 192.788C78.0022 183.775 71.6687 176.377 63.905 176.377C58.1698 176.377 53.0476 180.343 50.8732 186.456C50.7964 186.629 50.7583 186.815 50.7614 187.002C50.7645 187.189 50.8086 187.374 50.8911 187.545C50.9735 187.716 51.0926 187.869 51.2407 187.994C51.3889 188.12 51.5631 188.216 51.7525 188.276C51.9419 188.336 52.1425 188.359 52.3417 188.344C52.541 188.328 52.7347 188.275 52.9109 188.186C53.0871 188.097 53.2419 187.976 53.3658 187.829C53.4898 187.682 53.5801 187.512 53.6313 187.331C55.4117 182.339 59.4687 179.126 63.8467 179.126C70.0051 179.126 75.0252 185.239 75.0252 192.801C75.087 196.488 73.7589 200.076 71.2747 202.935C71.147 203.071 71.0494 203.229 70.9876 203.401C70.9257 203.573 70.9009 203.754 70.9145 203.935C70.9281 204.115 70.9798 204.292 71.0667 204.453C71.1536 204.615 71.2739 204.759 71.4206 204.877C71.571 204.996 71.7455 205.085 71.9336 205.139C72.1217 205.193 72.3195 205.211 72.5151 205.192Z" fill="#263238"/>
<g opacity="0.4">
<path d="M72.5151 205.192C72.7259 205.192 72.9342 205.149 73.1257 205.066C73.3171 204.984 73.4872 204.863 73.6242 204.713C76.5287 201.341 78.0781 197.121 78.0022 192.788C78.0022 183.775 71.6687 176.377 63.905 176.377C58.1698 176.377 53.0476 180.343 50.8732 186.456C50.7964 186.629 50.7583 186.815 50.7614 187.002C50.7645 187.189 50.8086 187.374 50.8911 187.545C50.9735 187.716 51.0926 187.869 51.2407 187.994C51.3889 188.12 51.5631 188.216 51.7525 188.276C51.9419 188.336 52.1425 188.359 52.3417 188.344C52.541 188.328 52.7347 188.275 52.9109 188.186C53.0871 188.097 53.2419 187.976 53.3658 187.829C53.4898 187.682 53.5801 187.512 53.6313 187.331C55.4117 182.339 59.4687 179.126 63.8467 179.126C70.0051 179.126 75.0252 185.239 75.0252 192.801C75.087 196.488 73.7589 200.076 71.2747 202.935C71.147 203.071 71.0494 203.229 70.9876 203.401C70.9257 203.573 70.9009 203.754 70.9145 203.935C70.9281 204.115 70.9798 204.292 71.0667 204.453C71.1536 204.615 71.2739 204.759 71.4206 204.877C71.571 204.996 71.7455 205.085 71.9336 205.139C72.1217 205.193 72.3195 205.211 72.5151 205.192Z" fill="white"/>
</g>
<path d="M92.8435 296.737H80.6143V316.28H92.8435V296.737Z" fill="#5C40CA"/>
<path d="M112.646 282.515H100.417V316.28H112.646V282.515Z" fill="#FFBC58"/>
<path d="M132.465 287.848H120.235V316.28H132.465V287.848Z" fill="#5C40CA"/>
<path d="M152.282 273.625H140.053V316.28H152.282V273.625Z" fill="#5C40CA"/>
<path d="M172.086 259.402H159.856V316.28H172.086V259.402Z" fill="#FFBC58"/>
<path opacity="0.5" d="M92.8435 296.737H80.6143V316.28H92.8435V296.737Z" fill="white"/>
<path opacity="0.5" d="M132.465 287.848H120.235V316.28H132.465V287.848Z" fill="white"/>
<path opacity="0.5" d="M152.282 273.625H140.053V316.28H152.282V273.625Z" fill="white"/>
<path d="M188.402 313.572H63.8179V318.988H188.402V313.572Z" fill="#263238"/>
<path d="M69.0704 300.758L66.3853 297.585L106.342 267.786L126.116 278.535L179.499 235.894L182.3 238.971L126.598 283.486L106.736 272.682L69.0704 300.758Z" fill="#5C40CA"/>
<path d="M184.082 234.923L175.968 236.099L181.688 241.815L184.082 234.923Z" fill="#5C40CA"/>
<g opacity="0.3">
<path d="M134.464 336.602H63.9637C63.5767 336.602 63.2055 336.458 62.9318 336.202C62.6581 335.945 62.5044 335.597 62.5044 335.235C62.5044 334.872 62.6581 334.524 62.9318 334.268C63.2055 334.011 63.5767 333.867 63.9637 333.867H134.464C134.851 333.867 135.223 334.011 135.496 334.268C135.77 334.524 135.924 334.872 135.924 335.235C135.924 335.597 135.77 335.945 135.496 336.202C135.223 336.458 134.851 336.602 134.464 336.602Z" fill="black"/>
</g>
<g opacity="0.3">
<path d="M188.926 348.787H74.0321C73.6451 348.787 73.2739 348.643 73.0002 348.387C72.7265 348.13 72.5728 347.783 72.5728 347.42C72.5728 347.057 72.7265 346.709 73.0002 346.453C73.2739 346.196 73.6451 346.052 74.0321 346.052H188.926C189.313 346.052 189.684 346.196 189.958 346.453C190.231 346.709 190.385 347.057 190.385 347.42C190.385 347.783 190.231 348.13 189.958 348.387C189.684 348.643 189.313 348.787 188.926 348.787V348.787Z" fill="black"/>
<path d="M189.043 355.639H63.9632C63.5762 355.639 63.205 355.495 62.9313 355.238C62.6577 354.982 62.5039 354.634 62.5039 354.271C62.5039 353.909 62.6577 353.561 62.9313 353.304C63.205 353.048 63.5762 352.904 63.9632 352.904H189.043C189.43 352.904 189.801 353.048 190.075 353.304C190.349 353.561 190.502 353.909 190.502 354.271C190.502 354.634 190.349 354.982 190.075 355.238C189.801 355.495 189.43 355.639 189.043 355.639Z" fill="black"/>
<path d="M189.247 362.491H64.1234C63.7364 362.491 63.3652 362.346 63.0915 362.09C62.8178 361.834 62.6641 361.486 62.6641 361.123C62.6641 360.76 62.8178 360.412 63.0915 360.156C63.3652 359.9 63.7364 359.755 64.1234 359.755H189.247C189.634 359.755 190.005 359.9 190.279 360.156C190.553 360.412 190.706 360.76 190.706 361.123C190.706 361.486 190.553 361.834 190.279 362.09C190.005 362.346 189.634 362.491 189.247 362.491Z" fill="black"/>
<path d="M168.961 369.342H64.2831C63.896 369.342 63.5248 369.198 63.2512 368.941C62.9775 368.685 62.8237 368.337 62.8237 367.974C62.8237 367.612 62.9775 367.264 63.2512 367.007C63.5248 366.751 63.896 366.607 64.2831 366.607H168.961C169.348 366.607 169.72 366.751 169.993 367.007C170.267 367.264 170.421 367.612 170.421 367.974C170.421 368.337 170.267 368.685 169.993 368.941C169.72 369.198 169.348 369.342 168.961 369.342Z" fill="black"/>
</g>
<g opacity="0.3">
<path d="M188.926 381.637H74.0321C73.6451 381.637 73.2739 381.493 73.0002 381.236C72.7265 380.98 72.5728 380.632 72.5728 380.269C72.5728 379.906 72.7265 379.559 73.0002 379.302C73.2739 379.046 73.6451 378.901 74.0321 378.901H188.926C189.313 378.901 189.684 379.046 189.958 379.302C190.231 379.559 190.385 379.906 190.385 380.269C190.385 380.632 190.231 380.98 189.958 381.236C189.684 381.493 189.313 381.637 188.926 381.637V381.637Z" fill="black"/>
<path d="M189.043 388.488H63.9632C63.5762 388.488 63.205 388.344 62.9313 388.088C62.6577 387.831 62.5039 387.483 62.5039 387.121C62.5039 386.758 62.6577 386.41 62.9313 386.154C63.205 385.897 63.5762 385.753 63.9632 385.753H189.043C189.43 385.753 189.801 385.897 190.075 386.154C190.349 386.41 190.502 386.758 190.502 387.121C190.502 387.483 190.349 387.831 190.075 388.088C189.801 388.344 189.43 388.488 189.043 388.488Z" fill="black"/>
<path d="M189.247 395.408H64.1234C63.7364 395.408 63.3652 395.264 63.0915 395.008C62.8178 394.751 62.6641 394.403 62.6641 394.041C62.6641 393.678 62.8178 393.33 63.0915 393.074C63.3652 392.817 63.7364 392.673 64.1234 392.673H189.247C189.634 392.673 190.005 392.817 190.279 393.074C190.553 393.33 190.706 393.678 190.706 394.041C190.706 394.403 190.553 394.751 190.279 395.008C190.005 395.264 189.634 395.408 189.247 395.408Z" fill="black"/>
<path d="M168.961 402.246H64.2831C63.896 402.246 63.5248 402.102 63.2512 401.846C62.9775 401.589 62.8237 401.241 62.8237 400.879C62.8237 400.516 62.9775 400.168 63.2512 399.911C63.5248 399.655 63.896 399.511 64.2831 399.511H168.961C169.348 399.511 169.72 399.655 169.993 399.911C170.267 400.168 170.421 400.516 170.421 400.879C170.421 401.241 170.267 401.589 169.993 401.846C169.72 402.102 169.348 402.246 168.961 402.246Z" fill="black"/>
</g>
<g opacity="0.3">
<path d="M134.464 222.984H63.9637C63.5767 222.984 63.2055 222.84 62.9318 222.583C62.6581 222.327 62.5044 221.979 62.5044 221.616C62.5044 221.254 62.6581 220.906 62.9318 220.649C63.2055 220.393 63.5767 220.249 63.9637 220.249H134.464C134.851 220.249 135.223 220.393 135.496 220.649C135.77 220.906 135.924 221.254 135.924 221.616C135.924 221.979 135.77 222.327 135.496 222.583C135.223 222.84 134.851 222.984 134.464 222.984Z" fill="black"/>
</g>
<path d="M522.414 86.6635H354.838C352.049 86.6635 349.789 88.782 349.789 91.3953V350.825C349.789 353.438 352.049 355.557 354.838 355.557H522.414C525.202 355.557 527.463 353.438 527.463 350.825V91.3953C527.463 88.782 525.202 86.6635 522.414 86.6635Z" fill="#7963CD"/>
<path d="M391.656 85.3779H485.608C485.856 85.3779 486.094 85.4701 486.269 85.6342C486.444 85.7984 486.542 86.021 486.542 86.2531V95.0603H390.708V86.2531C390.708 86.137 390.732 86.0221 390.78 85.915C390.828 85.8079 390.898 85.7108 390.986 85.6293C391.075 85.5479 391.179 85.4837 391.294 85.4405C391.409 85.3973 391.532 85.376 391.656 85.3779V85.3779Z" fill="#263238"/>
<path opacity="0.9" d="M520.444 95.0604H356.823V347.119H520.444V95.0604Z" fill="white"/>
<path d="M470.695 106.657H441.931L441.596 105.714C441.392 105.13 440.997 104.62 440.466 104.26C439.935 103.899 439.296 103.704 438.64 103.704C437.985 103.704 437.346 103.899 436.815 104.26C436.284 104.62 435.889 105.13 435.685 105.714L435.35 106.657H406.557C405.441 106.657 404.37 106.243 403.58 105.505C402.789 104.766 402.343 103.765 402.339 102.719V92.7902C402.347 91.7455 402.794 90.7458 403.584 90.0083C404.374 89.2708 405.442 88.8551 406.557 88.8516H470.768C471.881 88.8552 472.948 89.2713 473.735 90.0092C474.523 90.747 474.967 91.7467 474.971 92.7902V102.746C474.967 103.267 474.853 103.782 474.635 104.261C474.418 104.74 474.101 105.174 473.704 105.538C473.306 105.902 472.835 106.188 472.319 106.38C471.802 106.572 471.25 106.666 470.695 106.657V106.657ZM443.93 103.922H470.695C470.864 103.924 471.032 103.894 471.188 103.834C471.345 103.775 471.488 103.686 471.607 103.574C471.727 103.462 471.821 103.328 471.885 103.182C471.949 103.035 471.981 102.877 471.979 102.719V92.7902C471.979 92.471 471.844 92.1649 471.603 91.9392C471.362 91.7135 471.035 91.5867 470.695 91.5867H406.484C406.314 91.5849 406.145 91.6147 405.988 91.6744C405.83 91.7341 405.687 91.8224 405.566 91.9343C405.446 92.0463 405.35 92.1795 405.284 92.3265C405.219 92.4734 405.185 92.631 405.185 92.7902V102.746C405.185 102.905 405.219 103.063 405.284 103.21C405.35 103.357 405.446 103.49 405.566 103.602C405.687 103.714 405.83 103.802 405.988 103.862C406.145 103.922 406.314 103.951 406.484 103.95H433.336C433.852 103.053 434.618 102.303 435.552 101.781C436.485 101.258 437.553 100.983 438.64 100.983C439.728 100.983 440.795 101.258 441.729 101.781C442.663 102.303 443.429 103.053 443.945 103.95L443.93 103.922Z" fill="#263238"/>
<g opacity="0.5">
<path d="M470.695 106.657H441.931L441.596 105.714C441.392 105.13 440.997 104.62 440.466 104.26C439.935 103.899 439.296 103.704 438.64 103.704C437.985 103.704 437.346 103.899 436.815 104.26C436.284 104.62 435.889 105.13 435.685 105.714L435.35 106.657H406.557C405.441 106.657 404.37 106.243 403.58 105.505C402.789 104.766 402.343 103.765 402.339 102.719V92.7902C402.347 91.7455 402.794 90.7458 403.584 90.0083C404.374 89.2708 405.442 88.8551 406.557 88.8516H470.768C471.881 88.8552 472.948 89.2713 473.735 90.0092C474.523 90.747 474.967 91.7467 474.971 92.7902V102.746C474.967 103.267 474.853 103.782 474.635 104.261C474.418 104.74 474.101 105.174 473.704 105.538C473.306 105.902 472.835 106.188 472.319 106.38C471.802 106.572 471.25 106.666 470.695 106.657V106.657ZM443.93 103.922H470.695C470.864 103.924 471.032 103.894 471.188 103.834C471.345 103.775 471.488 103.686 471.607 103.574C471.727 103.462 471.821 103.328 471.885 103.182C471.949 103.035 471.981 102.877 471.979 102.719V92.7902C471.979 92.471 471.844 92.1649 471.603 91.9392C471.362 91.7135 471.035 91.5867 470.695 91.5867H406.484C406.314 91.5849 406.145 91.6147 405.988 91.6744C405.83 91.7341 405.687 91.8224 405.566 91.9343C405.446 92.0463 405.35 92.1795 405.284 92.3265C405.219 92.4734 405.185 92.631 405.185 92.7902V102.746C405.185 102.905 405.219 103.063 405.284 103.21C405.35 103.357 405.446 103.49 405.566 103.602C405.687 103.714 405.83 103.802 405.988 103.862C406.145 103.922 406.314 103.951 406.484 103.95H433.336C433.852 103.053 434.618 102.303 435.552 101.781C436.485 101.258 437.553 100.983 438.64 100.983C439.728 100.983 440.795 101.258 441.729 101.781C442.663 102.303 443.429 103.053 443.945 103.95L443.93 103.922Z" fill="white"/>
</g>
<path d="M466.199 87.2651H411.065C410.267 87.2651 409.62 87.8713 409.62 88.619V91.8602C409.62 92.6079 410.267 93.2141 411.065 93.2141H466.199C466.997 93.2141 467.643 92.6079 467.643 91.8602V88.619C467.643 87.8713 466.997 87.2651 466.199 87.2651Z" fill="#263238"/>
<path opacity="0.2" d="M466.199 87.2651H411.065C410.267 87.2651 409.62 87.8713 409.62 88.619V91.8602C409.62 92.6079 410.267 93.2141 411.065 93.2141H466.199C466.997 93.2141 467.643 92.6079 467.643 91.8602V88.619C467.643 87.8713 466.997 87.2651 466.199 87.2651Z" fill="white"/>
<path d="M507.647 306.223C511.587 290.581 501.249 274.907 484.556 271.215C467.864 267.522 451.138 277.211 447.199 292.853C443.259 308.496 453.597 324.17 470.289 327.862C486.982 331.554 503.707 321.866 507.647 306.223Z" fill="#5C40CA"/>
<path opacity="0.3" d="M477.437 299.568H508.492C508.492 305.324 506.67 310.951 503.258 315.736C499.846 320.522 494.996 324.252 489.321 326.455C483.647 328.658 477.403 329.234 471.379 328.111C465.355 326.988 459.821 324.216 455.478 320.146C451.135 316.076 448.177 310.891 446.979 305.246C445.781 299.6 446.396 293.749 448.746 288.431C451.097 283.114 455.077 278.568 460.184 275.371C465.291 272.173 471.295 270.466 477.437 270.466H477.554L477.437 299.568Z" fill="white"/>
<path opacity="0.3" d="M477.436 299.568L494.189 324.062C490.128 326.504 485.515 328.025 480.717 328.506C475.918 328.986 471.067 328.412 466.546 326.829C462.026 325.245 457.962 322.697 454.676 319.385C451.39 316.073 448.973 312.089 447.616 307.749C446.26 303.409 446.001 298.833 446.861 294.383C447.72 289.933 449.675 285.732 452.569 282.114C455.463 278.495 459.218 275.559 463.534 273.537C467.851 271.515 472.611 270.464 477.436 270.466H477.538L477.436 299.568Z" fill="white"/>
<path opacity="0.3" d="M477.437 299.568L451.257 315.213C448.264 310.815 446.588 305.743 446.405 300.529C446.221 295.315 447.536 290.151 450.212 285.577C452.888 281.003 456.827 277.187 461.617 274.528C466.407 271.87 471.871 270.467 477.437 270.466H477.54L477.437 299.568Z" fill="white"/>
<g opacity="0.5">
<path d="M368.614 140.204V208.884H508.71V140.204H368.614ZM507.557 150.926H483.318V141.23H507.557V150.926ZM430.139 150.926H405.185V141.23H430.139V150.926ZM431.234 141.23H456.174V150.926H431.292L431.234 141.23ZM430.139 151.952V207.858H405.185V151.979L430.139 151.952ZM431.234 151.952H456.174V207.858H431.292L431.234 151.952ZM457.269 151.952H482.223V207.858H457.269V151.952ZM457.269 150.926V141.23H482.223V150.926H457.269ZM404.09 141.23V150.926H369.708V141.23H404.09ZM369.708 151.979H404.09V207.886H369.708V151.979ZM483.318 207.886V151.979H507.557V207.886H483.318Z" fill="black"/>
<path d="M413.139 161.552H423.237C423.624 161.552 423.995 161.408 424.269 161.151C424.543 160.895 424.697 160.547 424.697 160.184C424.697 159.822 424.543 159.474 424.269 159.217C423.995 158.961 423.624 158.817 423.237 158.817H413.139C412.751 158.817 412.38 158.961 412.107 159.217C411.833 159.474 411.679 159.822 411.679 160.184C411.679 160.547 411.833 160.895 412.107 161.151C412.38 161.408 412.751 161.552 413.139 161.552Z" fill="black"/>
<path d="M438.59 173.956H449.549C449.936 173.956 450.308 173.812 450.581 173.555C450.855 173.299 451.009 172.951 451.009 172.588C451.009 172.226 450.855 171.878 450.581 171.621C450.308 171.365 449.936 171.221 449.549 171.221H438.59C438.203 171.221 437.832 171.365 437.558 171.621C437.284 171.878 437.13 172.226 437.13 172.588C437.13 172.951 437.284 173.299 437.558 173.555C437.832 173.812 438.203 173.956 438.59 173.956Z" fill="black"/>
<path d="M450.075 196.042H438.59C438.203 196.042 437.832 196.187 437.558 196.443C437.284 196.7 437.13 197.047 437.13 197.41C437.13 197.773 437.284 198.121 437.558 198.377C437.832 198.634 438.203 198.778 438.59 198.778H450.031C450.418 198.778 450.789 198.634 451.063 198.377C451.337 198.121 451.49 197.773 451.49 197.41C451.49 197.047 451.337 196.7 451.063 196.443C450.789 196.187 450.418 196.042 450.031 196.042H450.075Z" fill="black"/>
<path d="M475.467 183.625H463.398C463.011 183.625 462.64 183.769 462.366 184.025C462.092 184.282 461.938 184.63 461.938 184.992C461.938 185.355 462.092 185.703 462.366 185.959C462.64 186.216 463.011 186.36 463.398 186.36H475.496C475.883 186.36 476.254 186.216 476.528 185.959C476.801 185.703 476.955 185.355 476.955 184.992C476.955 184.63 476.801 184.282 476.528 184.025C476.254 183.769 475.883 183.625 475.496 183.625H475.467Z" fill="black"/>
<path d="M501.575 158.817H489.317C488.93 158.817 488.559 158.961 488.285 159.217C488.011 159.474 487.857 159.822 487.857 160.184C487.857 160.547 488.011 160.895 488.285 161.151C488.559 161.408 488.93 161.552 489.317 161.552H501.575C501.962 161.552 502.333 161.408 502.607 161.151C502.881 160.895 503.035 160.547 503.035 160.184C503.035 159.822 502.881 159.474 502.607 159.217C502.333 158.961 501.962 158.817 501.575 158.817Z" fill="black"/>
<path d="M499.999 196.042H489.317C488.93 196.042 488.559 196.187 488.285 196.443C488.011 196.7 487.857 197.047 487.857 197.41C487.857 197.773 488.011 198.121 488.285 198.377C488.559 198.634 488.93 198.778 489.317 198.778H499.999C500.386 198.778 500.757 198.634 501.031 198.377C501.305 198.121 501.458 197.773 501.458 197.41C501.458 197.047 501.305 196.7 501.031 196.443C500.757 196.187 500.386 196.042 499.999 196.042Z" fill="black"/>
<path d="M413.139 186.36H421.792C422.179 186.36 422.551 186.216 422.824 185.959C423.098 185.703 423.252 185.355 423.252 184.992C423.252 184.63 423.098 184.282 422.824 184.025C422.551 183.769 422.179 183.625 421.792 183.625H413.139C412.751 183.625 412.38 183.769 412.107 184.025C411.833 184.282 411.679 184.63 411.679 184.992C411.679 185.355 411.833 185.703 412.107 185.959C412.38 186.216 412.751 186.36 413.139 186.36Z" fill="black"/>
<path d="M423.237 196.042H413.139C412.751 196.042 412.38 196.187 412.107 196.443C411.833 196.7 411.679 197.047 411.679 197.41C411.679 197.773 411.833 198.121 412.107 198.377C412.38 198.634 412.751 198.778 413.139 198.778H423.237C423.624 198.778 423.995 198.634 424.269 198.377C424.543 198.121 424.697 197.773 424.697 197.41C424.697 197.047 424.543 196.7 424.269 196.443C423.995 196.187 423.624 196.042 423.237 196.042Z" fill="black"/>
<path d="M374.976 161.552H398.063C398.45 161.552 398.821 161.408 399.095 161.151C399.369 160.895 399.523 160.547 399.523 160.184C399.523 159.822 399.369 159.474 399.095 159.217C398.821 158.961 398.45 158.817 398.063 158.817H374.976C374.589 158.817 374.218 158.961 373.944 159.217C373.671 159.474 373.517 159.822 373.517 160.184C373.517 160.547 373.671 160.895 373.944 161.151C374.218 161.408 374.589 161.552 374.976 161.552Z" fill="black"/>
<path d="M374.976 173.956H390.343C390.73 173.956 391.101 173.812 391.375 173.555C391.649 173.299 391.803 172.951 391.803 172.588C391.803 172.226 391.649 171.878 391.375 171.621C391.101 171.365 390.73 171.221 390.343 171.221H374.976C374.589 171.221 374.218 171.365 373.944 171.621C373.671 171.878 373.517 172.226 373.517 172.588C373.517 172.951 373.671 173.299 373.944 173.555C374.218 173.812 374.589 173.956 374.976 173.956Z" fill="black"/>
<path d="M398.063 183.625H374.976C374.589 183.625 374.218 183.769 373.944 184.025C373.671 184.282 373.517 184.63 373.517 184.992C373.517 185.355 373.671 185.703 373.944 185.959C374.218 186.216 374.589 186.36 374.976 186.36H398.063C398.45 186.36 398.821 186.216 399.095 185.959C399.369 185.703 399.523 185.355 399.523 184.992C399.523 184.63 399.369 184.282 399.095 184.025C398.821 183.769 398.45 183.625 398.063 183.625Z" fill="black"/>
<path d="M386.52 196.042H374.976C374.589 196.042 374.218 196.187 373.944 196.443C373.671 196.7 373.517 197.047 373.517 197.41C373.517 197.773 373.671 198.121 373.944 198.377C374.218 198.634 374.589 198.778 374.976 198.778H386.52C386.907 198.778 387.278 198.634 387.552 198.377C387.825 198.121 387.979 197.773 387.979 197.41C387.979 197.047 387.825 196.7 387.552 196.443C387.278 196.187 386.907 196.042 386.52 196.042Z" fill="black"/>
</g>
<g opacity="0.5">
<path d="M424.711 125.804H370.073C369.686 125.804 369.315 125.66 369.041 125.403C368.768 125.147 368.614 124.799 368.614 124.436C368.614 124.073 368.768 123.726 369.041 123.469C369.315 123.213 369.686 123.068 370.073 123.068H424.711C425.098 123.068 425.469 123.213 425.743 123.469C426.016 123.726 426.17 124.073 426.17 124.436C426.17 124.799 426.016 125.147 425.743 125.403C425.469 125.66 425.098 125.804 424.711 125.804Z" fill="black"/>
</g>
<g opacity="0.5">
<path d="M405.55 133.476H370.073C369.686 133.476 369.315 133.332 369.041 133.075C368.768 132.819 368.614 132.471 368.614 132.108C368.614 131.745 368.768 131.398 369.041 131.141C369.315 130.885 369.686 130.741 370.073 130.741H405.55C405.937 130.741 406.308 130.885 406.582 131.141C406.855 131.398 407.009 131.745 407.009 132.108C407.009 132.471 406.855 132.819 406.582 133.075C406.308 133.332 405.937 133.476 405.55 133.476Z" fill="black"/>
</g>
<g opacity="0.5">
<path d="M440.574 220.741H370.073C369.686 220.741 369.315 220.597 369.041 220.34C368.768 220.084 368.614 219.736 368.614 219.373C368.614 219.011 368.768 218.663 369.041 218.406C369.315 218.15 369.686 218.006 370.073 218.006H440.574C440.961 218.006 441.332 218.15 441.606 218.406C441.879 218.663 442.033 219.011 442.033 219.373C442.033 219.736 441.879 220.084 441.606 220.34C441.332 220.597 440.961 220.741 440.574 220.741Z" fill="black"/>
</g>
<path d="M377.326 274.952H368.614V283.116H377.326V274.952Z" fill="#5C40CA"/>
<g opacity="0.5">
<path d="M426.914 280.408H383.66C383.272 280.408 382.901 280.264 382.628 280.008C382.354 279.751 382.2 279.403 382.2 279.041C382.2 278.678 382.354 278.33 382.628 278.074C382.901 277.817 383.272 277.673 383.66 277.673H426.914C427.301 277.673 427.673 277.817 427.946 278.074C428.22 278.33 428.374 278.678 428.374 279.041C428.374 279.403 428.22 279.751 427.946 280.008C427.673 280.264 427.301 280.408 426.914 280.408Z" fill="black"/>
</g>
<path d="M377.326 288.641H368.614V296.806H377.326V288.641Z" fill="#5C40CA"/>
<g opacity="0.5">
<path d="M426.914 294.084H383.66C383.272 294.084 382.901 293.94 382.628 293.684C382.354 293.427 382.2 293.079 382.2 292.717C382.2 292.354 382.354 292.006 382.628 291.75C382.901 291.493 383.272 291.349 383.66 291.349H426.914C427.301 291.349 427.673 291.493 427.946 291.75C428.22 292.006 428.374 292.354 428.374 292.717C428.374 293.079 428.22 293.427 427.946 293.684C427.673 293.94 427.301 294.084 426.914 294.084Z" fill="black"/>
</g>
<path d="M377.326 302.317H368.614V310.481H377.326V302.317Z" fill="#5C40CA"/>
<g opacity="0.5">
<path d="M426.914 307.774H383.66C383.272 307.774 382.901 307.63 382.628 307.373C382.354 307.117 382.2 306.769 382.2 306.406C382.2 306.043 382.354 305.696 382.628 305.439C382.901 305.183 383.272 305.039 383.66 305.039H426.914C427.301 305.039 427.673 305.183 427.946 305.439C428.22 305.696 428.374 306.043 428.374 306.406C428.374 306.769 428.22 307.117 427.946 307.373C427.673 307.63 427.301 307.774 426.914 307.774Z" fill="black"/>
</g>
<path d="M377.326 316.006H368.614V324.171H377.326V316.006Z" fill="#5C40CA"/>
<g opacity="0.5">
<path d="M426.914 321.463H383.66C383.272 321.463 382.901 321.319 382.628 321.063C382.354 320.806 382.2 320.458 382.2 320.096C382.2 319.733 382.354 319.385 382.628 319.129C382.901 318.872 383.272 318.728 383.66 318.728H426.914C427.301 318.728 427.673 318.872 427.946 319.129C428.22 319.385 428.374 319.733 428.374 320.096C428.374 320.458 428.22 320.806 427.946 321.063C427.673 321.319 427.301 321.463 426.914 321.463Z" fill="black"/>
</g>
<g opacity="0.5">
<path d="M506.711 232.967H380.128C379.741 232.967 379.37 232.823 379.096 232.566C378.823 232.31 378.669 231.962 378.669 231.599C378.669 231.237 378.823 230.889 379.096 230.632C379.37 230.376 379.741 230.232 380.128 230.232H506.711C507.098 230.232 507.469 230.376 507.743 230.632C508.017 230.889 508.171 231.237 508.171 231.599C508.171 231.962 508.017 232.31 507.743 232.566C507.469 232.823 507.098 232.967 506.711 232.967Z" fill="black"/>
<path d="M506.871 239.819H370.073C369.686 239.819 369.315 239.675 369.041 239.418C368.768 239.162 368.614 238.814 368.614 238.451C368.614 238.088 368.768 237.74 369.041 237.484C369.315 237.228 369.686 237.083 370.073 237.083H506.871C507.258 237.083 507.63 237.228 507.903 237.484C508.177 237.74 508.331 238.088 508.331 238.451C508.331 238.814 508.177 239.162 507.903 239.418C507.63 239.675 507.258 239.819 506.871 239.819Z" fill="black"/>
<path d="M507.032 246.67H370.234C369.847 246.67 369.475 246.526 369.202 246.27C368.928 246.013 368.774 245.665 368.774 245.303C368.774 244.94 368.928 244.592 369.202 244.336C369.475 244.079 369.847 243.935 370.234 243.935H507.032C507.419 243.935 507.79 244.079 508.064 244.336C508.338 244.592 508.491 244.94 508.491 245.303C508.491 245.665 508.338 246.013 508.064 246.27C507.79 246.526 507.419 246.67 507.032 246.67Z" fill="black"/>
<path d="M486.747 253.522H370.394C370.007 253.522 369.636 253.378 369.362 253.121C369.088 252.865 368.935 252.517 368.935 252.154C368.935 251.791 369.088 251.444 369.362 251.187C369.636 250.931 370.007 250.787 370.394 250.787H486.747C487.134 250.787 487.505 250.931 487.779 251.187C488.052 251.444 488.206 251.791 488.206 252.154C488.206 252.517 488.052 252.865 487.779 253.121C487.505 253.378 487.134 253.522 486.747 253.522Z" fill="black"/>
</g>
<path opacity="0.3" d="M377.326 288.641H368.614V296.806H377.326V288.641Z" fill="white"/>
<path opacity="0.5" d="M377.326 302.317H368.614V310.481H377.326V302.317Z" fill="white"/>
<path opacity="0.7" d="M377.326 316.006H368.614V324.171H377.326V316.006Z" fill="white"/>
<path d="M517.993 390.28C517.993 390.28 511.061 376.112 518.985 362.135C526.91 348.158 529.201 344.876 524.151 342.018C519.102 339.16 516.782 353.191 516.782 353.191C514.284 346.843 514.028 339.911 516.052 333.416C519.554 323.309 521.758 306.844 516.971 305.08C512.185 303.315 516.052 325.593 511.878 333.224C509.762 327.883 508.393 322.307 507.807 316.636C507.238 308.526 508.128 295.561 504.348 292.238C500.568 288.915 498.131 291.212 501.853 309.128C504.09 319.833 505.325 330.701 505.545 341.608C505.545 341.608 497.329 318.099 491.798 317.415C486.267 316.731 486.282 324.349 491.01 330.954C495.738 337.559 504.859 349.375 506.347 355.461C506.347 355.461 497.314 337.778 489.2 343.153C481.086 348.527 496.263 359.263 503.035 363.12C509.806 366.976 514.476 391.223 514.476 391.223L517.993 390.28Z" fill="#FFBC58"/>
<path d="M512.521 396.092C512.521 396.092 519.277 381.828 511.178 367.975C503.079 354.121 500.744 350.852 505.749 347.912C510.755 344.972 513.265 358.989 513.265 358.989C515.683 352.617 515.852 345.684 513.746 339.214C510.113 329.149 507.69 312.724 512.462 310.892C517.234 309.059 513.644 331.405 517.906 338.954C519.957 333.591 521.257 328.001 521.773 322.325C522.24 314.188 521.174 301.237 524.925 297.859C528.675 294.481 531.127 296.751 527.625 314.721C525.528 325.456 524.434 336.342 524.356 347.256C524.356 347.256 532.28 323.638 537.825 322.926C543.371 322.215 543.429 329.764 538.789 336.438C534.148 343.112 525.188 355.065 523.772 361.164C523.772 361.164 532.528 343.385 540.759 348.664C548.989 353.943 533.9 364.87 527.187 368.822C520.474 372.775 516.067 397.036 516.067 397.036L512.521 396.092Z" fill="#5C40CA"/>
<path d="M543.663 385.931H487.902L492.411 423.32H539.139L543.663 385.931Z" fill="#263238"/>
<path d="M206.934 65.2335H248.876C252.297 65.2335 255.578 66.5072 257.998 68.7744C260.417 71.0416 261.776 74.1166 261.776 77.3229V111.512C261.776 114.719 260.417 117.794 257.998 120.061C255.578 122.328 252.297 123.602 248.876 123.602H236.617L240.995 138.508L227.861 123.602H206.934C205.239 123.604 203.56 123.292 201.993 122.685C200.426 122.079 199.002 121.189 197.803 120.066C196.603 118.943 195.652 117.61 195.002 116.142C194.353 114.674 194.019 113.101 194.019 111.512V77.3229C194.019 75.7342 194.353 74.161 195.002 72.6933C195.652 71.2257 196.603 69.8924 197.803 68.7696C199.002 67.6468 200.426 66.7566 201.993 66.1498C203.56 65.5431 205.239 65.2317 206.934 65.2335V65.2335Z" fill="#5C40CA"/>
<path opacity="0.7" d="M206.934 65.2335H248.876C252.297 65.2335 255.578 66.5072 257.998 68.7744C260.417 71.0416 261.776 74.1166 261.776 77.3229V111.512C261.776 114.719 260.417 117.794 257.998 120.061C255.578 122.328 252.297 123.602 248.876 123.602H236.617L240.995 138.508L227.861 123.602H206.934C205.239 123.604 203.56 123.292 201.993 122.685C200.426 122.079 199.002 121.189 197.803 120.066C196.603 118.943 195.652 117.61 195.002 116.142C194.353 114.674 194.019 113.101 194.019 111.512V77.3229C194.019 75.7342 194.353 74.161 195.002 72.6933C195.652 71.2257 196.603 69.8924 197.803 68.7696C199.002 67.6468 200.426 66.7566 201.993 66.1498C203.56 65.5431 205.239 65.2317 206.934 65.2335V65.2335Z" fill="white"/>
<path opacity="0.7" d="M221.556 101.871C228.769 101.871 234.617 96.3909 234.617 89.6311C234.617 82.8712 228.769 77.3912 221.556 77.3912C214.342 77.3912 208.495 82.8712 208.495 89.6311C208.495 96.3909 214.342 101.871 221.556 101.871Z" fill="white"/>
<path d="M221.557 103.635C218.1 103.633 214.751 102.507 212.081 100.45C209.41 98.3934 207.583 95.5326 206.911 92.3551C206.239 89.1777 206.762 85.88 208.393 83.0239C210.024 80.1678 212.661 77.9298 215.855 76.6913C219.049 75.4527 222.603 75.2901 225.91 76.2312C229.218 77.1723 232.075 79.1588 233.995 81.8525C235.915 84.5461 236.78 87.7802 236.441 91.004C236.102 94.2277 234.581 97.2417 232.137 99.5325C230.749 100.836 229.099 101.869 227.284 102.573C225.468 103.277 223.522 103.638 221.557 103.635V103.635ZM221.557 79.1692C218.974 79.1696 216.471 80.0092 214.475 81.545C212.479 83.0808 211.112 85.2178 210.609 87.5918C210.105 89.9657 210.496 92.4299 211.714 94.5643C212.932 96.6988 214.901 98.3714 217.288 99.2974C219.674 100.223 222.329 100.345 224.801 99.6423C227.272 98.9394 229.407 97.4551 230.842 95.4424C232.277 93.4298 232.922 91.0132 232.669 88.6045C232.415 86.1957 231.278 83.9439 229.452 82.2326C228.418 81.2575 227.188 80.4846 225.832 79.9587C224.477 79.4329 223.024 79.1645 221.557 79.1692V79.1692Z" fill="#5C40CA"/>
<path d="M232.14 97.0298L229.458 99.5441L244.348 113.498L247.031 110.984L232.14 97.0298Z" fill="#5C40CA"/>
<path d="M247.284 116.422C246.531 116.415 245.809 116.136 245.27 115.642L233.902 104.989C233.618 104.746 233.39 104.452 233.23 104.125C233.071 103.797 232.984 103.442 232.974 103.082C232.965 102.722 233.034 102.364 233.176 102.03C233.319 101.695 233.532 101.391 233.803 101.136C234.075 100.881 234.398 100.68 234.755 100.545C235.111 100.41 235.493 100.345 235.877 100.352C236.262 100.359 236.64 100.44 236.99 100.588C237.341 100.736 237.655 100.949 237.915 101.214L249.298 111.882C249.692 112.255 249.959 112.729 250.066 113.245C250.173 113.76 250.116 114.294 249.901 114.779C249.686 115.264 249.323 115.678 248.857 115.97C248.392 116.263 247.845 116.42 247.284 116.422V116.422Z" fill="#5C40CA"/>
<path d="M223.585 84.0924C223.585 84.6334 223.414 85.1622 223.093 85.612C222.772 86.0618 222.316 86.4123 221.783 86.6194C221.25 86.8264 220.663 86.8805 220.097 86.775C219.531 86.6695 219.011 86.409 218.602 86.0264C218.194 85.6439 217.916 85.1566 217.804 84.626C217.691 84.0954 217.749 83.5455 217.97 83.0457C218.191 82.5459 218.565 82.1187 219.045 81.8182C219.525 81.5177 220.089 81.3572 220.666 81.3572C221.44 81.3572 222.183 81.6454 222.73 82.1583C223.277 82.6713 223.585 83.367 223.585 84.0924Z" fill="white"/>
<path d="M227.919 86.0891C227.919 86.3596 227.833 86.624 227.673 86.8489C227.512 87.0738 227.284 87.2491 227.018 87.3526C226.751 87.4561 226.458 87.4832 226.175 87.4304C225.892 87.3777 225.632 87.2474 225.427 87.0561C225.223 86.8649 225.084 86.6212 225.028 86.3559C224.972 86.0906 225.001 85.8157 225.111 85.5658C225.222 85.3159 225.409 85.1023 225.649 84.952C225.889 84.8017 226.171 84.7216 226.459 84.7216C226.846 84.7216 227.218 84.8656 227.491 85.1221C227.765 85.3786 227.919 85.7264 227.919 86.0891Z" fill="white"/>
<path d="M344.872 316.718H127.518V349.498H344.872V316.718Z" fill="#5C40CA"/>
<path opacity="0.8" d="M344.872 316.718H127.518V349.498H344.872V316.718Z" fill="white"/>
<path opacity="0.2" d="M344.871 325.388V322.721L196.062 323.829L344.871 325.388Z" fill="black"/>
<path opacity="0.2" d="M344.873 336.876V334.811L278.064 337.054L344.873 336.876Z" fill="black"/>
<path opacity="0.2" d="M344.872 344.562V341.895L237.159 343.44L344.872 344.562Z" fill="black"/>
<path opacity="0.2" d="M176.114 316.718L172.991 341.156L176.712 337.436C177.963 341.898 180.3 346.027 183.542 349.498C185.866 346.644 187.717 343.477 189.029 340.103L290.54 339.009L189.992 336.944C190.304 335.596 190.466 334.221 190.474 332.841C190.468 331.699 190.351 330.559 190.123 329.436L339.063 329.08L189.773 327.986C189.248 326.145 188.514 324.362 187.584 322.667C189.731 320.892 192.499 319.919 195.362 319.931H344.872V316.718H176.114Z" fill="black"/>
<path d="M179.47 332.923C179.482 336.853 181.155 340.618 184.122 343.394C187.09 346.17 191.111 347.731 195.304 347.734H347.382C347.535 347.734 347.687 347.763 347.828 347.818C347.97 347.873 348.099 347.953 348.207 348.055C348.316 348.156 348.402 348.277 348.46 348.41C348.519 348.542 348.549 348.685 348.549 348.828V350.004C348.549 350.295 348.426 350.573 348.207 350.778C347.988 350.983 347.691 351.099 347.382 351.099H122.731C120.169 351.099 117.632 350.623 115.266 349.7C112.901 348.776 110.754 347.423 108.95 345.718C107.145 344.013 105.719 341.99 104.753 339.766C103.787 337.542 103.301 335.16 103.322 332.759C103.448 327.906 105.607 323.293 109.331 319.918C113.055 316.543 118.047 314.676 123.227 314.721H347.382C347.691 314.721 347.988 314.836 348.207 315.041C348.426 315.247 348.549 315.525 348.549 315.815V316.977C348.549 317.268 348.426 317.546 348.207 317.751C347.988 317.956 347.691 318.071 347.382 318.071H195.771C191.523 318.063 187.439 319.612 184.394 322.387C181.348 325.162 179.581 328.944 179.47 332.923V332.923Z" fill="#5C40CA"/>
<path opacity="0.4" d="M179.47 332.923C179.482 336.853 181.155 340.618 184.122 343.394C187.09 346.17 191.111 347.731 195.304 347.734H347.382C347.535 347.734 347.687 347.763 347.828 347.818C347.97 347.873 348.099 347.953 348.207 348.055C348.316 348.156 348.402 348.277 348.46 348.41C348.519 348.542 348.549 348.685 348.549 348.828V350.004C348.549 350.295 348.426 350.573 348.207 350.778C347.988 350.983 347.691 351.099 347.382 351.099H122.731C120.169 351.099 117.632 350.623 115.266 349.7C112.901 348.776 110.754 347.423 108.95 345.718C107.145 344.013 105.719 341.99 104.753 339.766C103.787 337.542 103.301 335.16 103.322 332.759C103.448 327.906 105.607 323.293 109.331 319.918C113.055 316.543 118.047 314.676 123.227 314.721H347.382C347.691 314.721 347.988 314.836 348.207 315.041C348.426 315.247 348.549 315.525 348.549 315.815V316.977C348.549 317.268 348.426 317.546 348.207 317.751C347.988 317.956 347.691 318.071 347.382 318.071H195.771C191.523 318.063 187.439 319.612 184.394 322.387C181.348 325.162 179.581 328.944 179.47 332.923V332.923Z" fill="white"/>
<path d="M179.469 332.923C179.481 336.853 181.154 340.618 184.122 343.394C187.089 346.17 191.11 347.731 195.303 347.734H347.381C347.534 347.734 347.686 347.763 347.828 347.818C347.969 347.873 348.098 347.953 348.206 348.055C348.315 348.156 348.401 348.277 348.459 348.41C348.518 348.542 348.548 348.685 348.548 348.828V350.004C348.548 350.295 348.425 350.573 348.206 350.778C347.987 350.983 347.69 351.099 347.381 351.099H194.428C191.865 351.097 189.328 350.62 186.963 349.696C184.598 348.772 182.451 347.419 180.645 345.715C178.84 344.011 177.412 341.988 176.444 339.765C175.476 337.542 174.987 335.161 175.004 332.759C175.137 327.913 177.294 323.309 181.011 319.936C184.727 316.563 189.707 314.691 194.88 314.721H347.381C347.69 314.721 347.987 314.836 348.206 315.041C348.425 315.247 348.548 315.525 348.548 315.815V316.977C348.548 317.268 348.425 317.546 348.206 317.751C347.987 317.956 347.69 318.072 347.381 318.072H195.77C191.522 318.063 187.439 319.612 184.393 322.387C181.347 325.162 179.58 328.944 179.469 332.923V332.923Z" fill="#5C40CA"/>
<path d="M208.103 324.089V337.231L213.182 332.472L218.1 337.081V324.089H208.103Z" fill="#263238"/>
<path opacity="0.6" d="M179.469 332.923C179.481 336.853 181.154 340.618 184.122 343.394C187.089 346.17 191.11 347.731 195.303 347.734H347.381C347.534 347.734 347.686 347.763 347.828 347.818C347.969 347.873 348.098 347.953 348.206 348.055C348.315 348.156 348.401 348.277 348.459 348.41C348.518 348.542 348.548 348.685 348.548 348.828V350.004C348.548 350.295 348.425 350.573 348.206 350.778C347.987 350.983 347.69 351.099 347.381 351.099H194.428C191.865 351.097 189.328 350.62 186.963 349.696C184.598 348.772 182.451 347.419 180.645 345.715C178.84 344.011 177.412 341.988 176.444 339.765C175.476 337.542 174.987 335.161 175.004 332.759C175.137 327.913 177.294 323.309 181.011 319.936C184.727 316.563 189.707 314.691 194.88 314.721H347.381C347.69 314.721 347.987 314.836 348.206 315.041C348.425 315.247 348.548 315.525 348.548 315.815V316.977C348.548 317.268 348.425 317.546 348.206 317.751C347.987 317.956 347.69 318.072 347.381 318.072H195.77C191.522 318.063 187.439 319.612 184.393 322.387C181.347 325.162 179.58 328.944 179.469 332.923V332.923Z" fill="white"/>
<path d="M355.364 388.953H138.01V421.734H355.364V388.953Z" fill="#5C40CA"/>
<path opacity="0.7" d="M355.364 388.953H138.01V421.734H355.364V388.953Z" fill="white"/>
<path opacity="0.2" d="M355.365 397.61V394.943L206.556 396.065L355.365 397.61Z" fill="black"/>
<path opacity="0.2" d="M355.365 409.098V407.046L288.556 409.275L355.365 409.098Z" fill="black"/>
<path opacity="0.2" d="M355.365 416.783V414.13L247.651 415.662L355.365 416.783Z" fill="black"/>
<path opacity="0.2" d="M186.606 388.953L183.454 413.392L187.175 409.672C188.44 414.131 190.782 418.258 194.02 421.734C196.334 418.871 198.179 415.699 199.492 412.325L301.004 411.231L200.455 409.18C200.771 407.832 200.937 406.457 200.952 405.077C200.941 403.934 200.819 402.794 200.587 401.672L349.571 401.357L200.266 400.263C199.74 398.426 199.006 396.647 198.077 394.957C200.213 393.157 202.982 392.159 205.855 392.153H355.408V388.953H186.606Z" fill="black"/>
<path d="M189.963 405.145C189.956 407.098 190.36 409.033 191.152 410.838C191.945 412.644 193.11 414.286 194.581 415.668C196.052 417.051 197.801 418.147 199.725 418.895C201.65 419.642 203.714 420.026 205.797 420.025H357.875C358.184 420.025 358.481 420.14 358.7 420.345C358.919 420.55 359.042 420.828 359.042 421.119V422.295C359.042 422.585 358.919 422.863 358.7 423.068C358.481 423.274 358.184 423.389 357.875 423.389H121.272C118.712 423.385 116.178 422.908 113.815 421.984C111.453 421.06 109.308 419.708 107.505 418.005C105.701 416.302 104.275 414.282 103.306 412.062C102.338 409.841 101.848 407.462 101.863 405.063C101.986 400.204 104.144 395.584 107.871 392.204C111.599 388.823 116.596 386.953 121.783 386.998H357.875C358.184 386.998 358.481 387.113 358.7 387.318C358.919 387.523 359.042 387.801 359.042 388.092V389.268C359.042 389.558 358.919 389.836 358.7 390.041C358.481 390.247 358.184 390.362 357.875 390.362H206.264C202.028 390.353 197.956 391.892 194.912 394.653C191.868 397.413 190.093 401.178 189.963 405.145Z" fill="#263238"/>
<path opacity="0.2" d="M189.963 405.145C189.956 407.098 190.36 409.033 191.152 410.838C191.945 412.644 193.11 414.286 194.581 415.668C196.052 417.051 197.801 418.147 199.725 418.895C201.65 419.642 203.714 420.026 205.797 420.025H357.875C358.184 420.025 358.481 420.14 358.7 420.345C358.919 420.55 359.042 420.828 359.042 421.119V422.295C359.042 422.585 358.919 422.863 358.7 423.068C358.481 423.274 358.184 423.389 357.875 423.389H121.272C118.712 423.385 116.178 422.908 113.815 421.984C111.453 421.06 109.308 419.708 107.505 418.005C105.701 416.302 104.275 414.282 103.306 412.062C102.338 409.841 101.848 407.462 101.863 405.063C101.986 400.204 104.144 395.584 107.871 392.204C111.599 388.823 116.596 386.953 121.783 386.998H357.875C358.184 386.998 358.481 387.113 358.7 387.318C358.919 387.523 359.042 387.801 359.042 388.092V389.268C359.042 389.558 358.919 389.836 358.7 390.041C358.481 390.247 358.184 390.362 357.875 390.362H206.264C202.028 390.353 197.956 391.892 194.912 394.653C191.868 397.413 190.093 401.178 189.963 405.145Z" fill="white"/>
<path d="M189.964 405.145C189.956 407.098 190.36 409.033 191.152 410.838C191.945 412.644 193.11 414.286 194.582 415.668C196.053 417.051 197.801 418.147 199.726 418.895C201.651 419.642 203.714 420.026 205.798 420.025H357.875C358.185 420.025 358.482 420.14 358.701 420.345C358.92 420.55 359.043 420.828 359.043 421.119V422.295C359.043 422.585 358.92 422.863 358.701 423.068C358.482 423.274 358.185 423.389 357.875 423.389H204.922C202.361 423.389 199.825 422.914 197.461 421.991C195.096 421.069 192.95 419.717 191.146 418.013C189.341 416.31 187.915 414.288 186.948 412.066C185.981 409.843 185.493 407.463 185.513 405.063C185.631 400.205 187.786 395.585 191.512 392.205C195.237 388.824 200.233 386.953 205.418 386.998H357.875C358.185 386.998 358.482 387.113 358.701 387.318C358.92 387.523 359.043 387.801 359.043 388.092V389.268C359.043 389.558 358.92 389.836 358.701 390.041C358.482 390.247 358.185 390.362 357.875 390.362H206.265C202.029 390.353 197.956 391.892 194.912 394.653C191.868 397.413 190.093 401.178 189.964 405.145Z" fill="#263238"/>
<path d="M206.556 400.988V414.13L211.62 409.371L216.538 413.98V400.988H206.556Z" fill="#FFBC58"/>
<path opacity="0.4" d="M189.964 405.145C189.956 407.098 190.36 409.033 191.152 410.838C191.945 412.644 193.11 414.286 194.582 415.668C196.053 417.051 197.801 418.147 199.726 418.895C201.651 419.642 203.714 420.026 205.798 420.025H357.875C358.185 420.025 358.482 420.14 358.701 420.345C358.92 420.55 359.043 420.828 359.043 421.119V422.295C359.043 422.585 358.92 422.863 358.701 423.068C358.482 423.274 358.185 423.389 357.875 423.389H204.922C202.361 423.389 199.825 422.914 197.461 421.991C195.096 421.069 192.95 419.717 191.146 418.013C189.341 416.31 187.915 414.288 186.948 412.066C185.981 409.843 185.493 407.463 185.513 405.063C185.631 400.205 187.786 395.585 191.512 392.205C195.237 388.824 200.233 386.953 205.418 386.998H357.875C358.185 386.998 358.482 387.113 358.701 387.318C358.92 387.523 359.043 387.801 359.043 388.092V389.268C359.043 389.558 358.92 389.836 358.701 390.041C358.482 390.247 358.185 390.362 357.875 390.362H206.265C202.029 390.353 197.956 391.892 194.912 394.653C191.868 397.413 190.093 401.178 189.964 405.145Z" fill="white"/>
<path d="M118.456 385.562H198.982V352.822H118.456V385.562Z" fill="#5C40CA"/>
<path opacity="0.8" d="M118.456 385.562H198.982V352.822H118.456V385.562Z" fill="white"/>
<path opacity="0.2" d="M192.532 356.036H118.456V352.835H192.444L192.532 356.036Z" fill="black"/>
<path opacity="0.2" d="M192.532 358.825L125.709 360.166L192.532 361.492V358.825Z" fill="black"/>
<path opacity="0.2" d="M192.531 370.928L121.768 372.05L192.531 372.993V370.928Z" fill="black"/>
<path opacity="0.2" d="M192.531 378.012L122.396 379.339L192.531 380.666V378.012Z" fill="black"/>
<path opacity="0.2" d="M118.456 363.489L186.301 365.403L118.456 366.744V363.489Z" fill="black"/>
<path d="M298.188 369.027C298.181 372.959 296.509 376.728 293.541 379.507C290.573 382.286 286.55 383.848 282.354 383.852H114.735C114.425 383.852 114.128 383.967 113.909 384.172C113.69 384.378 113.567 384.656 113.567 384.946V386.109C113.567 386.399 113.69 386.677 113.909 386.882C114.128 387.087 114.425 387.203 114.735 387.203H283.23C285.792 387.206 288.33 386.734 290.696 385.813C293.062 384.891 295.21 383.539 297.015 381.835C298.82 380.131 300.246 378.108 301.212 375.884C302.177 373.66 302.662 371.278 302.639 368.877C302.521 364.019 300.365 359.399 296.64 356.018C292.915 352.637 287.919 350.767 282.734 350.811H114.735C114.425 350.811 114.128 350.927 113.909 351.132C113.69 351.337 113.567 351.615 113.567 351.905V353.081C113.567 353.372 113.69 353.65 113.909 353.855C114.128 354.06 114.425 354.176 114.735 354.176H281.887C286.136 354.167 290.219 355.716 293.265 358.491C296.311 361.266 298.078 365.048 298.188 369.027Z" fill="#263238"/>
<path opacity="0.4" d="M298.188 369.027C298.181 372.959 296.509 376.728 293.541 379.507C290.573 382.286 286.55 383.848 282.354 383.852H114.735C114.425 383.852 114.128 383.967 113.909 384.172C113.69 384.378 113.567 384.656 113.567 384.946V386.109C113.567 386.399 113.69 386.677 113.909 386.882C114.128 387.087 114.425 387.203 114.735 387.203H283.23C285.792 387.206 288.33 386.734 290.696 385.813C293.062 384.891 295.21 383.539 297.015 381.835C298.82 380.131 300.246 378.108 301.212 375.884C302.177 373.66 302.662 371.278 302.639 368.877C302.521 364.019 300.365 359.399 296.64 356.018C292.915 352.637 287.919 350.767 282.734 350.811H114.735C114.425 350.811 114.128 350.927 113.909 351.132C113.69 351.337 113.567 351.615 113.567 351.905V353.081C113.567 353.372 113.69 353.65 113.909 353.855C114.128 354.06 114.425 354.176 114.735 354.176H281.887C286.136 354.167 290.219 355.716 293.265 358.491C296.311 361.266 298.078 365.048 298.188 369.027Z" fill="white"/>
<path d="M359.319 369.219C359.319 373.571 357.474 377.746 354.19 380.823C350.906 383.901 346.451 385.63 341.807 385.63H192.531V352.808H341.821C346.463 352.812 350.914 354.542 354.195 357.619C357.476 360.697 359.319 364.869 359.319 369.219Z" fill="#5C40CA"/>
<path opacity="0.7" d="M192.531 352.835V385.657H341.836C346.481 385.657 350.935 383.928 354.219 380.851C357.503 377.773 359.348 373.599 359.348 369.246C359.348 364.894 357.503 360.72 354.219 357.642C350.935 354.564 346.481 352.835 341.836 352.835H192.531Z" fill="white"/>
<path opacity="0.2" d="M192.531 361.492V358.825L341.34 359.947L192.531 361.492Z" fill="black"/>
<path opacity="0.2" d="M192.531 372.993V370.928L259.34 373.171L192.531 372.993Z" fill="black"/>
<path opacity="0.2" d="M192.531 380.666V378.012L300.245 379.544L192.531 380.666Z" fill="black"/>
<path opacity="0.2" d="M342.07 356.036C344.942 356.041 347.711 357.04 349.848 358.839C348.917 360.536 348.179 362.318 347.644 364.159L198.354 365.253L347.309 365.595C347.076 366.722 346.954 367.866 346.944 369.014C346.947 370.395 347.118 371.772 347.455 373.117L246.892 375.168L348.389 376.276C349.268 378.545 350.398 380.722 351.76 382.772C354.815 380.78 357.113 377.927 358.321 374.628C359.529 371.329 359.585 367.755 358.479 364.424C357.373 361.094 355.163 358.18 352.17 356.106C349.178 354.032 345.558 352.906 341.836 352.89H192.531V356.09L342.07 356.036Z" fill="black"/>
<path d="M357.932 369.027C357.925 372.959 356.254 376.728 353.285 379.507C350.317 382.286 346.294 383.848 342.099 383.852H190.021C189.711 383.852 189.414 383.967 189.195 384.172C188.977 384.378 188.854 384.656 188.854 384.946V386.109C188.854 386.399 188.977 386.677 189.195 386.882C189.414 387.087 189.711 387.203 190.021 387.203H342.974C345.536 387.206 348.074 386.734 350.44 385.813C352.806 384.891 354.954 383.539 356.759 381.835C358.564 380.131 359.991 378.108 360.956 375.884C361.921 373.66 362.407 371.278 362.383 368.877C362.265 364.019 360.11 359.399 356.385 356.018C352.659 352.637 347.664 350.767 342.478 350.811H190.021C189.711 350.811 189.414 350.927 189.195 351.132C188.977 351.337 188.854 351.615 188.854 351.905V353.081C188.854 353.372 188.977 353.65 189.195 353.855C189.414 354.06 189.711 354.176 190.021 354.176H341.632C345.88 354.167 349.963 355.716 353.009 358.491C356.055 361.266 357.822 365.048 357.932 369.027V369.027Z" fill="#263238"/>
<path d="M341.34 364.87V378.012L336.262 373.253L331.344 377.862V364.87H341.34Z" fill="#5C40CA"/>
<path d="M380.785 180.138H377.137C376.459 180.15 375.794 180.315 375.198 180.617C374.601 180.919 374.09 181.35 373.707 181.874L370.088 186.825C369.37 187.803 368.913 188.928 368.755 190.106C368.598 191.284 368.745 192.481 369.183 193.595L369.738 194.962C375.794 195.236 382.565 191.352 382.565 191.352L384.638 190.449C385.066 190.274 385.453 190.021 385.776 189.705C386.099 189.389 386.352 189.016 386.52 188.608C386.689 188.2 386.769 187.764 386.756 187.327C386.744 186.889 386.639 186.458 386.447 186.059L384.594 182.298C384.249 181.633 383.705 181.075 383.03 180.691C382.354 180.308 381.575 180.116 380.785 180.138V180.138Z" fill="#EEC1BB"/>
<path d="M311.629 186.169C320.998 193.266 331.111 200.104 342.275 204.289L340.889 204.015C341.91 204.248 344.595 203.291 345.996 202.648C353.789 199.092 361.174 193.759 368.178 188.89C368.895 188.404 369.774 188.174 370.656 188.242C371.538 188.31 372.365 188.672 372.988 189.261C373.61 189.851 373.987 190.63 374.049 191.458C374.112 192.285 373.857 193.106 373.33 193.772C366.34 201.978 350.608 218.649 338.145 216.214C324.486 212.399 312.417 205.274 301.662 196.562C294.686 190.271 304.041 180.438 311.629 186.169Z" fill="#EBC0BB"/>
<path d="M291.971 176.5C288.556 185.416 294.058 194.278 307.294 204.713C313.875 203.797 322.763 191.147 322.763 191.147C322.763 191.147 304.142 173.696 291.971 176.5Z" fill="#5C40CA"/>
<path d="M303.354 121.113C303.354 121.113 290.322 108.613 273.335 124.299C256.348 139.985 253.036 191.953 253.036 191.953L297.37 200.022C297.37 200.022 303.106 193.854 306.053 176.062C309.001 158.27 310.563 141.257 314.299 137.291C318.035 133.325 303.354 121.113 303.354 121.113Z" fill="#263238"/>
<path d="M341.428 384.29L331.825 380.707L335.576 367.592L339.034 355.557L351.176 358.073L346.025 371.954L341.428 384.29Z" fill="#EEC1BB"/>
<path opacity="0.2" d="M345.908 372.241L335.474 367.838L338.991 355.68L351.147 358.142L345.908 372.241Z" fill="black"/>
<path d="M268.766 266.117C268.766 266.117 349.03 255.97 371.329 269.317C393.627 282.665 350.445 363.954 350.445 363.954L336.932 361.219C336.932 361.219 347.06 296.778 346.301 294.084C345.542 291.39 307.745 308.964 256.012 310.632L268.766 266.117Z" fill="#263238"/>
<path opacity="0.2" d="M268.766 266.117C268.766 266.117 349.03 255.97 371.329 269.317C393.627 282.665 350.445 363.954 350.445 363.954L336.932 361.219C336.932 361.219 347.06 296.778 346.301 294.084C345.542 291.39 307.745 308.964 256.012 310.632L268.766 266.117Z" fill="black"/>
<path d="M336.189 357.116L353.19 362.285L350.14 369.547L334.525 364.569L336.189 357.116Z" fill="#263238"/>
<path d="M350.315 386.314C348.476 386.314 345.236 383.579 344.565 382.922C344.526 382.888 344.496 382.846 344.477 382.799V382.717C344.474 382.63 344.5 382.544 344.55 382.471C344.638 382.375 346.768 379.736 348.812 379.654C349.12 379.624 349.432 379.659 349.725 379.756C350.018 379.853 350.284 380.01 350.504 380.214C351.015 380.666 351.19 381.103 351.015 381.514C350.738 382.17 349.556 382.526 348.228 382.744C349.303 382.888 350.313 383.309 351.146 383.961C351.293 384.099 351.406 384.264 351.479 384.445C351.552 384.627 351.583 384.821 351.57 385.015C351.57 385.808 351.117 386.122 350.796 386.232C350.643 386.288 350.479 386.316 350.315 386.314V386.314ZM345.791 383.073C347.484 384.44 349.731 385.917 350.534 385.616C350.534 385.616 350.825 385.521 350.855 384.973C350.861 384.87 350.843 384.766 350.803 384.669C350.763 384.573 350.701 384.485 350.621 384.413C349.833 383.592 347.396 383.209 345.791 383.1V383.073ZM348.972 380.337H348.841C347.55 380.655 346.407 381.361 345.586 382.348C347.819 382.252 350.096 381.855 350.329 381.295C350.402 381.117 350.154 380.857 349.994 380.72C349.715 380.483 349.349 380.355 348.972 380.365V380.337Z" fill="#577AFA"/>
<path d="M330.03 375.113C330.41 374.101 343.442 378.956 343.442 378.956C343.442 378.956 348.929 389.254 356.284 393.439C363.639 397.624 357.626 400.742 348.739 398.02L326.732 391.305C320.384 389.391 326.105 385.562 330.03 375.113Z" fill="#2E353A"/>
<path opacity="0.4" d="M336.189 357.116L353.19 362.285L350.14 369.547L334.525 364.569L336.189 357.116Z" fill="white"/>
<path d="M383.311 410.315L373.358 412.941L367.813 400.386L362.764 388.871L374.03 383.948L378.948 397.911L383.311 410.315Z" fill="#EEC1BB"/>
<path d="M368.936 406.349C368.936 405.282 382.975 406.445 382.975 406.445C382.975 406.445 391.366 414.855 399.684 416.893C408.002 418.93 403.201 423.526 393.847 423.32L370.716 422.773C364.076 422.623 368.367 417.412 368.936 406.349Z" fill="#2E353A"/>
<path d="M390.345 409.959C388.299 409.699 386.321 409.092 384.507 408.168L384.405 408.099C384.4 408.063 384.4 408.026 384.405 407.99C384.399 407.958 384.399 407.926 384.405 407.894V407.894C384.39 407.85 384.39 407.802 384.405 407.757C384.405 407.607 385.704 404.598 387.616 403.901C387.904 403.79 388.214 403.742 388.525 403.758C388.835 403.775 389.138 403.856 389.411 403.997C390.038 404.284 390.33 404.653 390.301 405.104C390.228 405.802 389.177 406.472 388.01 407.019C389.094 406.867 390.201 407.005 391.206 407.415C391.385 407.508 391.541 407.636 391.664 407.789C391.787 407.942 391.875 408.117 391.921 408.304C392.015 408.54 392.03 408.797 391.965 409.041C391.9 409.285 391.757 409.505 391.556 409.672C391.201 409.899 390.772 410.001 390.345 409.959V409.959ZM385.719 407.99C387.776 408.851 390.359 409.658 391.045 409.152C391.045 409.152 391.293 408.975 391.162 408.455C391.138 408.353 391.09 408.257 391.022 408.174C390.954 408.092 390.867 408.024 390.768 407.976C389.746 407.402 387.295 407.716 385.719 407.99ZM388.345 404.42C388.161 404.42 387.977 404.453 387.806 404.516C386.68 405.155 385.801 406.113 385.295 407.251C387.412 406.568 389.469 405.569 389.528 404.981C389.528 404.79 389.221 404.598 389.031 404.516C388.813 404.436 388.579 404.403 388.345 404.42V404.42Z" fill="#577AFA"/>
<path opacity="0.2" d="M379.035 398.198L367.9 400.646L362.792 388.994L374.044 384.016L379.035 398.198Z" fill="black"/>
<path d="M291.533 275.841C291.533 275.841 290.38 260.961 289.841 257.925C289.394 254.916 288.736 251.937 287.87 249.009C284.353 239.094 237.173 250.759 237.173 250.759L235.83 257.597C235.83 257.597 214.539 295.219 228.767 308.772C233.145 312.875 241.566 314.735 250.219 314.68C250.219 314.68 276.677 315.87 325.886 313.723C325.886 313.723 322.238 340.582 362.793 393.206L376.365 389.104C376.365 389.104 349.571 293.565 347.295 291.869C327.681 277.017 291.533 275.841 291.533 275.841Z" fill="#263238"/>
<path d="M360.34 392.564L377.195 386.97L379.486 394.478L363.857 399.429L360.34 392.564Z" fill="#263238"/>
<path d="M307.396 183.625C307.396 183.625 305.703 187.509 303.339 194.292C302.77 195.878 302.186 197.629 301.573 199.516C300.771 201.991 299.91 204.713 299.049 207.722C298.421 209.855 297.794 212.084 297.181 214.436C296.568 216.789 295.911 219.332 295.284 221.917C295.284 222.218 295.138 222.532 295.079 222.833C292.411 233.415 290.461 244.145 289.242 254.958L237.406 250.718C237.399 240.057 237.988 229.402 239.172 218.799C240.107 209.612 241.919 200.522 244.586 191.639C246.644 185.239 249.3 179.741 252.715 176.144C252.715 176.199 280.822 167.556 307.396 183.625Z" fill="#5C40CA"/>
<path d="M280.982 169.224C265.381 164.547 259.325 176.062 259.325 176.062L267.629 175.296L284.484 195.126L294.364 183.132L300.581 186.264C300.581 186.264 294.495 173.272 280.982 169.224Z" fill="#5C40CA"/>
<path opacity="0.6" d="M280.982 169.224C265.381 164.547 259.325 176.062 259.325 176.062L267.629 175.296L284.484 195.126L294.364 183.132L300.581 186.264C300.581 186.264 294.495 173.272 280.982 169.224Z" fill="white"/>
<path d="M284.046 194.046L269.745 173.983C276.487 171.125 280.952 159.036 281.93 152.225L292.029 166.53C288.731 171.125 286.527 176.377 294.086 180.343C294.116 180.343 284.032 194.005 284.046 194.046Z" fill="#EEC1BB"/>
<path opacity="0.2" d="M286.046 158.065L292.03 166.53C291.244 167.58 290.565 168.698 290.001 169.867C287.01 168.609 283.828 164.397 284.573 161.484C284.826 160.266 285.327 159.106 286.046 158.065V158.065Z" fill="black"/>
<path d="M236.603 252.264L252.816 253.262L252.232 257.556L235.012 256.394L236.603 252.264Z" fill="black"/>
<path d="M290.541 260.114L254.188 257.679L254.772 253.385L289.957 255.56L290.541 260.114Z" fill="black"/>
<path d="M277.217 260.1H277.071L272.693 259.826C272.17 259.795 271.682 259.572 271.332 259.206C270.983 258.841 270.801 258.361 270.825 257.871L270.942 255.136C270.94 254.877 270.998 254.621 271.111 254.385C271.225 254.149 271.391 253.938 271.598 253.768C271.791 253.595 272.021 253.462 272.272 253.377C272.524 253.292 272.791 253.258 273.058 253.276L277.611 253.522C277.876 253.536 278.136 253.599 278.375 253.708C278.614 253.817 278.827 253.97 279.002 254.157C279.178 254.344 279.311 254.562 279.396 254.798C279.48 255.034 279.513 255.284 279.493 255.532L279.274 258.377C279.227 258.854 278.988 259.297 278.606 259.617C278.225 259.936 277.728 260.109 277.217 260.1V260.1ZM272.343 255.122L272.211 257.857C272.207 257.99 272.258 258.12 272.353 258.219C272.448 258.319 272.58 258.38 272.722 258.39L277.1 258.678C277.245 258.685 277.387 258.639 277.496 258.55C277.605 258.46 277.673 258.334 277.684 258.199L277.903 255.368C277.91 255.299 277.902 255.23 277.879 255.164C277.857 255.098 277.82 255.037 277.771 254.985C277.723 254.936 277.664 254.895 277.599 254.867C277.534 254.839 277.464 254.823 277.392 254.821L272.839 254.575C272.693 254.57 272.552 254.619 272.445 254.712C272.39 254.755 272.346 254.81 272.315 254.871C272.285 254.933 272.269 255 272.27 255.067L272.343 255.122Z" fill="white"/>
<path opacity="0.5" d="M360.34 392.564L377.195 386.97L379.486 394.478L363.857 399.429L360.34 392.564Z" fill="white"/>
<path d="M317.363 148.546C317.288 148.549 317.213 148.53 317.149 148.494C317.084 148.458 317.032 148.405 316.998 148.341C316.594 147.604 316.016 146.962 315.308 146.464C314.6 145.967 313.781 145.627 312.912 145.469C312.858 145.468 312.804 145.456 312.755 145.434C312.706 145.412 312.662 145.381 312.627 145.342C312.591 145.304 312.564 145.259 312.548 145.21C312.532 145.161 312.527 145.11 312.533 145.059C312.547 144.961 312.6 144.872 312.681 144.809C312.762 144.745 312.865 144.713 312.971 144.717C313.98 144.879 314.935 145.26 315.758 145.83C316.582 146.4 317.251 147.143 317.713 147.999C317.738 148.043 317.754 148.091 317.758 148.141C317.763 148.19 317.757 148.24 317.741 148.287C317.724 148.335 317.698 148.378 317.663 148.416C317.628 148.453 317.586 148.484 317.538 148.505L317.363 148.546Z" fill="#263238"/>
<path d="M312.489 154.468C312.648 156.366 313.05 158.24 313.686 160.048C313.17 160.344 312.576 160.501 311.971 160.501C311.366 160.501 310.772 160.344 310.256 160.048L312.489 154.468Z" fill="#D4827D"/>
<path d="M315.714 152.43C315.334 153.278 314.546 153.798 313.933 153.552C313.32 153.306 313.131 152.43 313.51 151.583C313.889 150.735 314.677 150.215 315.29 150.461C315.903 150.707 316.078 151.569 315.714 152.43Z" fill="#263238"/>
<path d="M315.014 150.406H317.305C317.305 150.406 315.642 151.624 315.014 150.406Z" fill="#263238"/>
<path d="M282.12 159.788C282.175 159.928 282.249 160.061 282.339 160.184C282.485 160.458 282.645 160.704 282.806 160.978C283.743 162.661 285.016 164.161 286.557 165.395C291.533 169.265 295.823 170.496 299.691 169.498C299.88 169.498 300.055 169.388 300.245 169.334C305.966 167.309 310.46 161.128 314.269 152.786C315.919 149.556 316.998 146.097 317.465 142.543C317.465 142.543 317.465 142.42 317.465 142.392C317.465 142.365 317.465 142.105 317.465 141.982C317.652 139.938 317.29 137.883 316.414 136.003C315.537 134.123 314.173 132.479 312.445 131.219C310.97 130.081 309.364 129.099 307.659 128.292C291.08 120.224 274.108 144.772 282.12 159.788Z" fill="#EEC1BB"/>
<path d="M317.465 142.406C317.465 142.406 312.474 153.839 298.815 153.347C298.815 153.347 287.899 162.523 280.792 159.364C271.087 155.056 269.511 138.29 279.829 126.843C293.24 111.991 321.259 123.506 317.465 142.406Z" fill="#263238"/>
<path d="M306.185 152.854C307.104 151.131 307.177 147.562 304.127 146.605C301.077 145.647 295.663 151.651 302.084 156.588C303.004 157.299 304.332 156.437 306.185 152.854Z" fill="#EEC1BB"/>
<path d="M303.355 121.113C303.355 121.113 315.978 123.739 319.889 130.877C324.471 139.22 324.471 145.606 311.658 149.476C311.658 149.476 295.941 134.898 289.039 133.161C285.014 132.125 280.904 131.407 276.751 131.014C281.698 118.761 298.378 115.779 303.355 121.113Z" fill="#263238"/>
<path d="M298.844 153.347C290.905 168.212 273.452 193.471 254.845 175.652C254.845 175.652 261.529 155.494 275.028 147.179C288.527 138.864 298.844 153.347 298.844 153.347Z" fill="#263238"/>
<path d="M295.97 178.141C302.756 182.845 294.073 198.326 302.639 201.773C301.834 200.73 301.328 199.51 301.17 198.232C301.011 196.953 301.205 195.658 301.734 194.47C303.529 190.258 310.811 179.126 307.907 164.055L295.97 178.141Z" fill="#263238"/>
<path opacity="0.2" d="M260.814 210.785C260.814 210.785 249.723 217.828 239.23 218.703C240.151 209.55 241.944 200.493 244.586 191.639C245.928 190.93 247.426 190.519 248.964 190.435C256.757 190.572 259.602 197.424 259.602 197.424C260.446 201.833 260.851 206.306 260.814 210.785V210.785Z" fill="black"/>
<path d="M301.297 259.567L298.962 256.941C298.523 256.461 297.968 256.087 297.344 255.849C296.719 255.611 296.043 255.517 295.372 255.573L288.98 256.011C287.717 256.097 286.494 256.466 285.415 257.087C284.335 257.708 283.431 258.563 282.778 259.58L281.96 260.852C285.521 265.461 292.978 267.991 292.978 267.991L295.022 268.934C295.432 269.142 295.883 269.272 296.347 269.315C296.811 269.359 297.28 269.316 297.726 269.189C298.173 269.062 298.588 268.853 298.948 268.574C299.308 268.296 299.605 267.954 299.823 267.567L301.866 263.792C302.232 263.115 302.373 262.351 302.272 261.598C302.171 260.845 301.831 260.137 301.297 259.567V259.567Z" fill="#EEC1BB"/>
<path d="M256.364 196.699C256.186 205.312 256.845 213.922 258.334 222.423C258.881 225.142 259.587 227.831 260.45 230.478L259.808 229.288C263.179 234.116 268.111 238.588 272.416 242.964L279.625 249.939L286.922 256.954C287.565 257.561 287.945 258.369 287.99 259.223C288.034 260.077 287.74 260.916 287.163 261.579C286.587 262.241 285.769 262.68 284.868 262.811C283.966 262.942 283.045 262.756 282.281 262.288C279.261 260.496 276.444 258.609 273.525 256.695C264.623 250.417 255.649 244.55 248.717 236.181C242.675 223.64 241.201 209.705 241.712 196.083C242.573 186.989 256.641 187.659 256.524 196.781L256.364 196.699Z" fill="#EBC0BB"/>
<path d="M252.219 176.281C242.66 179.358 238.705 188.931 238.282 205.123C243.171 209.376 259.253 207.968 259.253 207.968C259.253 207.968 262.157 183.433 252.219 176.281Z" fill="#5C40CA"/>
<path d="M355.219 272.148V276.429C355.219 277.536 353.76 277.988 352.65 277.988H260.552C259.37 277.988 257.939 277.536 257.939 276.429V272.107L355.219 272.148Z" fill="#263238"/>
<path opacity="0.4" d="M355.219 272.148V276.429C355.219 277.536 353.76 277.988 352.65 277.988H260.552C259.37 277.988 257.939 277.536 257.939 276.429V272.107L355.219 272.148Z" fill="white"/>
<path opacity="0.2" d="M355.219 272.148V276.429C355.219 277.536 353.759 277.988 352.65 277.988H291.913C290.731 277.988 289.33 277.536 289.33 276.429V272.107L355.219 272.148Z" fill="black"/>
<path d="M370.628 227.319L359.654 273.912C359.459 274.663 359.004 275.331 358.359 275.811C357.714 276.292 356.917 276.557 356.093 276.566H296.26C295.888 276.555 295.524 276.465 295.195 276.301C294.867 276.138 294.583 275.905 294.365 275.622C294.148 275.339 294.003 275.013 293.942 274.669C293.881 274.325 293.905 273.973 294.013 273.639L304.973 227.387C305.194 226.683 305.668 226.072 306.314 225.656C306.959 225.24 307.738 225.045 308.519 225.104H368.425C370.001 225.104 370.978 225.828 370.628 227.319Z" fill="#263238"/>
<path opacity="0.4" d="M370.631 227.319L359.656 273.912C359.462 274.663 359.006 275.331 358.361 275.811C357.717 276.292 356.919 276.557 356.096 276.566H298.247C297.874 276.557 297.508 276.468 297.178 276.306C296.847 276.143 296.561 275.911 296.342 275.628C296.123 275.344 295.977 275.017 295.915 274.672C295.853 274.328 295.877 273.974 295.986 273.639L306.945 227.387C307.167 226.681 307.643 226.068 308.292 225.652C308.941 225.236 309.723 225.042 310.506 225.104H368.369C370.003 225.104 370.981 225.828 370.631 227.319Z" fill="white"/>
<path opacity="0.2" d="M341.092 251.005C341.092 254.985 336.524 258.226 333.183 258.226C329.841 258.226 327.856 254.985 328.805 251.005C329.753 247.026 333.095 243.894 336.364 243.785C335.415 247.764 337.458 251.005 340.742 251.005H341.092Z" fill="black"/>
</svg>
