<svg width="73" height="53" viewBox="0 0 73 53" fill="none" xmlns="http://www.w3.org/2000/svg">
<path d="M0 0V5.26894H61.456V47.4205H22.3476V52.6894H72.6298V47.4205H67.0429V0H0ZM11.1794 7.90342C8.21858 7.91313 5.38188 9.02632 3.28772 11.0003C1.19356 12.9743 0.0117783 15.649 0 18.4413C0 24.2345 5.03939 28.9792 11.1794 28.9792C14.1387 28.9681 16.9734 27.8541 19.0655 25.8801C21.1576 23.9061 22.3373 21.2322 22.3476 18.4413C22.3476 12.6534 17.3138 7.90342 11.1794 7.90342ZM27.9345 10.5379V15.8068H41.9018V10.5379H27.9345ZM47.4887 10.5379V15.8068H55.8691V10.5379H47.4887ZM11.1794 13.1724C14.2913 13.1724 16.7607 15.4986 16.7607 18.4413C16.7607 21.3919 14.2941 23.7103 11.1794 23.7103C8.05073 23.7103 5.58691 21.3919 5.58691 18.4413C5.58691 15.4986 8.05353 13.1724 11.1794 13.1724ZM27.9345 21.0758V26.3447H55.8691V21.0758H27.9345ZM0 31.6137V52.6894H5.58691V36.8826H13.9673V52.6894H19.5542V38.6161L25.3199 41.4929C26.954 42.3096 28.9178 42.307 30.5492 41.4929V41.4982L40.4101 36.5797L37.8038 31.9166L27.9401 36.8352L19.2916 32.5305C18.0846 31.9291 16.7403 31.6144 15.3752 31.6137H0Z" fill="#5C40CA"/>
</svg>
