<svg width="60" height="53" viewBox="0 0 60 53" fill="none" xmlns="http://www.w3.org/2000/svg">
<path d="M6.96066 52.6894H0.75C0.75 47.566 2.71301 42.6525 6.20718 39.0297C9.70136 35.4069 14.4405 33.3716 19.382 33.3716C24.3235 33.3716 29.0626 35.4069 32.5568 39.0297C36.051 42.6525 38.014 47.566 38.014 52.6894H31.8033C31.8033 49.2738 30.4946 45.9981 28.1652 43.5829C25.8357 41.1677 22.6763 39.8109 19.382 39.8109C16.0877 39.8109 12.9282 41.1677 10.5988 43.5829C8.26934 45.9981 6.96066 49.2738 6.96066 52.6894V52.6894ZM51.5657 40.9796L47.1747 36.427C49.1934 34.3342 50.7948 31.8496 51.8873 29.1151C52.9799 26.3805 53.5422 23.4497 53.5422 20.4898C53.5422 17.5299 52.9799 14.5991 51.8873 11.8645C50.7948 9.13002 49.1934 6.64541 47.1747 4.55258L51.5657 0C56.806 5.43408 59.75 12.8038 59.75 20.4882C59.75 28.1726 56.806 35.5423 51.5657 40.9764V40.9796V40.9796ZM42.7807 31.8745L38.3897 27.3154C40.1343 25.5044 41.1142 23.0494 41.1142 20.4898C41.1142 17.9302 40.1343 15.4752 38.3897 13.6642L42.7807 9.10193C45.6924 12.1209 47.3282 16.2155 47.3282 20.485C47.3282 24.7544 45.6924 28.849 42.7807 31.868V31.8745ZM19.382 30.1487C16.0877 30.1487 12.9282 28.7919 10.5988 26.3767C8.26934 23.9615 6.96066 20.6858 6.96066 17.2702C6.96066 13.8546 8.26934 10.5788 10.5988 8.16364C12.9282 5.74844 16.0877 4.39159 19.382 4.39159C22.6763 4.39159 25.8357 5.74844 28.1652 8.16364C30.4946 10.5788 31.8033 13.8546 31.8033 17.2702C31.8033 20.6858 30.4946 23.9615 28.1652 26.3767C25.8357 28.7919 22.6763 30.1487 19.382 30.1487ZM19.382 10.8309C18.1658 10.8322 16.9768 11.2036 15.9623 11.8992C14.9479 12.5948 14.1528 13.5838 13.6756 14.7437C13.1985 15.9035 13.0602 17.1831 13.2781 18.4236C13.4959 19.6642 14.0603 20.8111 14.9011 21.7221C15.742 22.6332 16.8223 23.2682 18.0081 23.5484C19.1938 23.8286 20.4329 23.7417 21.5714 23.2985C22.71 22.8553 23.698 22.0752 24.4128 21.055C25.1277 20.0349 25.5379 18.8196 25.5927 17.5599V18.8478V17.2702C25.5927 15.5624 24.9383 13.9245 23.7736 12.7169C22.6089 11.5093 21.0292 10.8309 19.382 10.8309V10.8309Z" fill="#5C40CA"/>
</svg>
